<svg width="24" height="23" viewBox="0 0 24 23" fill="none" xmlns="http://www.w3.org/2000/svg">
<path d="M23.3951 10.5262L18.5708 14.6615L20.0406 20.8459C20.1217 21.1816 20.1008 21.5337 19.9806 21.8576C19.8604 22.1815 19.6462 22.4628 19.3651 22.6659C19.0841 22.869 18.7487 22.9847 18.4015 22.9986C18.0542 23.0124 17.7106 22.9237 17.4141 22.7437L12.0002 19.4337L6.58314 22.7437C6.28664 22.9227 5.94345 23.0106 5.59678 22.9962C5.25012 22.9819 4.91548 22.8659 4.63501 22.663C4.35453 22.4601 4.14076 22.1793 4.02062 21.8559C3.90047 21.5326 3.87932 21.1812 3.95983 20.8459L5.43497 14.6615L0.610735 10.5262C0.348402 10.3009 0.158677 10.0039 0.065256 9.67221C-0.0281653 9.3405 -0.0211431 8.9888 0.0854455 8.66103C0.192034 8.33326 0.393465 8.04395 0.664583 7.82923C0.9357 7.6145 1.26449 7.48389 1.60989 7.45369L7.93499 6.94675L10.375 1.08081C10.5071 0.761122 10.7318 0.487667 11.0208 0.295213C11.3097 0.102759 11.6497 0 11.9975 0C12.3454 0 12.6854 0.102759 12.9743 0.295213C13.2632 0.487667 13.488 0.761122 13.6201 1.08081L16.059 6.94675L22.3841 7.45369C22.7302 7.48276 23.0599 7.61265 23.332 7.82708C23.6041 8.0415 23.8065 8.33093 23.9138 8.6591C24.021 8.98726 24.0284 9.33957 23.935 9.67189C23.8416 10.0042 23.6515 10.3017 23.3886 10.5272L23.3951 10.5262Z" fill="#D0D1D4"/>
</svg>
