<svg width="18" height="18" viewBox="0 0 18 18" fill="none" xmlns="http://www.w3.org/2000/svg">
<path d="M17.7468 16.8124C17.6866 16.9168 17.5999 17.0034 17.4956 17.0636C17.3913 17.1238 17.2729 17.1555 17.1525 17.1555H0.685423C0.565042 17.1554 0.446813 17.1236 0.342606 17.0633C0.2384 17.003 0.151885 16.9164 0.0917477 16.8121C0.0316108 16.7078 -3.08828e-05 16.5896 2.2618e-08 16.4692C3.0928e-05 16.3488 0.0317332 16.2306 0.0919237 16.1263C1.39814 13.8681 3.41106 12.2488 5.76019 11.4812C4.5982 10.7895 3.69541 9.73545 3.19046 8.48097C2.68551 7.22648 2.60631 5.84093 2.96503 4.53708C3.32375 3.23323 4.10055 2.08318 5.17614 1.26354C6.25174 0.443904 7.56665 0 8.91894 0C10.2712 0 11.5861 0.443904 12.6617 1.26354C13.7373 2.08318 14.5141 3.23323 14.8729 4.53708C15.2316 5.84093 15.1524 7.22648 14.6474 8.48097C14.1425 9.73545 13.2397 10.7895 12.0777 11.4812C14.4268 12.2488 16.4397 13.8681 17.746 16.1263C17.8063 16.2305 17.8382 16.3488 17.8383 16.4693C17.8385 16.5897 17.8069 16.7081 17.7468 16.8124Z" fill="#ECEDEE"/>
</svg>
