<svg width="24" height="27" viewBox="0 0 24 27" fill="none" xmlns="http://www.w3.org/2000/svg">
<path d="M23.7277 19.8102C23.0338 18.6152 22.0024 15.2338 22.0024 10.8173C22.0024 8.16505 20.9486 5.6214 19.0729 3.74595C17.1972 1.87051 14.6532 0.816895 12.0006 0.816895C9.348 0.816895 6.80402 1.87051 4.92834 3.74595C3.05265 5.6214 1.9989 8.16505 1.9989 10.8173C1.9989 15.235 0.966218 18.6152 0.272348 19.8102C0.0951558 20.114 0.00121933 20.4592 1.17907e-05 20.8109C-0.00119575 21.1626 0.0903685 21.5084 0.26547 21.8134C0.440572 22.1184 0.69302 22.3719 0.997355 22.5483C1.30169 22.7246 1.64715 22.8176 1.9989 22.8178H7.10103C7.33178 23.9468 7.94545 24.9615 8.83825 25.6902C9.73104 26.4189 10.8481 26.8169 12.0006 26.8169C13.1531 26.8169 14.2702 26.4189 15.163 25.6902C16.0558 24.9615 16.6695 23.9468 16.9002 22.8178H22.0024C22.354 22.8174 22.6993 22.7242 23.0035 22.5478C23.3076 22.3714 23.5599 22.1179 23.7348 21.8129C23.9098 21.5079 24.0012 21.1622 24 20.8106C23.9987 20.459 23.9048 20.1139 23.7277 19.8102ZM12.0006 24.8179C11.3803 24.8177 10.7753 24.6253 10.2688 24.2671C9.76238 23.9089 9.37941 23.4026 9.17264 22.8178H14.8286C14.6218 23.4026 14.2389 23.9089 13.7324 24.2671C13.226 24.6253 12.621 24.8177 12.0006 24.8179Z" fill="#B3EAD3"/>
</svg>
