<svg width="18" height="18" viewBox="0 0 18 18" fill="none" xmlns="http://www.w3.org/2000/svg">
<path d="M17.2795 9.36027V16.56C17.2795 16.9419 17.1277 17.3082 16.8577 17.5782C16.5877 17.8483 16.2214 18 15.8395 18H1.43995C1.05806 18 0.691797 17.8483 0.421753 17.5782C0.151709 17.3082 0 16.9419 0 16.56V2.1605C0 1.7786 0.151709 1.41234 0.421753 1.1423C0.691797 0.872253 1.05806 0.720544 1.43995 0.720544H8.63973C8.83068 0.720544 9.01381 0.796398 9.14883 0.93142C9.28385 1.06644 9.35971 1.24957 9.35971 1.44052C9.35971 1.63147 9.28385 1.8146 9.14883 1.94962C9.01381 2.08464 8.83068 2.1605 8.63973 2.1605H1.43995V16.56H15.8395V9.36027C15.8395 9.16932 15.9154 8.98619 16.0504 8.85117C16.1854 8.71615 16.3685 8.6403 16.5595 8.6403C16.7504 8.6403 16.9336 8.71615 17.0686 8.85117C17.2036 8.98619 17.2795 9.16932 17.2795 9.36027ZM17.7888 4.10984L9.14911 12.7496C9.0822 12.8164 9.00277 12.8694 8.91537 12.9055C8.82797 12.9417 8.73431 12.9602 8.63973 12.9602H5.75982C5.56887 12.9602 5.38574 12.8843 5.25072 12.7493C5.1157 12.6143 5.03984 12.4311 5.03984 12.2402V9.36027C5.03977 9.2657 5.05833 9.17203 5.09446 9.08463C5.1306 8.99723 5.1836 8.9178 5.25043 8.85089L13.8902 0.21116C13.957 0.144219 14.0364 0.0911139 14.1238 0.0548815C14.2112 0.0186492 14.3049 0 14.3995 0C14.4942 0 14.5879 0.0186492 14.6753 0.0548815C14.7627 0.0911139 14.8421 0.144219 14.9089 0.21116L17.7888 3.09107C17.8558 3.15794 17.9089 3.23734 17.9451 3.32474C17.9814 3.41215 18 3.50584 18 3.60045C18 3.69507 17.9814 3.78876 17.9451 3.87616C17.9089 3.96357 17.8558 4.04297 17.7888 4.10984ZM16.2589 3.60045L14.3995 1.73841L13.2575 2.88048L15.1195 4.74252L16.2589 3.60045Z" fill="#ECEDEE"/>
</svg>
