<svg width="24" height="24" viewBox="0 0 24 24" fill="none" xmlns="http://www.w3.org/2000/svg">
<path d="M23.8769 23.2442C23.7959 23.384 23.6793 23.5002 23.5389 23.5809C23.3986 23.6616 23.2393 23.7041 23.0772 23.7041H0.922181C0.760219 23.7039 0.60115 23.6613 0.460949 23.5805C0.320748 23.4997 0.204348 23.3836 0.123439 23.2438C0.0425297 23.1039 -4.15502e-05 22.9454 3.04306e-08 22.784C4.16111e-05 22.6226 0.0426945 22.4641 0.123676 22.3243C1.88108 19.2968 4.5893 17.1258 7.74986 16.0967C6.18651 15.1693 4.97188 13.7562 4.2925 12.0743C3.61313 10.3925 3.50658 8.53491 3.9892 6.78686C4.47183 5.03882 5.51696 3.49697 6.96408 2.3981C8.4112 1.29923 10.1803 0.704102 11.9997 0.704102C13.8191 0.704102 15.5882 1.29923 17.0353 2.3981C18.4825 3.49697 19.5276 5.03882 20.0102 6.78686C20.4928 8.53491 20.3863 10.3925 19.7069 12.0743C19.0275 13.7562 17.8129 15.1693 16.2496 16.0967C19.4101 17.1258 22.1183 19.2968 23.8757 22.3243C23.9569 22.464 23.9998 22.6226 24 22.7841C24.0002 22.9455 23.9577 23.1042 23.8769 23.2442Z" fill="#B3EAD3"/>
</svg>
