<svg width="20" height="13" viewBox="0 0 20 13" fill="none" xmlns="http://www.w3.org/2000/svg">
<path d="M19.9425 6.23675C19.9133 6.17256 19.2075 4.64587 17.6383 3.11594C15.5475 1.07737 12.9067 0 10 0C7.09333 0 4.4525 1.07737 2.36166 3.11594C0.792493 4.64587 0.0833254 6.175 0.0574921 6.23675C0.0195863 6.31988 0 6.40984 0 6.50081C0 6.59179 0.0195863 6.68175 0.0574921 6.76487C0.0866587 6.82906 0.792493 8.35494 2.36166 9.88488C4.4525 11.9226 7.09333 13 10 13C12.9067 13 15.5475 11.9226 17.6383 9.88488C19.2075 8.35494 19.9133 6.82906 19.9425 6.76487C19.9804 6.68175 20 6.59179 20 6.50081C20 6.40984 19.9804 6.31988 19.9425 6.23675ZM10 9.75C9.34073 9.75 8.69626 9.55939 8.1481 9.20228C7.59993 8.84516 7.17269 8.33758 6.9204 7.74372C6.66811 7.14986 6.6021 6.49639 6.73071 5.86596C6.85933 5.23552 7.1768 4.65642 7.64298 4.2019C8.10915 3.74738 8.70309 3.43785 9.3497 3.31245C9.9963 3.18705 10.6665 3.25141 11.2756 3.49739C11.8847 3.74338 12.4053 4.15994 12.7716 4.6944C13.1378 5.22886 13.3333 5.85721 13.3333 6.5C13.3333 7.36195 12.9821 8.1886 12.357 8.7981C11.7319 9.40759 10.8841 9.75 10 9.75Z" fill="#ECEDEE"/>
</svg>
