<svg width="19" height="16" viewBox="0 0 19 16" fill="none" xmlns="http://www.w3.org/2000/svg">
<path d="M15.9615 2.08194H13.5569L12.3745 0.308821C12.3112 0.213877 12.2254 0.136023 12.1248 0.0821547C12.0242 0.0282868 11.9118 6.85348e-05 11.7977 0H6.24582C6.13168 6.85348e-05 6.01933 0.0282868 5.9187 0.0821547C5.81808 0.136023 5.73229 0.213877 5.66895 0.308821L4.48571 2.08194H2.08194C1.52978 2.08194 1.00023 2.30129 0.609786 2.69173C0.219347 3.08217 0 3.61171 0 4.16388V13.8796C0 14.4318 0.219347 14.9613 0.609786 15.3518C1.00023 15.7422 1.52978 15.9615 2.08194 15.9615H15.9615C16.5137 15.9615 17.0433 15.7422 17.4337 15.3518C17.8241 14.9613 18.0435 14.4318 18.0435 13.8796V4.16388C18.0435 3.61171 17.8241 3.08217 17.4337 2.69173C17.0433 2.30129 16.5137 2.08194 15.9615 2.08194ZM12.1446 8.67475C12.1446 9.2924 11.9615 9.89618 11.6183 10.4097C11.2752 10.9233 10.7875 11.3236 10.2168 11.5599C9.64619 11.7963 9.01827 11.8582 8.41249 11.7377C7.8067 11.6172 7.25026 11.3197 6.81351 10.883C6.37676 10.4462 6.07933 9.88978 5.95883 9.284C5.83834 8.67821 5.90018 8.0503 6.13655 7.47966C6.37291 6.90903 6.77318 6.42129 7.28674 6.07814C7.8003 5.73499 8.40409 5.55184 9.02174 5.55184C9.84999 5.55184 10.6443 5.88086 11.23 6.46652C11.8156 7.05218 12.1446 7.8465 12.1446 8.67475Z" fill="#ECEDEE"/>
</svg>
