<svg width="24" height="18" viewBox="0 0 24 18" fill="none" xmlns="http://www.w3.org/2000/svg">
<path d="M22.2857 0.521484H1.71429C1.25963 0.521484 0.823593 0.700591 0.502103 1.0194C0.180612 1.33821 0 1.77062 0 2.22148V15.8215C0 16.2724 0.180612 16.7048 0.502103 17.0236C0.823593 17.3424 1.25963 17.5215 1.71429 17.5215H22.2857C22.7404 17.5215 23.1764 17.3424 23.4979 17.0236C23.8194 16.7048 24 16.2724 24 15.8215V2.22148C24 1.77062 23.8194 1.33821 23.4979 1.0194C23.1764 0.700591 22.7404 0.521484 22.2857 0.521484ZM20.205 10.5844C20.2712 10.6751 20.3187 10.7779 20.3449 10.8868C20.3711 10.9957 20.3753 11.1086 20.3575 11.2192C20.3396 11.3297 20.3 11.4357 20.2408 11.5311C20.1817 11.6264 20.1041 11.7093 20.0127 11.775C19.9212 11.8406 19.8176 11.8877 19.7078 11.9137C19.598 11.9396 19.4841 11.9439 19.3726 11.9262C19.2611 11.9085 19.1542 11.8691 19.0581 11.8105C18.9619 11.7518 18.8783 11.6749 18.8121 11.5842L18 10.4675L17.1825 11.5842C17.0488 11.7674 16.8472 11.8904 16.6221 11.9262C16.3969 11.9619 16.1667 11.9075 15.982 11.775C15.7973 11.6424 15.6732 11.4425 15.6372 11.2192C15.6011 10.9959 15.6559 10.7676 15.7896 10.5844L16.6082 9.4688L15.2839 9.0438C15.1769 9.00892 15.0779 8.95347 14.9925 8.88064C14.9071 8.8078 14.837 8.719 14.7862 8.61931C14.6836 8.41796 14.6659 8.18444 14.737 7.97014C14.7721 7.86403 14.828 7.76583 14.9015 7.68114C14.9749 7.59645 15.0645 7.52694 15.165 7.47658C15.3681 7.37486 15.6035 7.35729 15.8196 7.42773L17.1429 7.85273V6.47148C17.1429 6.24605 17.2332 6.02985 17.3939 5.87044C17.5547 5.71104 17.7727 5.62148 18 5.62148C18.2273 5.62148 18.4453 5.71104 18.6061 5.87044C18.7668 6.02985 18.8571 6.24605 18.8571 6.47148V7.85273L20.1804 7.42773C20.2874 7.39285 20.4002 7.37921 20.5126 7.38759C20.6249 7.39597 20.7344 7.42621 20.835 7.47658C20.9355 7.52694 21.0251 7.59645 21.0985 7.68114C21.172 7.76583 21.2279 7.86403 21.263 7.97014C21.2982 8.07625 21.312 8.1882 21.3035 8.29958C21.2951 8.41096 21.2646 8.51961 21.2138 8.61931C21.163 8.719 21.0929 8.8078 21.0075 8.88064C20.9221 8.95347 20.8231 9.00892 20.7161 9.0438L19.3918 9.4688L20.205 10.5844ZM12.4907 10.5844C12.5569 10.6751 12.6045 10.7779 12.6306 10.8868C12.6568 10.9957 12.6611 11.1086 12.6432 11.2192C12.6253 11.3297 12.5857 11.4357 12.5265 11.5311C12.4674 11.6264 12.3898 11.7093 12.2984 11.775C12.2069 11.8406 12.1033 11.8877 11.9935 11.9137C11.8837 11.9396 11.7698 11.9439 11.6583 11.9262C11.5468 11.9085 11.4399 11.8691 11.3438 11.8105C11.2476 11.7518 11.1641 11.6749 11.0979 11.5842L10.2857 10.4675L9.46821 11.5842C9.33452 11.7674 9.13292 11.8904 8.90778 11.9262C8.68263 11.9619 8.45238 11.9075 8.26768 11.775C8.08297 11.6424 7.95895 11.4425 7.92288 11.2192C7.88681 10.9959 7.94166 10.7676 8.07536 10.5844L8.89393 9.4688L7.56964 9.0438C7.46264 9.00892 7.36361 8.95347 7.27821 8.88064C7.19282 8.8078 7.12272 8.719 7.07193 8.61931C6.96935 8.41796 6.95164 8.18444 7.02268 7.97014C7.05785 7.86403 7.11376 7.76583 7.18721 7.68114C7.26065 7.59645 7.3502 7.52694 7.45074 7.47658C7.65378 7.37486 7.88925 7.35729 8.10536 7.42773L9.42857 7.85273V6.47148C9.42857 6.24605 9.51888 6.02985 9.67962 5.87044C9.84037 5.71104 10.0584 5.62148 10.2857 5.62148C10.513 5.62148 10.7311 5.71104 10.8918 5.87044C11.0526 6.02985 11.1429 6.24605 11.1429 6.47148V7.85273L12.4661 7.42773C12.5731 7.39285 12.686 7.37921 12.7983 7.38759C12.9106 7.39597 13.0202 7.42621 13.1207 7.47658C13.2212 7.52694 13.3108 7.59645 13.3842 7.68114C13.4577 7.76583 13.5136 7.86403 13.5487 7.97014C13.5839 8.07625 13.5977 8.1882 13.5892 8.29958C13.5808 8.41096 13.5503 8.51961 13.4995 8.61931C13.4487 8.719 13.3786 8.8078 13.2932 8.88064C13.2078 8.95347 13.1088 9.00892 13.0018 9.0438L11.6775 9.4688L12.4907 10.5844ZM5.14286 4.77148V13.2715C5.14286 13.4969 5.05255 13.7131 4.89181 13.8725C4.73106 14.0319 4.51304 14.1215 4.28571 14.1215C4.05839 14.1215 3.84037 14.0319 3.67962 13.8725C3.51888 13.7131 3.42857 13.4969 3.42857 13.2715V4.77148C3.42857 4.54605 3.51888 4.32985 3.67962 4.17044C3.84037 4.01104 4.05839 3.92148 4.28571 3.92148C4.51304 3.92148 4.73106 4.01104 4.89181 4.17044C5.05255 4.32985 5.14286 4.54605 5.14286 4.77148Z" fill="#B3EAD3"/>
</svg>
