<svg width="19" height="17" viewBox="0 0 19 17" fill="none" xmlns="http://www.w3.org/2000/svg">
<path d="M0.000550797 8.40387C0.00240433 6.73291 0.66701 5.13093 1.84855 3.94938C3.0301 2.76784 4.63208 2.10323 6.30304 2.10138H14.7064V0.700828C14.7062 0.562246 14.7473 0.426748 14.8242 0.311487C14.9011 0.196225 15.0105 0.106384 15.1386 0.0533365C15.2666 0.00028886 15.4075 -0.0135798 15.5434 0.0134861C15.6793 0.0405521 15.8041 0.107336 15.9021 0.205382L18.0029 2.30621C18.068 2.37125 18.1197 2.44848 18.1549 2.53349C18.1901 2.61851 18.2083 2.70963 18.2083 2.80166C18.2083 2.89368 18.1901 2.98481 18.1549 3.06982C18.1197 3.15483 18.068 3.23207 18.0029 3.2971L15.9021 5.39793C15.8041 5.49598 15.6793 5.56276 15.5434 5.58983C15.4075 5.61689 15.2666 5.60302 15.1386 5.54998C15.0105 5.49693 14.9011 5.40709 14.8242 5.29183C14.7473 5.17657 14.7062 5.04107 14.7064 4.90249V3.50193H6.30304C5.00339 3.50332 3.75737 4.02022 2.83838 4.93921C1.91939 5.8582 1.40249 7.10422 1.4011 8.40387C1.4011 8.58959 1.32732 8.76771 1.196 8.89904C1.06467 9.03036 0.886552 9.10414 0.700827 9.10414C0.515102 9.10414 0.336984 9.03036 0.205657 8.89904C0.0743297 8.76771 0.000550797 8.58959 0.000550797 8.40387ZM17.5075 7.70359C17.3217 7.70359 17.1436 7.77737 17.0123 7.9087C16.881 8.04002 16.8072 8.21814 16.8072 8.40387C16.8058 9.70351 16.2889 10.9495 15.3699 11.8685C14.4509 12.7875 13.2049 13.3044 11.9052 13.3058H3.50193V11.9052C3.50204 11.7667 3.46103 11.6312 3.38409 11.5159C3.30715 11.4006 3.19774 11.3108 3.06971 11.2578C2.94169 11.2047 2.8008 11.1908 2.66489 11.2179C2.52897 11.245 2.40415 11.3118 2.30621 11.4098L0.205382 13.5106C0.140272 13.5757 0.0886207 13.6529 0.0533798 13.7379C0.0181389 13.8229 0 13.9141 0 14.0061C0 14.0981 0.0181389 14.1892 0.0533798 14.2742C0.0886207 14.3593 0.140272 14.4365 0.205382 14.5015L2.30621 16.6024C2.40415 16.7004 2.52897 16.7672 2.66489 16.7942C2.8008 16.8213 2.94169 16.8074 3.06971 16.7544C3.19774 16.7013 3.30715 16.6115 3.38409 16.4962C3.46103 16.381 3.50204 16.2455 3.50193 16.1069V14.7064H11.9052C13.5762 14.7045 15.1782 14.0399 16.3597 12.8584C17.5413 11.6768 18.2059 10.0748 18.2077 8.40387C18.2077 8.21814 18.134 8.04002 18.0026 7.9087C17.8713 7.77737 17.6932 7.70359 17.5075 7.70359Z" fill="#ECEDEE"/>
</svg>
