<svg width="18" height="24" viewBox="0 0 18 24" fill="none" xmlns="http://www.w3.org/2000/svg">
<path d="M14.7273 3.78571H13.0909V2.14286C13.0909 1.70714 12.9185 1.28928 12.6116 0.981182C12.3048 0.673086 11.8885 0.5 11.4545 0.5H6.54545C6.11146 0.5 5.69525 0.673086 5.38837 0.981182C5.08149 1.28928 4.90909 1.70714 4.90909 2.14286V3.78571H3.27273C2.40475 3.78571 1.57231 4.13189 0.958559 4.74808C0.344804 5.36427 0 6.2 0 7.07143V16.9286C0.000685994 17.657 0.242015 18.3647 0.686187 18.9407C1.13036 19.5167 1.75228 19.9285 2.45455 20.1116V21.8571C2.45455 22.2929 2.62695 22.7107 2.93383 23.0188C3.2407 23.3269 3.65692 23.5 4.09091 23.5H13.9091C14.3431 23.5 14.7593 23.3269 15.0662 23.0188C15.3731 22.7107 15.5455 22.2929 15.5455 21.8571V20.1116C16.2477 19.9285 16.8696 19.5167 17.3138 18.9407C17.758 18.3647 17.9993 17.657 18 16.9286V7.07143C18 6.2 17.6552 5.36427 17.0414 4.74808C16.4277 4.13189 15.5953 3.78571 14.7273 3.78571ZM11.8636 9.125C12.1064 9.125 12.3436 9.19726 12.5455 9.33265C12.7473 9.46804 12.9046 9.66048 12.9975 9.88562C13.0904 10.1108 13.1147 10.3585 13.0673 10.5975C13.02 10.8365 12.9031 11.0561 12.7314 11.2284C12.5598 11.4007 12.3411 11.5181 12.1031 11.5656C11.865 11.6132 11.6182 11.5888 11.394 11.4955C11.1697 11.4022 10.9781 11.2443 10.8432 11.0417C10.7083 10.8391 10.6364 10.6008 10.6364 10.3571C10.6364 10.0304 10.7657 9.71696 10.9958 9.48589C11.226 9.25482 11.5381 9.125 11.8636 9.125ZM12.3003 15.1594C11.3102 15.7791 10.1668 16.1076 9 16.1076C7.83321 16.1076 6.68981 15.7791 5.69966 15.1594C5.51603 15.0431 5.38593 14.8584 5.33798 14.6458C5.29003 14.4332 5.32816 14.2102 5.44398 14.0258C5.5598 13.8415 5.74382 13.7109 5.95557 13.6627C6.16731 13.6146 6.38944 13.6529 6.57307 13.7692C7.30177 14.2232 8.14236 14.4638 9 14.4638C9.85764 14.4638 10.6982 14.2232 11.4269 13.7692C11.6106 13.6529 11.8327 13.6146 12.0444 13.6627C12.2562 13.7109 12.4402 13.8415 12.556 14.0258C12.6718 14.2102 12.71 14.4332 12.662 14.6458C12.6141 14.8584 12.484 15.0431 12.3003 15.1594ZM6.54545 2.14286H11.4545V3.78571H6.54545V2.14286ZM6.13636 9.125C6.3791 9.125 6.61638 9.19726 6.8182 9.33265C7.02002 9.46804 7.17733 9.66048 7.27022 9.88562C7.36311 10.1108 7.38741 10.3585 7.34005 10.5975C7.2927 10.8365 7.17581 11.0561 7.00418 11.2284C6.83254 11.4007 6.61386 11.5181 6.37579 11.5656C6.13773 11.6132 5.89096 11.5888 5.66671 11.4955C5.44245 11.4022 5.25078 11.2443 5.11592 11.0417C4.98107 10.8391 4.90909 10.6008 4.90909 10.3571C4.90909 10.0304 5.03839 9.71696 5.26855 9.48589C5.49871 9.25482 5.81087 9.125 6.13636 9.125ZM13.9091 21.8571H4.09091V20.2143H13.9091V21.8571Z" fill="#FB943C"/>
</svg>
