<svg width="24" height="28" viewBox="0 0 24 28" fill="none" xmlns="http://www.w3.org/2000/svg">
<path d="M22 9.81738H18V6.81738C18 5.22608 17.3679 3.69996 16.2426 2.57474C15.1174 1.44952 13.5913 0.817383 12 0.817383C10.4087 0.817383 8.88258 1.44952 7.75736 2.57474C6.63214 3.69996 6 5.22608 6 6.81738V9.81738H2C1.46957 9.81738 0.960859 10.0281 0.585786 10.4032C0.210714 10.7782 0 11.287 0 11.8174V25.8174C0 26.3478 0.210714 26.8565 0.585786 27.2316C0.960859 27.6067 1.46957 27.8174 2 27.8174H22C22.5304 27.8174 23.0391 27.6067 23.4142 27.2316C23.7893 26.8565 24 26.3478 24 25.8174V11.8174C24 11.287 23.7893 10.7782 23.4142 10.4032C23.0391 10.0281 22.5304 9.81738 22 9.81738ZM13 19.6461V22.8174C13 23.0826 12.8946 23.337 12.7071 23.5245C12.5196 23.712 12.2652 23.8174 12 23.8174C11.7348 23.8174 11.4804 23.712 11.2929 23.5245C11.1054 23.337 11 23.0826 11 22.8174V19.6461C10.3328 19.4102 9.77045 18.9461 9.41237 18.3357C9.05429 17.7252 8.92353 17.0079 9.0432 16.3104C9.16288 15.6129 9.52527 14.9802 10.0663 14.524C10.6074 14.0679 11.2923 13.8177 12 13.8177C12.7077 13.8177 13.3926 14.0679 13.9337 14.524C14.4747 14.9802 14.8371 15.6129 14.9568 16.3104C15.0765 17.0079 14.9457 17.7252 14.5876 18.3357C14.2296 18.9461 13.6672 19.4102 13 19.6461ZM16 9.81738H8V6.81738C8 5.75652 8.42143 4.7391 9.17157 3.98896C9.92172 3.23881 10.9391 2.81738 12 2.81738C13.0609 2.81738 14.0783 3.23881 14.8284 3.98896C15.5786 4.7391 16 5.75652 16 6.81738V9.81738Z" fill="#B3EAD3"/>
</svg>
