<svg width="24" height="24" viewBox="0 0 24 24" fill="none" xmlns="http://www.w3.org/2000/svg">
<path d="M24 9.09849C24 9.34254 23.9027 9.57659 23.7296 9.74916C23.5564 9.92173 23.3216 10.0187 23.0768 10.0187H21.2303V11.859C21.2303 12.1031 21.133 12.3371 20.9598 12.5097C20.7867 12.6823 20.5519 12.7792 20.307 12.7792C20.0621 12.7792 19.8273 12.6823 19.6542 12.5097C19.481 12.3371 19.3838 12.1031 19.3838 11.859V10.0187H17.5373C17.2924 10.0187 17.0576 9.92173 16.8844 9.74916C16.7113 9.57659 16.614 9.34254 16.614 9.09849C16.614 8.85445 16.7113 8.6204 16.8844 8.44783C17.0576 8.27526 17.2924 8.17832 17.5373 8.17832H19.3838V6.33796C19.3838 6.09391 19.481 5.85986 19.6542 5.6873C19.8273 5.51473 20.0621 5.41778 20.307 5.41778C20.5519 5.41778 20.7867 5.51473 20.9598 5.6873C21.133 5.85986 21.2303 6.09391 21.2303 6.33796V8.17832H23.0768C23.3216 8.17832 23.5564 8.27526 23.7296 8.44783C23.9027 8.6204 24 8.85445 24 9.09849ZM12.921 4.49761H13.8443V5.41778C13.8443 5.66183 13.9415 5.89588 14.1147 6.06845C14.2878 6.24101 14.5227 6.33796 14.7675 6.33796C15.0124 6.33796 15.2472 6.24101 15.4204 6.06845C15.5935 5.89588 15.6908 5.66183 15.6908 5.41778V4.49761H16.614C16.8589 4.49761 17.0937 4.40066 17.2668 4.22809C17.44 4.05553 17.5373 3.82147 17.5373 3.57743C17.5373 3.33338 17.44 3.09933 17.2668 2.92676C17.0937 2.7542 16.8589 2.65725 16.614 2.65725H15.6908V1.73707C15.6908 1.49303 15.5935 1.25898 15.4204 1.08641C15.2472 0.913842 15.0124 0.816895 14.7675 0.816895C14.5227 0.816895 14.2878 0.913842 14.1147 1.08641C13.9415 1.25898 13.8443 1.49303 13.8443 1.73707V2.65725H12.921C12.6762 2.65725 12.4413 2.7542 12.2682 2.92676C12.095 3.09933 11.9978 3.33338 11.9978 3.57743C11.9978 3.82147 12.095 4.05553 12.2682 4.22809C12.4413 4.40066 12.6762 4.49761 12.921 4.49761ZM20.4386 15.3477C18.801 15.6701 17.1089 15.5856 15.5119 15.1017C13.9149 14.6177 12.462 13.7491 11.2817 12.5727C10.1013 11.3963 9.2299 9.94832 8.74431 8.35659C8.25873 6.76486 8.17396 5.07843 8.4975 3.4463C8.5292 3.28613 8.51757 3.12044 8.4638 2.96623C8.41004 2.81202 8.31608 2.67484 8.19156 2.56877C8.06705 2.46269 7.91646 2.39155 7.75525 2.36263C7.59404 2.33371 7.42801 2.34806 7.2742 2.4042C5.52595 3.04134 3.96696 4.10725 2.74118 5.50348C1.51541 6.89971 0.662364 8.58127 0.260828 10.3929C-0.140708 12.2044 -0.0777918 14.0877 0.443766 15.8686C0.965324 17.6496 1.92871 19.2709 3.24496 20.5827C4.56121 21.8946 6.18789 22.8548 7.97479 23.3746C9.76169 23.8944 11.6512 23.9571 13.4688 23.5569C15.2865 23.1567 16.9736 22.3065 18.3745 21.0848C19.7754 19.8631 20.8449 18.3093 21.4841 16.5669C21.5405 16.4136 21.5549 16.2481 21.5259 16.0874C21.4968 15.9268 21.4255 15.7767 21.319 15.6526C21.2126 15.5285 21.075 15.4348 20.9202 15.3812C20.7655 15.3277 20.5993 15.3161 20.4386 15.3477Z" fill="#B3EAD3"/>
</svg>
