<svg width="21" height="20" viewBox="0 0 21 20" fill="none" xmlns="http://www.w3.org/2000/svg">
<path d="M20.4707 9.15319L16.2495 12.7491L17.5355 18.1269C17.6065 18.4188 17.5882 18.7249 17.483 19.0066C17.3778 19.2883 17.1904 19.5329 16.9445 19.7095C16.6986 19.8861 16.4052 19.9867 16.1013 19.9988C15.7974 20.0108 15.4968 19.9337 15.2373 19.7771L10.5002 16.8989L5.76024 19.7771C5.50081 19.9328 5.20052 20.0092 4.89719 19.9967C4.59385 19.9842 4.30105 19.8834 4.05563 19.707C3.81022 19.5305 3.62317 19.2863 3.51804 19.0052C3.41291 18.724 3.3944 18.4184 3.46485 18.1269L4.7556 12.7491L0.534393 9.15319C0.304851 8.95734 0.138843 8.69906 0.057099 8.41061C-0.0246446 8.12217 -0.0185002 7.81634 0.0747648 7.53133C0.16803 7.24631 0.344282 6.99474 0.58151 6.80802C0.818738 6.62131 1.10643 6.50773 1.40865 6.48147L6.94312 6.04065L9.07811 0.939837C9.19367 0.661845 9.39036 0.424058 9.64316 0.256707C9.89597 0.0893559 10.1935 0 10.4978 0C10.8022 0 11.0997 0.0893559 11.3525 0.256707C11.6053 0.424058 11.802 0.661845 11.9176 0.939837L14.0516 6.04065L19.5861 6.48147C19.8889 6.50675 20.1775 6.6197 20.4155 6.80615C20.6536 6.99261 20.8307 7.24429 20.9245 7.52965C21.0184 7.81501 21.0248 8.12137 20.9431 8.41034C20.8614 8.69931 20.6951 8.95804 20.465 9.15412L20.4707 9.15319Z" fill="black"/>
</svg>
