<svg width="23" height="24" viewBox="0 0 23 24" fill="none" xmlns="http://www.w3.org/2000/svg">
<path d="M20.6667 1.84615H17.9167V0.923077C17.9167 0.678262 17.8201 0.443473 17.6482 0.270363C17.4763 0.0972524 17.2431 0 17 0C16.7569 0 16.5237 0.0972524 16.3518 0.270363C16.1799 0.443473 16.0833 0.678262 16.0833 0.923077V1.84615H6.91667V0.923077C6.91667 0.678262 6.82009 0.443473 6.64818 0.270363C6.47627 0.0972524 6.24312 0 6 0C5.75689 0 5.52373 0.0972524 5.35182 0.270363C5.17991 0.443473 5.08333 0.678262 5.08333 0.923077V1.84615H2.33333C1.8471 1.84615 1.38079 2.04066 1.03697 2.38688C0.693154 2.7331 0.5 3.20268 0.5 3.69231V22.1538C0.5 22.6435 0.693154 23.1131 1.03697 23.4593C1.38079 23.8055 1.8471 24 2.33333 24H20.6667C21.1529 24 21.6192 23.8055 21.963 23.4593C22.3068 23.1131 22.5 22.6435 22.5 22.1538V3.69231C22.5 3.20268 22.3068 2.7331 21.963 2.38688C21.6192 2.04066 21.1529 1.84615 20.6667 1.84615ZM11.5 17.5385C11.1374 17.5385 10.7829 17.4302 10.4815 17.2273C10.18 17.0245 9.94498 16.7361 9.80622 16.3988C9.66746 16.0615 9.63115 15.6903 9.70189 15.3321C9.77263 14.974 9.94724 14.6451 10.2036 14.3869C10.46 14.1287 10.7867 13.9529 11.1423 13.8816C11.498 13.8104 11.8666 13.847 12.2016 13.9867C12.5366 14.1264 12.8229 14.363 13.0244 14.6666C13.2258 14.9702 13.3333 15.3272 13.3333 15.6923C13.3333 16.1819 13.1402 16.6515 12.7964 16.9977C12.4525 17.344 11.9862 17.5385 11.5 17.5385ZM20.6667 7.38462H2.33333V3.69231H5.08333V4.61538C5.08333 4.8602 5.17991 5.09499 5.35182 5.2681C5.52373 5.44121 5.75689 5.53846 6 5.53846C6.24312 5.53846 6.47627 5.44121 6.64818 5.2681C6.82009 5.09499 6.91667 4.8602 6.91667 4.61538V3.69231H16.0833V4.61538C16.0833 4.8602 16.1799 5.09499 16.3518 5.2681C16.5237 5.44121 16.7569 5.53846 17 5.53846C17.2431 5.53846 17.4763 5.44121 17.6482 5.2681C17.8201 5.09499 17.9167 4.8602 17.9167 4.61538V3.69231H20.6667V7.38462Z" fill="#84A99D"/>
</svg>
