<svg width="14" height="13" viewBox="0 0 14 13" fill="none" xmlns="http://www.w3.org/2000/svg">
<path d="M13.9282 12.74C13.8809 12.8191 13.8129 12.8847 13.731 12.9304C13.6492 12.976 13.5563 13 13.4617 13H0.537939C0.443461 12.9999 0.350671 12.9758 0.268887 12.9301C0.187103 12.8845 0.119203 12.8188 0.0720061 12.7398C0.024809 12.6608 -2.42376e-05 12.5712 1.77512e-08 12.4799C2.42731e-05 12.3887 0.0249051 12.2991 0.0721442 12.2201C1.0973 10.5089 2.67709 9.28186 4.52075 8.70018C3.6088 8.176 2.90026 7.37728 2.50396 6.42666C2.10766 5.47605 2.0455 4.42611 2.32704 3.43808C2.60857 2.45006 3.21822 1.57858 4.06238 0.957479C4.90654 0.336379 5.93851 0 6.99983 0C8.06115 0 9.09313 0.336379 9.93728 0.957479C10.7814 1.57858 11.3911 2.45006 11.6726 3.43808C11.9542 4.42611 11.892 5.47605 11.4957 6.42666C11.0994 7.37728 10.3909 8.176 9.47891 8.70018C11.3226 9.28186 12.9024 10.5089 13.9275 12.2201C13.9749 12.2991 13.9999 12.3887 14 12.48C14.0001 12.5713 13.9754 12.6609 13.9282 12.74Z" fill="#737780"/>
</svg>
