<svg width="24" height="18" viewBox="0 0 24 18" fill="none" xmlns="http://www.w3.org/2000/svg">
<path d="M22.2857 0.520996H1.71429C1.25963 0.520996 0.823593 0.700103 0.502103 1.01891C0.180612 1.33773 0 1.77013 0 2.221V15.821C0 16.2719 0.180612 16.7043 0.502103 17.0231C0.823593 17.3419 1.25963 17.521 1.71429 17.521H22.2857C22.7404 17.521 23.1764 17.3419 23.4979 17.0231C23.8194 16.7043 24 16.2719 24 15.821V2.221C24 1.77013 23.8194 1.33773 23.4979 1.01891C23.1764 0.700103 22.7404 0.520996 22.2857 0.520996ZM20.205 10.5839C20.2712 10.6746 20.3187 10.7774 20.3449 10.8863C20.3711 10.9952 20.3753 11.1081 20.3575 11.2187C20.3396 11.3292 20.3 11.4352 20.2408 11.5306C20.1817 11.6259 20.1041 11.7088 20.0127 11.7745C19.9212 11.8401 19.8176 11.8873 19.7078 11.9132C19.598 11.9391 19.4841 11.9434 19.3726 11.9257C19.2611 11.908 19.1542 11.8687 19.0581 11.81C18.9619 11.7513 18.8783 11.6744 18.8121 11.5837L18 10.4671L17.1825 11.5837C17.0488 11.7669 16.8472 11.8899 16.6221 11.9257C16.3969 11.9614 16.1667 11.907 15.982 11.7745C15.7973 11.6419 15.6732 11.442 15.6372 11.2187C15.6011 10.9954 15.6559 10.7671 15.7896 10.5839L16.6082 9.46831L15.2839 9.04331C15.1769 9.00843 15.0779 8.95298 14.9925 8.88015C14.9071 8.80732 14.837 8.71852 14.7862 8.61882C14.6836 8.41747 14.6659 8.18396 14.737 7.96965C14.7721 7.86354 14.828 7.76534 14.9015 7.68065C14.9749 7.59597 15.0645 7.52645 15.165 7.47609C15.3681 7.37437 15.6035 7.3568 15.8196 7.42725L17.1429 7.85225V6.471C17.1429 6.24556 17.2332 6.02936 17.3939 5.86996C17.5547 5.71055 17.7727 5.621 18 5.621C18.2273 5.621 18.4453 5.71055 18.6061 5.86996C18.7668 6.02936 18.8571 6.24556 18.8571 6.471V7.85225L20.1804 7.42725C20.2874 7.39236 20.4002 7.37872 20.5126 7.3871C20.6249 7.39548 20.7344 7.42572 20.835 7.47609C20.9355 7.52645 21.0251 7.59597 21.0985 7.68065C21.172 7.76534 21.2279 7.86354 21.263 7.96965C21.2982 8.07577 21.312 8.18771 21.3035 8.29909C21.2951 8.41048 21.2646 8.51912 21.2138 8.61882C21.163 8.71852 21.0929 8.80732 21.0075 8.88015C20.9221 8.95298 20.8231 9.00843 20.7161 9.04331L19.3918 9.46831L20.205 10.5839ZM12.4907 10.5839C12.5569 10.6746 12.6045 10.7774 12.6306 10.8863C12.6568 10.9952 12.6611 11.1081 12.6432 11.2187C12.6253 11.3292 12.5857 11.4352 12.5265 11.5306C12.4674 11.6259 12.3898 11.7088 12.2984 11.7745C12.2069 11.8401 12.1033 11.8873 11.9935 11.9132C11.8837 11.9391 11.7698 11.9434 11.6583 11.9257C11.5468 11.908 11.4399 11.8687 11.3438 11.81C11.2476 11.7513 11.1641 11.6744 11.0979 11.5837L10.2857 10.4671L9.46821 11.5837C9.33452 11.7669 9.13292 11.8899 8.90778 11.9257C8.68263 11.9614 8.45238 11.907 8.26768 11.7745C8.08297 11.6419 7.95895 11.442 7.92288 11.2187C7.88681 10.9954 7.94166 10.7671 8.07536 10.5839L8.89393 9.46831L7.56964 9.04331C7.46264 9.00843 7.36361 8.95298 7.27821 8.88015C7.19282 8.80732 7.12272 8.71852 7.07193 8.61882C6.96935 8.41747 6.95164 8.18396 7.02268 7.96965C7.05785 7.86354 7.11376 7.76534 7.18721 7.68065C7.26065 7.59597 7.3502 7.52645 7.45074 7.47609C7.65378 7.37437 7.88925 7.3568 8.10536 7.42725L9.42857 7.85225V6.471C9.42857 6.24556 9.51888 6.02936 9.67962 5.86996C9.84037 5.71055 10.0584 5.621 10.2857 5.621C10.513 5.621 10.7311 5.71055 10.8918 5.86996C11.0526 6.02936 11.1429 6.24556 11.1429 6.471V7.85225L12.4661 7.42725C12.5731 7.39236 12.686 7.37872 12.7983 7.3871C12.9106 7.39548 13.0202 7.42572 13.1207 7.47609C13.2212 7.52645 13.3108 7.59597 13.3842 7.68065C13.4577 7.76534 13.5136 7.86354 13.5487 7.96965C13.5839 8.07577 13.5977 8.18771 13.5892 8.29909C13.5808 8.41048 13.5503 8.51912 13.4995 8.61882C13.4487 8.71852 13.3786 8.80732 13.2932 8.88015C13.2078 8.95298 13.1088 9.00843 13.0018 9.04331L11.6775 9.46831L12.4907 10.5839ZM5.14286 4.771V13.271C5.14286 13.4964 5.05255 13.7126 4.89181 13.872C4.73106 14.0314 4.51304 14.121 4.28571 14.121C4.05839 14.121 3.84037 14.0314 3.67962 13.872C3.51888 13.7126 3.42857 13.4964 3.42857 13.271V4.771C3.42857 4.54556 3.51888 4.32936 3.67962 4.16996C3.84037 4.01055 4.05839 3.921 4.28571 3.921C4.51304 3.921 4.73106 4.01055 4.89181 4.16996C5.05255 4.32936 5.14286 4.54556 5.14286 4.771Z" fill="#57756B"/>
</svg>
