<svg width="17" height="21" viewBox="0 0 17 21" fill="none" xmlns="http://www.w3.org/2000/svg">
<path d="M13.5 3H12V1.5C12 1.10218 11.842 0.720644 11.5607 0.43934C11.2794 0.158035 10.8978 0 10.5 0H6C5.60218 0 5.22064 0.158035 4.93934 0.43934C4.65804 0.720644 4.5 1.10218 4.5 1.5V3H3C2.20435 3 1.44129 3.31607 0.87868 3.87868C0.31607 4.44129 0 5.20435 0 6V15C0.000628828 15.6651 0.221847 16.3112 0.629005 16.8371C1.03616 17.363 1.60626 17.739 2.25 17.9062V19.5C2.25 19.8978 2.40804 20.2794 2.68934 20.5607C2.97064 20.842 3.35218 21 3.75 21H12.75C13.1478 21 13.5294 20.842 13.8107 20.5607C14.092 20.2794 14.25 19.8978 14.25 19.5V17.9062C14.8937 17.739 15.4638 17.363 15.871 16.8371C16.2782 16.3112 16.4994 15.6651 16.5 15V6C16.5 5.20435 16.1839 4.44129 15.6213 3.87868C15.0587 3.31607 14.2956 3 13.5 3ZM10.875 7.875C11.0975 7.875 11.315 7.94098 11.5 8.0646C11.685 8.18821 11.8292 8.36391 11.9144 8.56948C11.9995 8.77505 12.0218 9.00125 11.9784 9.21948C11.935 9.43771 11.8278 9.63816 11.6705 9.7955C11.5132 9.95283 11.3127 10.06 11.0945 10.1034C10.8762 10.1468 10.65 10.1245 10.4445 10.0394C10.2389 9.95422 10.0632 9.81002 9.9396 9.62502C9.81598 9.44001 9.75 9.2225 9.75 9C9.75 8.70163 9.86853 8.41548 10.0795 8.2045C10.2905 7.99353 10.5766 7.875 10.875 7.875ZM11.2753 13.3847C10.3677 13.9505 9.31956 14.2504 8.25 14.2504C7.18044 14.2504 6.13232 13.9505 5.22469 13.3847C5.05636 13.2785 4.9371 13.1098 4.89314 12.9157C4.84919 12.7216 4.88414 12.518 4.99031 12.3497C5.09648 12.1814 5.26517 12.0621 5.45927 12.0181C5.65337 11.9742 5.85698 12.0091 6.02531 12.1153C6.69329 12.5299 7.46383 12.7496 8.25 12.7496C9.03617 12.7496 9.80671 12.5299 10.4747 12.1153C10.643 12.0091 10.8466 11.9742 11.0407 12.0181C11.2348 12.0621 11.4035 12.1814 11.5097 12.3497C11.6159 12.518 11.6508 12.7216 11.6069 12.9157C11.5629 13.1098 11.4436 13.2785 11.2753 13.3847ZM6 1.5H10.5V3H6V1.5ZM5.625 7.875C5.8475 7.875 6.06501 7.94098 6.25002 8.0646C6.43502 8.18821 6.57922 8.36391 6.66436 8.56948C6.74951 8.77505 6.77179 9.00125 6.72838 9.21948C6.68498 9.43771 6.57783 9.63816 6.4205 9.7955C6.26316 9.95283 6.06271 10.06 5.84448 10.1034C5.62625 10.1468 5.40005 10.1245 5.19448 10.0394C4.98891 9.95422 4.81321 9.81002 4.6896 9.62502C4.56598 9.44001 4.5 9.2225 4.5 9C4.5 8.70163 4.61853 8.41548 4.8295 8.2045C5.04048 7.99353 5.32663 7.875 5.625 7.875ZM12.75 19.5H3.75V18H12.75V19.5Z" fill="#111215"/>
</svg>
