<svg width="24" height="28" viewBox="0 0 24 28" fill="none" xmlns="http://www.w3.org/2000/svg">
<path d="M22 9.22559H18V6.22559C18 4.63429 17.3679 3.10816 16.2426 1.98295C15.1174 0.857727 13.5913 0.225586 12 0.225586C10.4087 0.225586 8.88258 0.857727 7.75736 1.98295C6.63214 3.10816 6 4.63429 6 6.22559V9.22559H2C1.46957 9.22559 0.960859 9.4363 0.585786 9.81137C0.210714 10.1864 0 10.6952 0 11.2256V25.2256C0 25.756 0.210714 26.2647 0.585786 26.6398C0.960859 27.0149 1.46957 27.2256 2 27.2256H22C22.5304 27.2256 23.0391 27.0149 23.4142 26.6398C23.7893 26.2647 24 25.756 24 25.2256V11.2256C24 10.6952 23.7893 10.1864 23.4142 9.81137C23.0391 9.4363 22.5304 9.22559 22 9.22559ZM8 6.22559C8 5.16472 8.42143 4.1473 9.17157 3.39716C9.92172 2.64701 10.9391 2.22559 12 2.22559C13.0609 2.22559 14.0783 2.64701 14.8284 3.39716C15.5786 4.1473 16 5.16472 16 6.22559V9.22559H8V6.22559Z" fill="#57756B"/>
</svg>
