<svg width="20" height="18" viewBox="0 0 20 18" fill="none" xmlns="http://www.w3.org/2000/svg">
<path d="M0.000589907 9.00059C0.00257505 7.21099 0.714371 5.49525 1.97981 4.22981C3.24525 2.96437 4.96099 2.25258 6.75059 2.25059H15.7506V0.750591C15.7505 0.602169 15.7944 0.457049 15.8768 0.333604C15.9592 0.210159 16.0764 0.113938 16.2135 0.0571237C16.3506 0.00030937 16.5015 -0.0145441 16.6471 0.0144437C16.7926 0.0434315 16.9263 0.114957 17.0312 0.219966L19.2812 2.46997C19.3509 2.53962 19.4063 2.62234 19.444 2.71339C19.4818 2.80443 19.5012 2.90203 19.5012 3.00059C19.5012 3.09915 19.4818 3.19675 19.444 3.2878C19.4063 3.37884 19.3509 3.46156 19.2812 3.53122L17.0312 5.78122C16.9263 5.88623 16.7926 5.95775 16.6471 5.98674C16.5015 6.01573 16.3506 6.00087 16.2135 5.94406C16.0764 5.88724 15.9592 5.79102 15.8768 5.66758C15.7944 5.54413 15.7505 5.39901 15.7506 5.25059V3.75059H6.75059C5.35866 3.75208 4.02417 4.30568 3.03992 5.28993C2.05568 6.27417 1.50208 7.60866 1.50059 9.00059C1.50059 9.1995 1.42157 9.39027 1.28092 9.53092C1.14027 9.67157 0.949502 9.75059 0.75059 9.75059C0.551678 9.75059 0.360912 9.67157 0.22026 9.53092C0.0796075 9.39027 0.000589907 9.1995 0.000589907 9.00059ZM18.7506 8.25059C18.5517 8.25059 18.3609 8.32961 18.2203 8.47026C18.0796 8.61091 18.0006 8.80168 18.0006 9.00059C17.9991 10.3925 17.4455 11.727 16.4613 12.7113C15.477 13.6955 14.1425 14.2491 12.7506 14.2506H3.75059V12.7506C3.75071 12.6022 3.70678 12.4571 3.62438 12.3336C3.54198 12.2102 3.4248 12.1139 3.28768 12.0571C3.15056 12.0003 2.99967 11.9855 2.85411 12.0144C2.70855 12.0434 2.57486 12.115 2.46996 12.22L0.219965 14.47C0.150233 14.5396 0.0949133 14.6223 0.05717 14.7134C0.0194268 14.8044 0 14.902 0 15.0006C0 15.0992 0.0194268 15.1967 0.05717 15.2878C0.0949133 15.3788 0.150233 15.4616 0.219965 15.5312L2.46996 17.7812C2.57486 17.8862 2.70855 17.9578 2.85411 17.9867C2.99967 18.0157 3.15056 18.0009 3.28768 17.9441C3.4248 17.8872 3.54198 17.791 3.62438 17.6676C3.70678 17.5441 3.75071 17.399 3.75059 17.2506V15.7506H12.7506C14.5402 15.7486 16.2559 15.0368 17.5214 13.7714C18.7868 12.5059 19.4986 10.7902 19.5006 9.00059C19.5006 8.80168 19.4216 8.61091 19.2809 8.47026C19.1403 8.32961 18.9495 8.25059 18.7506 8.25059Z" fill="black"/>
</svg>
