<svg width="24" height="25" viewBox="0 0 24 25" fill="none" xmlns="http://www.w3.org/2000/svg">
<path d="M12 0.429688C9.62663 0.429688 7.30655 1.13348 5.33316 2.45205C3.35977 3.77063 1.8217 5.64477 0.913451 7.83748C0.00519941 10.0302 -0.232441 12.443 0.230582 14.7708C0.693605 17.0985 1.83649 19.2367 3.51472 20.915C5.19295 22.5932 7.33115 23.7361 9.65892 24.1991C11.9867 24.6621 14.3995 24.4245 16.5922 23.5162C18.7849 22.608 20.6591 21.0699 21.9776 19.0965C23.2962 17.1231 24 14.8031 24 12.4297C23.9966 9.24812 22.7313 6.19782 20.4816 3.94812C18.2319 1.69841 15.1816 0.433047 12 0.429688ZM12 19.8143C11.7262 19.8143 11.4585 19.7331 11.2308 19.5809C11.0031 19.4288 10.8256 19.2126 10.7208 18.9596C10.616 18.7065 10.5886 18.4281 10.642 18.1596C10.6954 17.891 10.8273 17.6443 11.0209 17.4506C11.2146 17.257 11.4613 17.1251 11.7299 17.0717C11.9985 17.0182 12.2769 17.0457 12.5299 17.1505C12.7829 17.2553 12.9991 17.4327 13.1513 17.6604C13.3034 17.8881 13.3846 18.1558 13.3846 18.4297C13.3846 18.7969 13.2387 19.1491 12.9791 19.4088C12.7194 19.6684 12.3672 19.8143 12 19.8143ZM12.9231 14.1928V14.2758C12.9231 14.5207 12.8258 14.7554 12.6527 14.9286C12.4796 15.1017 12.2448 15.1989 12 15.1989C11.7552 15.1989 11.5204 15.1017 11.3473 14.9286C11.1742 14.7554 11.0769 14.5207 11.0769 14.2758V13.3528C11.0769 13.1079 11.1742 12.8732 11.3473 12.7C11.5204 12.5269 11.7552 12.4297 12 12.4297C13.5265 12.4297 14.7692 11.3912 14.7692 10.122C14.7692 8.85276 13.5265 7.8143 12 7.8143C10.4735 7.8143 9.23077 8.85276 9.23077 10.122V10.5835C9.23077 10.8283 9.13352 11.0631 8.96041 11.2362C8.7873 11.4094 8.55251 11.5066 8.3077 11.5066C8.06288 11.5066 7.82809 11.4094 7.65498 11.2362C7.48187 11.0631 7.38462 10.8283 7.38462 10.5835V10.122C7.38462 7.83161 9.45462 5.96815 12 5.96815C14.5454 5.96815 16.6154 7.83161 16.6154 10.122C16.6154 12.1274 15.0277 13.8062 12.9231 14.1928Z" fill="#57756B"/>
</svg>
