<svg width="44" height="55" viewBox="0 0 44 55" fill="none" xmlns="http://www.w3.org/2000/svg">
<path d="M36 7.85714H32V3.92857C32 2.88665 31.5786 1.8874 30.8284 1.15065C30.0783 0.413902 29.0609 0 28 0H16C14.9391 0 13.9217 0.413902 13.1716 1.15065C12.4214 1.8874 12 2.88665 12 3.92857V7.85714H8C5.87827 7.85714 3.84344 8.68495 2.34315 10.1584C0.842854 11.6319 0 13.6304 0 15.7143V39.2857C0.00167687 41.0276 0.591593 42.7198 1.67735 44.0972C2.7631 45.4746 4.28336 46.4594 6 46.8973V51.0714C6 52.1133 6.42143 53.1126 7.17157 53.8493C7.92172 54.5861 8.93913 55 10 55H34C35.0609 55 36.0783 54.5861 36.8284 53.8493C37.5786 53.1126 38 52.1133 38 51.0714V46.8973C39.7166 46.4594 41.2369 45.4746 42.3227 44.0972C43.4084 42.7198 43.9983 41.0276 44 39.2857V15.7143C44 13.6304 43.1571 11.6319 41.6569 10.1584C40.1566 8.68495 38.1217 7.85714 36 7.85714ZM29 20.625C29.5933 20.625 30.1734 20.7978 30.6667 21.1216C31.1601 21.4453 31.5446 21.9055 31.7716 22.4439C31.9987 22.9823 32.0581 23.5747 31.9424 24.1462C31.8266 24.7178 31.5409 25.2428 31.1213 25.6549C30.7018 26.0669 30.1672 26.3476 29.5853 26.4612C29.0033 26.5749 28.4001 26.5166 27.852 26.2936C27.3038 26.0706 26.8352 25.6929 26.5056 25.2084C26.1759 24.7238 26 24.1542 26 23.5714C26 22.79 26.3161 22.0406 26.8787 21.488C27.4413 20.9354 28.2044 20.625 29 20.625ZM30.0675 35.0551C27.6471 36.537 24.8521 37.3226 22 37.3226C19.1479 37.3226 16.3529 36.537 13.9325 35.0551C13.4836 34.7771 13.1656 34.3353 13.0484 33.8269C12.9312 33.3186 13.0244 32.7853 13.3075 32.3444C13.5906 31.9036 14.0405 31.5912 14.5581 31.4761C15.0757 31.361 15.6186 31.4525 16.0675 31.7306C17.8488 32.8164 19.9035 33.3917 22 33.3917C24.0965 33.3917 26.1512 32.8164 27.9325 31.7306C28.3814 31.4525 28.9243 31.361 29.4419 31.4761C29.9595 31.5912 30.4094 31.9036 30.6925 32.3444C30.9756 32.7853 31.0688 33.3186 30.9516 33.8269C30.8344 34.3353 30.5164 34.7771 30.0675 35.0551ZM16 3.92857H28V7.85714H16V3.92857ZM15 20.625C15.5933 20.625 16.1734 20.7978 16.6667 21.1216C17.1601 21.4453 17.5446 21.9055 17.7716 22.4439C17.9987 22.9823 18.0581 23.5747 17.9424 24.1462C17.8266 24.7178 17.5409 25.2428 17.1213 25.6549C16.7018 26.0669 16.1672 26.3476 15.5853 26.4612C15.0033 26.5749 14.4001 26.5166 13.8519 26.2936C13.3038 26.0706 12.8352 25.6929 12.5056 25.2084C12.1759 24.7238 12 24.1542 12 23.5714C12 22.79 12.3161 22.0406 12.8787 21.488C13.4413 20.9354 14.2044 20.625 15 20.625ZM34 51.0714H10V47.1429H34V51.0714Z" fill="#737780"/>
</svg>
