<svg width="24" height="25" viewBox="0 0 24 25" fill="none" xmlns="http://www.w3.org/2000/svg">
<path d="M22 0.837891H2C1.46957 0.837891 0.960859 1.0486 0.585786 1.42368C0.210714 1.79875 0 2.30746 0 2.83789V22.8379C0 23.3683 0.210714 23.877 0.585786 24.2521C0.960859 24.6272 1.46957 24.8379 2 24.8379H22C22.5304 24.8379 23.0391 24.6272 23.4142 24.2521C23.7893 23.877 24 23.3683 24 22.8379V2.83789C24 2.30746 23.7893 1.79875 23.4142 1.42368C23.0391 1.0486 22.5304 0.837891 22 0.837891ZM20 19.8379H4C3.73478 19.8379 3.48043 19.7325 3.29289 19.545C3.10536 19.3575 3 19.1031 3 18.8379C3 18.5727 3.10536 18.3183 3.29289 18.1308C3.48043 17.9432 3.73478 17.8379 4 17.8379H20C20.2652 17.8379 20.5196 17.9432 20.7071 18.1308C20.8946 18.3183 21 18.5727 21 18.8379C21 19.1031 20.8946 19.3575 20.7071 19.545C20.5196 19.7325 20.2652 19.8379 20 19.8379ZM20 13.8379H4C3.73478 13.8379 3.48043 13.7325 3.29289 13.545C3.10536 13.3575 3 13.1031 3 12.8379C3 12.5727 3.10536 12.3183 3.29289 12.1308C3.48043 11.9432 3.73478 11.8379 4 11.8379H20C20.2652 11.8379 20.5196 11.9432 20.7071 12.1308C20.8946 12.3183 21 12.5727 21 12.8379C21 13.1031 20.8946 13.3575 20.7071 13.545C20.5196 13.7325 20.2652 13.8379 20 13.8379ZM20 7.83789H4C3.73478 7.83789 3.48043 7.73253 3.29289 7.545C3.10536 7.35746 3 7.10311 3 6.83789C3 6.57267 3.10536 6.31832 3.29289 6.13078C3.48043 5.94325 3.73478 5.83789 4 5.83789H20C20.2652 5.83789 20.5196 5.94325 20.7071 6.13078C20.8946 6.31832 21 6.57267 21 6.83789C21 7.10311 20.8946 7.35746 20.7071 7.545C20.5196 7.73253 20.2652 7.83789 20 7.83789Z" fill="#57756B"/>
</svg>
