<svg width="55" height="55" viewBox="0 0 55 55" fill="none" xmlns="http://www.w3.org/2000/svg">
<path d="M52.7083 0H16.0417C15.4339 0 14.851 0.241443 14.4212 0.671214C13.9914 1.10098 13.75 1.68388 13.75 2.29167V13.75H2.29167C1.68388 13.75 1.10098 13.9914 0.671214 14.4212C0.241443 14.851 0 15.4339 0 16.0417V52.7083C0 53.3161 0.241443 53.899 0.671214 54.3288C1.10098 54.7586 1.68388 55 2.29167 55H38.9583C39.5661 55 40.149 54.7586 40.5788 54.3288C41.0086 53.899 41.25 53.3161 41.25 52.7083V41.25H52.7083C53.3161 41.25 53.899 41.0086 54.3288 40.5788C54.7586 40.149 55 39.5661 55 38.9583V2.29167C55 1.68388 54.7586 1.10098 54.3288 0.671214C53.899 0.241443 53.3161 0 52.7083 0ZM50.4167 36.6667H41.25V16.0417C41.25 15.4339 41.0086 14.851 40.5788 14.4212C40.149 13.9914 39.5661 13.75 38.9583 13.75H18.3333V4.58333H50.4167V36.6667Z" fill="#A1A4AA"/>
</svg>
