<svg width="14" height="17" viewBox="0 0 14 17" fill="none" xmlns="http://www.w3.org/2000/svg">
<path d="M12.8333 5.83333H10.5V4.05556C10.5 3.11256 10.1313 2.20819 9.47487 1.5414C8.8185 0.874602 7.92826 0.5 7 0.5C6.07174 0.5 5.1815 0.874602 4.52513 1.5414C3.86875 2.20819 3.5 3.11256 3.5 4.05556V5.83333H1.16667C0.857247 5.83333 0.560501 5.9582 0.341709 6.18047C0.122916 6.40273 0 6.70419 0 7.01852V15.3148C0 15.6291 0.122916 15.9306 0.341709 16.1529C0.560501 16.3751 0.857247 16.5 1.16667 16.5H12.8333C13.1428 16.5 13.4395 16.3751 13.6583 16.1529C13.8771 15.9306 14 15.6291 14 15.3148V7.01852C14 6.70419 13.8771 6.40273 13.6583 6.18047C13.4395 5.9582 13.1428 5.83333 12.8333 5.83333ZM4.66667 4.05556C4.66667 3.42689 4.9125 2.82398 5.35008 2.37945C5.78767 1.93492 6.38116 1.68519 7 1.68519C7.61884 1.68519 8.21233 1.93492 8.64991 2.37945C9.0875 2.82398 9.33333 3.42689 9.33333 4.05556V5.83333H4.66667V4.05556Z" fill="#737780"/>
</svg>
