<svg width="24" height="19" viewBox="0 0 24 19" fill="none" xmlns="http://www.w3.org/2000/svg">
<path d="M23.0288 11.2817C22.7672 11.0845 22.4674 10.9414 22.1475 10.8612C21.8276 10.781 21.4944 10.7653 21.1681 10.8151C23.0458 8.96034 23.9956 7.11633 23.9956 5.30851C23.9956 2.71907 21.867 0.612885 19.2505 0.612885C18.5562 0.608619 17.8694 0.753093 17.2383 1.03616C16.6071 1.31924 16.047 1.73404 15.5971 2.25146C15.1473 1.73404 14.5871 1.31924 13.956 1.03616C13.3249 0.753093 12.6381 0.608619 11.9438 0.612885C9.32729 0.612885 7.19868 2.71907 7.19868 5.30851C7.19868 6.38459 7.52262 7.43035 8.2045 8.53676C7.64604 8.67519 7.13638 8.95918 6.72977 9.35849L4.46818 11.5694H1.59971C1.17544 11.5694 0.768546 11.7343 0.468543 12.0278C0.16854 12.3213 0 12.7194 0 13.1346L0 17.0476C0 17.4627 0.16854 17.8608 0.468543 18.1544C0.768546 18.4479 1.17544 18.6128 1.59971 18.6128H11.9978C12.0632 18.6128 12.1283 18.6049 12.1918 18.5893L18.5906 17.0241C18.6314 17.0146 18.6712 17.0015 18.7096 16.985L22.5959 15.3669L22.6399 15.3474C23.0134 15.1648 23.3332 14.8921 23.5692 14.5551C23.8053 14.2182 23.9498 13.8279 23.9891 13.4212C24.0284 13.0145 23.9612 12.6047 23.7939 12.2304C23.6266 11.8561 23.3647 11.5296 23.0328 11.2817H23.0288ZM21.939 13.9377L18.1397 15.5205L11.8978 17.0476H5.59897V12.6758L7.86156 10.4629C8.00957 10.317 8.18575 10.2012 8.37988 10.1225C8.57401 10.0437 8.7822 10.0035 8.99235 10.0041H13.9974C14.3156 10.0041 14.6208 10.1278 14.8458 10.348C15.0708 10.5681 15.1972 10.8667 15.1972 11.178C15.1972 11.4894 15.0708 11.788 14.8458 12.0081C14.6208 12.2283 14.3156 12.352 13.9974 12.352H11.1979C10.9858 12.352 10.7824 12.4344 10.6324 12.5812C10.4824 12.7279 10.3981 12.927 10.3981 13.1346C10.3981 13.3421 10.4824 13.5412 10.6324 13.6879C10.7824 13.8347 10.9858 13.9172 11.1979 13.9172H14.3974C14.4576 13.917 14.5176 13.9104 14.5763 13.8976L21.2751 12.3901L21.3061 12.3823C21.5106 12.3267 21.7288 12.3471 21.9189 12.4396C22.1089 12.532 22.2573 12.69 22.3355 12.883C22.4137 13.0761 22.4161 13.2906 22.3424 13.4853C22.2686 13.68 22.1239 13.8411 21.936 13.9377H21.939Z" fill="#57756B"/>
</svg>
