<svg width="24" height="24" viewBox="0 0 24 24" fill="none" xmlns="http://www.w3.org/2000/svg">
<path d="M9.99967 23C9.99967 23.2652 9.89432 23.5196 9.70679 23.7071C9.51926 23.8946 9.26491 24 8.99971 24H0.999967C0.734759 24 0.480414 23.8946 0.292884 23.7071C0.105354 23.5196 0 23.2652 0 23V1C0 0.734784 0.105354 0.48043 0.292884 0.292893C0.480414 0.105357 0.734759 0 0.999967 0H8.99971C9.26491 0 9.51926 0.105357 9.70679 0.292893C9.89432 0.48043 9.99967 0.734784 9.99967 1C9.99967 1.26522 9.89432 1.51957 9.70679 1.70711C9.51926 1.89464 9.26491 2 8.99971 2H1.99993V22H8.99971C9.26491 22 9.51926 22.1054 9.70679 22.2929C9.89432 22.4804 9.99967 22.7348 9.99967 23ZM23.7067 11.2925L18.7069 6.2925C18.567 6.15249 18.3888 6.05712 18.1947 6.01847C18.0006 5.97982 17.7995 5.99963 17.6166 6.07538C17.4338 6.15113 17.2776 6.27942 17.1677 6.44402C17.0578 6.60861 16.9993 6.8021 16.9994 7V11H8.99971C8.7345 11 8.48015 11.1054 8.29262 11.2929C8.10509 11.4804 7.99974 11.7348 7.99974 12C7.99974 12.2652 8.10509 12.5196 8.29262 12.7071C8.48015 12.8946 8.7345 13 8.99971 13H16.9994V17C16.9993 17.1979 17.0578 17.3914 17.1677 17.556C17.2776 17.7206 17.4338 17.8489 17.6166 17.9246C17.7995 18.0004 18.0006 18.0202 18.1947 17.9815C18.3888 17.9429 18.567 17.8475 18.7069 17.7075L23.7067 12.7075C23.7997 12.6146 23.8735 12.5043 23.9238 12.3829C23.9741 12.2615 24 12.1314 24 12C24 11.8686 23.9741 11.7385 23.9238 11.6171C23.8735 11.4957 23.7997 11.3854 23.7067 11.2925Z" fill="#F5F8F6"/>
</svg>
