<svg width="198" height="169" viewBox="0 0 198 169" fill="none" xmlns="http://www.w3.org/2000/svg">
<path d="M353.052 274.882C334.058 302.846 291.965 330.206 266.483 301.474C247.221 279.757 286.902 268.711 269.244 233.626C251.585 198.541 211.515 176.451 176.404 188.057C150.549 196.603 161.294 230.233 137.391 242.304C82.4473 270.05 -24.9235 178.023 5.61284 126.332C25.854 92.0686 74.0139 119.605 109.383 99.6405C152.358 75.3831 141.299 17.9887 190.994 6.5069C228.576 -2.17619 268.004 -7.23794 293.443 25.317C326.482 67.5966 194.197 78.9626 222.51 123.947C235.664 144.847 252.806 149.732 274.96 161.668C302.042 176.259 328.162 164.461 348.647 187.228C373.476 214.822 371.404 247.866 353.052 274.882Z" fill="url(#paint0_linear_4054_562)"/>
<defs>
<linearGradient id="paint0_linear_4054_562" x1="302.866" y1="28.7239" x2="124.786" y2="276.338" gradientUnits="userSpaceOnUse">
<stop stop-color="#111215"/>
<stop offset="1" stop-color="#444955"/>
</linearGradient>
</defs>
</svg>
