<svg width="198" height="169" viewBox="0 0 198 169" fill="none" xmlns="http://www.w3.org/2000/svg">
<path d="M353.052 274.882C334.058 302.845 291.965 330.205 266.483 301.474C247.221 279.757 286.902 268.711 269.244 233.626C251.585 198.541 211.515 176.451 176.404 188.057C150.549 196.603 161.294 230.233 137.391 242.303C82.4473 270.049 -24.9236 178.023 5.61277 126.332C25.854 92.0681 74.0138 119.605 109.383 99.64C152.357 75.3826 141.299 17.9882 190.994 6.50641C228.576 -2.17668 268.004 -7.23843 293.443 25.3165C326.482 67.5961 194.197 78.9621 222.51 123.947C235.664 144.846 252.806 149.732 274.96 161.668C302.042 176.258 328.161 164.46 348.647 187.227C373.476 214.822 371.404 247.865 353.052 274.882Z" fill="url(#paint0_linear_2043_1214)"/>
<defs>
<linearGradient id="paint0_linear_2043_1214" x1="302.866" y1="28.7234" x2="124.786" y2="276.338" gradientUnits="userSpaceOnUse">
<stop stop-color="#A4896C"/>
<stop offset="1" stop-color="#FEDBB1"/>
</linearGradient>
</defs>
</svg>
