<svg width="212" height="129" viewBox="0 0 212 129" fill="none" xmlns="http://www.w3.org/2000/svg">
<path d="M330.624 291.062C307.618 315.83 261.87 336.507 241.028 304.251C225.274 279.87 266.169 274.954 254.022 237.601C241.874 200.249 205.607 172.351 169.144 178.512C142.294 183.048 147.828 217.916 122.373 226.232C63.8649 245.346 -28.3478 138.135 9.65719 91.6588C34.849 60.8516 78.2887 95.3572 116.271 80.9731C162.421 63.4964 160.172 5.08957 211.033 1.25813C249.496 -1.63937 289.236 -0.677959 309.457 35.3509C335.719 82.1421 203.237 73.3644 224.419 122.115C234.26 144.764 250.465 152.186 270.559 167.337C295.121 185.856 322.725 178.145 339.53 203.749C359.899 234.783 352.851 267.133 330.624 291.062Z" fill="url(#paint0_linear_6030_1752)"/>
<defs>
<linearGradient id="paint0_linear_6030_1752" x1="318.255" y1="40.144" x2="104.765" y2="257.967" gradientUnits="userSpaceOnUse">
<stop stop-color="#57756B"/>
<stop offset="1" stop-color="#FEDBB1"/>
</linearGradient>
</defs>
</svg>
