<svg width="125" height="227" viewBox="0 0 125 227" fill="none" xmlns="http://www.w3.org/2000/svg">
<path d="M-243.968 170.541C-244.874 204.334 -226.675 251.123 -189.212 242.675C-160.895 236.29 -186.661 204.154 -151.84 185.981C-117.019 167.807 -71.5901 173.269 -49.8614 203.192C-33.8608 225.226 -62.2195 246.254 -49.8614 270.01C-21.4556 324.615 119.444 312.594 124.834 252.799C128.407 213.164 73.2306 207.401 56.1728 170.541C35.4472 125.757 77.936 85.6182 44.2946 47.2812C18.8534 18.2889 -10.2008 -8.84112 -49.8614 2.73538C-101.369 17.77 -0.610291 104.234 -49.8614 124.224C-72.7427 133.511 -89.5119 127.469 -114.467 124.224C-144.972 120.257 -159.289 95.4283 -189.212 101.951C-225.481 109.857 -243.092 137.893 -243.968 170.541Z" fill="url(#paint0_linear_5_217)"/>
<defs>
<linearGradient id="paint0_linear_5_217" x1="-59.5" y1="0" x2="-59.5" y2="305" gradientUnits="userSpaceOnUse">
<stop stop-color="#57756B"/>
<stop offset="1" stop-color="#FEDBB1"/>
</linearGradient>
</defs>
</svg>
