<svg width="136" height="268" viewBox="0 0 136 268" fill="none" xmlns="http://www.w3.org/2000/svg">
<path d="M370.912 173.968C371.319 207.77 352.432 254.285 315.098 245.286C286.878 238.484 313.115 206.731 278.566 188.046C244.017 169.361 198.513 174.152 176.345 203.75C160.021 225.546 188.066 246.99 175.359 270.561C146.15 324.741 5.4429 310.642 0.936214 250.774C-2.05111 211.091 53.2042 206.142 70.8042 169.539C92.1885 125.065 50.2967 84.3035 84.5002 46.4671C110.366 17.8535 139.818 -8.84479 179.303 3.31578C230.584 19.1089 128.56 104.077 177.51 124.791C200.252 134.415 217.109 128.621 242.109 125.745C272.669 122.228 287.351 97.6136 317.175 104.577C353.323 113.017 370.519 141.311 370.912 173.968Z" fill="url(#paint0_linear_2043_1210)"/>
<defs>
<linearGradient id="paint0_linear_2043_1210" x1="188.981" y1="0.722944" x2="184.48" y2="305.69" gradientUnits="userSpaceOnUse">
<stop stop-color="#57756B"/>
<stop offset="1" stop-color="#FEDBB1"/>
</linearGradient>
</defs>
</svg>
