<?xml version="1.0" encoding="UTF-8"?>
<svg id="Capa_1" data-name="Capa 1" xmlns="http://www.w3.org/2000/svg" viewBox="0 0 56.69 56.69">
  <defs>
    <style>
      .cls-1 {
        fill: #fb943c;
      }
    </style>
  </defs>
  <path class="cls-1" d="M31.43,24.54c.08.04.17.07.25.11.05.02.1.04.15.06.14.06.26.13.39.21.03.02.07.04.1.06.85.53,1.48,1.3,1.87,2.19h8.37c-.98-5.5-5.5-9.76-11.13-10.34v7.71Z"/>
  <path class="cls-1" d="M34.21,31.31c-.08.18-.17.36-.27.53-.02.04-.05.08-.07.12-.51.84-1.31,1.54-2.44,1.98v8.01c5.73-.59,10.32-5.01,11.18-10.65h-8.4Z"/>
  <path class="cls-1" d="M29.18,34.32l-6.91,3.05-.04-3.36s0,0,.01,0c.48-.29,1.02-.53,1.58-.74,0-.02-.01-.05-.02-.07.79-.32,1.61-.55,2.29-.65.16-.02.4-.27.43-.38.28-1.18-3.71.45-4.27.78l-.02-2.96,4.82-.02c.14,0,.45-.34.39-.46-.06-.12-.34-.38-.51-.38h-3.96s0-.01,0-.01h-.74s0-3.34,0-3.34l3.18.53c.12.02.5-.31.47-.43-.19-.65-1.67-.5-2.94-.8v-.03c-.25-.06-.5-.13-.72-.22l.02-3.72c.65.31,1.27.61,1.89.91.24.12.48.23.73.34,1.4.66,2.79,1.27,4.3,1.8v-7.41H12.86v5.63l4.55.03v6.64c0,5.27,2.89,8.51,2.89,8.51,2.83,3.56,6.39,4.38,8.87,4.45v-7.7Z"/>
</svg>