<?xml version="1.0" encoding="UTF-8"?>
<svg id="Capa_1" data-name="Capa 1" xmlns="http://www.w3.org/2000/svg" viewBox="0 0 1024 1024">
  <defs>
    <style>
      .cls-1 {
        fill: #606060;
      }

      .cls-2 {
        fill: #fb943c;
      }

      .cls-3 {
        fill: #fff;
      }
    </style>
  </defs>
  <g id="Background">
    <rect class="cls-2" y="0" width="1024" height="1024"/>
  </g>
  <g id="App_Icon_Shape" data-name="App Icon Shape">
    <path class="cls-1" d="M0,0V1024h1024V0H0ZM1024,651c0,14.24,0,28.48-.08,42.73-.07,12-.21,23.99-.53,35.98-.71,26.13-2.25,52.49-6.89,78.34-4.71,26.22-12.4,50.62-24.53,74.44-11.92,23.41-27.49,44.84-46.07,63.41s-40,34.15-63.41,46.07c-23.82,12.12-48.22,19.82-74.44,24.53-25.84,4.65-52.2,6.18-78.34,6.89-11.99.33-23.99.46-35.98.53-14.24.09-28.48.08-42.73.08h-278c-14.24,0-28.48,0-42.73-.08-12-.07-23.99-.21-35.98-.53-26.13-.71-52.49-2.25-78.34-6.89-26.22-4.71-50.62-12.4-74.44-24.53-23.41-11.92-44.84-27.49-63.41-46.07s-34.15-40-46.07-63.41c-12.12-23.82-19.82-48.22-24.53-74.44-4.65-25.84-6.18-52.2-6.89-78.34-.33-11.99-.46-23.99-.53-35.98-.08-14.25-.08-28.49-.08-42.73v-278c0-14.24,0-28.48.08-42.73.07-12,.21-23.99.53-35.98.71-26.13,2.25-52.49,6.89-78.34,4.71-26.22,12.4-50.62,24.53-74.44,11.92-23.41,27.49-44.84,46.07-63.41s40-34.15,63.41-46.07c23.82-12.12,48.22-19.82,74.44-24.53,25.84-4.65,52.2-6.18,78.34-6.89,11.99-.33,23.99-.46,35.98-.53C344.52,0,358.76,0,373,0h278C665.24,0,679.48,0,693.73.08c12,.07,23.99.21,35.98.53,26.13.71,52.49,2.25,78.34,6.89,26.22,4.71,50.62,12.4,74.44,24.53,23.41,11.92,44.84,27.49,63.41,46.07s34.15,40,46.07,63.41c12.12,23.82,19.82,48.22,24.53,74.44,4.65,25.84,6.18,52.2,6.89,78.34.33,11.99.46,23.99.53,35.98.09,14.24.08,28.48.08,42.73v278Z"/>
  </g>
  <g>
    <path class="cls-3" d="M581.5,384.64c2.11,1.05,4.47,1.84,6.58,2.89,1.32.53,2.63,1.05,3.95,1.58,3.68,1.58,6.84,3.42,10.26,5.53.79.53,1.84,1.05,2.63,1.58,22.37,13.95,38.95,34.21,49.21,57.63h220.25c-25.79-144.73-144.73-256.83-292.88-272.09v202.89h0Z"/>
    <path class="cls-3" d="M654.66,562.79c-2.11,4.74-4.47,9.47-7.1,13.95-.53,1.05-1.32,2.11-1.84,3.16-13.42,22.1-34.47,40.52-64.21,52.1v210.78c150.78-15.53,271.57-131.84,294.2-280.25h-221.04v.26h-.01Z"/>
    <path class="cls-3" d="M522.3,641.99l-181.83,80.26-1.05-88.42h.26c12.63-7.63,26.84-13.95,41.58-19.47,0-.53-.26-1.32-.53-1.84,20.79-8.42,42.37-14.47,60.26-17.1,4.21-.53,10.53-7.1,11.32-10,7.37-31.05-97.63,11.84-112.36,20.53l-.53-77.89,126.84-.53c3.68,0,11.84-8.95,10.26-12.1-1.58-3.16-8.95-10-13.42-10h-104.21v-.26h-19.47v-87.89l83.68,13.95c3.16.53,13.16-8.16,12.37-11.32-5-17.1-43.95-13.16-77.37-21.05v-.79c-6.58-1.58-13.16-3.42-18.95-5.79l.53-97.89c17.1,8.16,33.42,16.05,49.73,23.95,6.32,3.16,12.63,6.05,19.21,8.95,36.84,17.37,73.42,33.42,113.15,47.37v-194.99H92.84v148.15l119.73.79v174.73c0,138.68,76.05,223.94,76.05,223.94,74.47,93.68,168.15,115.26,233.41,117.1v-202.62l.26.26v-.03Z"/>
  </g>
</svg>