<svg width="360" height="314" viewBox="0 0 360 314" fill="none" xmlns="http://www.w3.org/2000/svg">
<g clip-path="url(#clip0_2132_656)">
<path d="M360.14 0H-181.14C-190.451 0 -198 7.55663 -198 16.8782V297.115C-198 306.436 -190.451 313.993 -181.14 313.993H360.14C369.451 313.993 377 306.436 377 297.115V16.8782C377 7.55663 369.451 0 360.14 0Z" fill="#AFD6E6"/>
<g opacity="0.63">
<path d="M358.488 0H356.594V214.839H358.488V0Z" fill="#7FB5C9"/>
<path d="M337.394 0H335.501V214.839H337.394V0Z" fill="#7FB5C9"/>
<path d="M315.089 0H313.195V214.839H315.089V0Z" fill="#7FB5C9"/>
<path d="M293.995 0H292.102V214.839H293.995V0Z" fill="#7FB5C9"/>
<path d="M272.101 0H270.208V214.839H272.101V0Z" fill="#7FB5C9"/>
<path d="M251 0H249.107V214.839H251V0Z" fill="#7FB5C9"/>
<path d="M228.702 0H226.809V214.839H228.702V0Z" fill="#7FB5C9"/>
<path d="M207.608 0H205.715V214.839H207.608V0Z" fill="#7FB5C9"/>
<path d="M11.2527 0H9.35962V214.839H11.2527V0Z" fill="#7FB5C9"/>
<path d="M184.87 0H182.977V214.839H184.87V0Z" fill="#7FB5C9"/>
<path d="M163.777 0H161.884V214.839H163.777V0Z" fill="#7FB5C9"/>
<path d="M141.471 0H139.578V214.839H141.471V0Z" fill="#7FB5C9"/>
<path d="M120.378 0H118.485V214.839H120.378V0Z" fill="#7FB5C9"/>
<path d="M98.4833 0H96.5902V214.839H98.4833V0Z" fill="#7FB5C9"/>
<path d="M77.39 0H75.4969V214.839H77.39V0Z" fill="#7FB5C9"/>
<path d="M55.0843 0H53.1912V214.839H55.0843V0Z" fill="#7FB5C9"/>
<path d="M33.9909 0H32.0978V214.839H33.9909V0Z" fill="#7FB5C9"/>
</g>
<path opacity="0.22" d="M102.603 30.747H-157.083C-157.928 30.747 -158.614 31.4334 -158.614 32.2801V33.5719C-158.614 34.4186 -157.928 35.105 -157.083 35.105H102.603C103.448 35.105 104.134 34.4186 104.134 33.5719V32.2801C104.134 31.4334 103.448 30.747 102.603 30.747Z" fill="#6598AE"/>
<path d="M377 218.04V297.115C377 306.441 369.449 313.993 360.14 313.993H-181.14C-190.456 313.993 -198 306.434 -198 297.115V218.04H377Z" fill="#F9D3DC"/>
<path d="M376.972 214.917H-197.695V221.596H376.972V214.917Z" fill="#FDF5F3"/>
<path opacity="0.4" d="M123.419 231.461C123.419 232.696 120.108 233.697 116.031 233.697C111.955 233.697 108.643 232.696 108.643 231.461C108.643 230.226 111.955 229.226 116.031 229.226C120.108 229.226 123.419 230.226 123.419 231.461Z" fill="#E5B1C0"/>
<path d="M143.428 235.77C143.428 235.77 147.214 239.922 151 240.823C154.786 241.725 158.034 241.185 158.034 241.185C158.034 241.185 167.946 246.509 189.309 249.128C196.179 249.972 344.633 250.661 345.243 248.496C345.853 246.331 339.025 241.732 339.025 241.732L143.435 235.777L143.428 235.77Z" fill="#E5B1C0"/>
<path d="M274.547 227.927H274.497L155.772 227.48C152.262 227.466 148.972 226.081 146.512 223.576C144.052 221.071 142.712 217.763 142.747 214.25L143.683 126.778C143.761 119.638 149.625 113.832 156.757 113.832H274.547C281.757 113.832 287.621 119.702 287.621 126.92V214.839C287.621 218.345 286.253 221.638 283.771 224.108C281.304 226.571 278.028 227.927 274.547 227.927ZM156.75 115.458C150.504 115.458 145.364 120.547 145.3 126.8L144.371 214.271C144.335 217.351 145.505 220.247 147.668 222.44C149.823 224.634 152.709 225.847 155.779 225.854L274.504 226.301H274.547C277.596 226.301 280.467 225.116 282.63 222.959C284.799 220.794 285.997 217.905 285.997 214.839V126.92C285.997 120.596 280.857 115.458 274.547 115.458H156.757H156.75Z" fill="#8C6767"/>
<path d="M286.962 145.445H144.314V151.102H286.962V145.445Z" fill="#8C6767"/>
<path d="M192.364 114.868H191.507V147.035H192.364V114.868Z" fill="#8C6767"/>
<path d="M239.415 114.868H238.557V147.035H239.415V114.868Z" fill="#8C6767"/>
<path d="M168.733 114.322H167.804V148.93H168.733V114.322Z" fill="#8C6767"/>
<path d="M179.836 145.658C177.482 145.658 175.164 144.962 173.214 143.578C168.96 140.562 167.265 134.848 168.577 127.9C169.598 122.498 172.165 118.609 175.625 117.225C177.9 116.316 180.361 116.629 182.389 118.084C185.53 120.348 186.309 124.237 185.452 126.913C184.672 129.362 182.701 130.774 180.042 130.788C180.035 130.788 180.02 130.788 180.013 130.788C177.142 130.788 176.404 128.78 176.376 128.695C176.298 128.467 176.419 128.219 176.646 128.141C176.872 128.063 177.121 128.184 177.199 128.404C177.227 128.475 177.787 129.915 180.013 129.915H180.042C182.296 129.901 183.963 128.709 184.622 126.643C185.381 124.266 184.679 120.802 181.878 118.786C180.077 117.487 177.971 117.218 175.951 118.027C172.774 119.297 170.399 122.953 169.442 128.056C168.201 134.65 169.761 140.044 173.724 142.854C177.128 145.268 181.758 145.417 185.515 143.231C189.897 140.69 192.074 135.65 191.478 129.404C191.457 129.163 191.634 128.95 191.868 128.929C192.102 128.908 192.322 129.085 192.343 129.319C192.974 135.92 190.642 141.265 185.955 143.99C184.048 145.097 181.928 145.644 179.843 145.644L179.836 145.658Z" fill="#8C6767"/>
<path d="M156.956 145.658C154.864 145.658 152.752 145.111 150.844 144.004C146.151 141.286 143.825 135.934 144.456 129.333C144.477 129.092 144.697 128.915 144.931 128.943C145.172 128.964 145.349 129.177 145.321 129.419C144.725 135.664 146.895 140.704 151.284 143.245C155.049 145.424 159.672 145.275 163.075 142.869C167.038 140.058 168.605 134.664 167.357 128.07C166.393 122.967 164.025 119.319 160.849 118.041C158.828 117.232 156.722 117.502 154.921 118.8C152.121 120.816 151.419 124.28 152.177 126.658C152.837 128.723 154.503 129.915 156.758 129.93H156.786C159.048 129.93 159.594 128.432 159.601 128.418C159.679 128.191 159.927 128.07 160.154 128.148C160.381 128.226 160.501 128.475 160.423 128.702C160.395 128.787 159.657 130.795 156.786 130.795C156.779 130.795 156.765 130.795 156.758 130.795C154.106 130.781 152.135 129.369 151.348 126.92C150.497 124.244 151.27 120.348 154.411 118.091C156.431 116.636 158.899 116.323 161.175 117.232C164.635 118.616 167.201 122.505 168.222 127.907C169.534 134.848 167.839 140.562 163.585 143.585C161.636 144.969 159.317 145.665 156.963 145.665L156.956 145.658Z" fill="#8C6767"/>
<path d="M170.888 130.803H166.138C165.854 130.803 165.627 130.575 165.627 130.292C165.627 130.008 165.854 129.781 166.138 129.781H170.888C171.172 129.781 171.399 130.008 171.399 130.292C171.399 130.575 171.172 130.803 170.888 130.803Z" fill="#8C6767"/>
<path d="M215.89 114.322H214.961V148.93H215.89V114.322Z" fill="#8C6767"/>
<path d="M226.986 145.658C224.632 145.658 222.313 144.962 220.364 143.578C216.109 140.562 214.415 134.848 215.727 127.9C216.74 122.498 219.314 118.609 222.774 117.225C225.05 116.316 227.51 116.629 229.538 118.084C232.679 120.348 233.459 124.237 232.601 126.913C231.821 129.362 229.85 130.774 227.191 130.788C227.184 130.788 227.17 130.788 227.163 130.788C224.292 130.788 223.554 128.78 223.526 128.695C223.448 128.467 223.568 128.219 223.795 128.141C224.022 128.063 224.27 128.184 224.348 128.404C224.377 128.475 224.937 129.915 227.163 129.915H227.191C229.446 129.901 231.112 128.709 231.772 126.643C232.53 124.266 231.828 120.802 229.028 118.786C227.227 117.487 225.121 117.218 223.1 118.027C219.924 119.297 217.549 122.953 216.592 128.056C215.351 134.65 216.911 140.044 220.874 142.854C224.277 145.268 228.9 145.417 232.665 143.231C237.047 140.69 239.223 135.65 238.628 129.404C238.607 129.163 238.784 128.95 239.018 128.929C239.252 128.908 239.472 129.085 239.493 129.319C240.124 135.92 237.791 141.265 233.105 143.99C231.197 145.097 229.077 145.644 226.993 145.644L226.986 145.658Z" fill="#8C6767"/>
<path d="M204.666 145.615C202.808 145.615 200.908 145.161 199.114 144.238C194.102 141.648 191.315 136.232 191.464 129.369C191.464 129.128 191.663 128.943 191.896 128.943C192.145 128.943 192.336 129.149 192.336 129.39C192.194 135.906 194.811 141.037 199.518 143.465C203.234 145.381 207.474 145.133 210.579 142.812C212.777 141.172 216.209 137.077 214.507 128.07C213.543 122.967 211.175 119.319 207.998 118.041C205.978 117.232 203.872 117.502 202.071 118.8C199.27 120.816 198.568 124.28 199.327 126.658C199.986 128.723 201.66 129.915 203.907 129.93H203.936C206.197 129.93 206.743 128.432 206.75 128.418C206.828 128.191 207.077 128.07 207.303 128.148C207.53 128.226 207.651 128.475 207.573 128.702C207.545 128.787 206.807 130.795 203.936 130.795C203.929 130.795 203.914 130.795 203.907 130.795C201.256 130.781 199.284 129.369 198.497 126.92C197.647 124.244 198.419 120.348 201.56 118.091C203.581 116.636 206.049 116.323 208.324 117.232C211.784 118.616 214.351 122.505 215.372 127.907C217.159 137.382 213.465 141.747 211.104 143.514C209.232 144.913 206.984 145.622 204.666 145.622V145.615Z" fill="#8C6767"/>
<path d="M218.045 130.803H213.295C213.011 130.803 212.784 130.575 212.784 130.292C212.784 130.008 213.011 129.781 213.295 129.781H218.045C218.329 129.781 218.556 130.008 218.556 130.292C218.556 130.575 218.329 130.803 218.045 130.803Z" fill="#8C6767"/>
<path d="M263.018 114.322H262.089V148.93H263.018V114.322Z" fill="#8C6767"/>
<path d="M274.114 145.658C271.76 145.658 269.442 144.962 267.492 143.578C263.238 140.562 261.543 134.848 262.855 127.9C263.876 122.498 266.443 118.609 269.903 117.225C272.179 116.316 274.639 116.629 276.667 118.084C279.808 120.348 280.588 124.237 279.73 126.913C278.95 129.362 276.979 130.774 274.32 130.788C271.427 130.81 270.683 128.78 270.654 128.695C270.576 128.467 270.697 128.219 270.924 128.141C271.151 128.063 271.399 128.184 271.477 128.404C271.505 128.475 272.065 129.915 274.292 129.915H274.32C276.575 129.901 278.241 128.709 278.9 126.643C279.659 124.266 278.957 120.802 276.156 118.786C274.355 117.487 272.25 117.218 270.229 118.027C267.052 119.297 264.677 122.953 263.72 128.056C262.479 134.65 264.039 140.044 268.003 142.854C271.406 145.268 276.036 145.417 279.794 143.231C284.175 140.69 286.352 135.65 285.756 129.404C285.735 129.163 285.912 128.95 286.146 128.929C286.38 128.908 286.6 129.085 286.621 129.319C287.252 135.92 284.92 141.265 280.233 143.99C278.326 145.097 276.206 145.644 274.121 145.644L274.114 145.658Z" fill="#8C6767"/>
<path d="M251.922 145.537C250.086 145.537 248.207 145.09 246.427 144.189C241.45 141.655 238.529 136.119 238.621 129.369C238.621 129.128 238.819 128.936 239.06 128.936C239.309 128.936 239.5 129.135 239.5 129.376C239.415 135.877 242.088 140.988 246.831 143.401C250.539 145.289 254.737 145.033 257.793 142.734C259.962 141.108 263.337 137.034 261.65 128.056C260.685 122.953 258.317 119.304 255.141 118.027C253.12 117.218 251.014 117.487 249.214 118.786C246.413 120.802 245.711 124.266 246.47 126.643C247.129 128.709 248.802 129.901 251.05 129.915H251.078C253.34 129.915 253.886 128.418 253.893 128.404C253.971 128.176 254.219 128.056 254.446 128.134C254.673 128.212 254.794 128.46 254.716 128.688C254.687 128.773 253.95 130.781 251.078 130.781C251.071 130.781 251.057 130.781 251.05 130.781C248.398 130.767 246.427 129.355 245.64 126.906C244.789 124.23 245.562 120.334 248.703 118.077C250.724 116.622 253.191 116.309 255.467 117.218C258.927 118.602 261.494 122.491 262.515 127.893C264.294 137.34 260.657 141.683 258.324 143.429C256.474 144.82 254.241 145.523 251.936 145.523L251.922 145.537Z" fill="#8C6767"/>
<path d="M265.174 130.803H260.423C260.14 130.803 259.913 130.575 259.913 130.292C259.913 130.008 260.14 129.781 260.423 129.781H265.174C265.457 129.781 265.684 130.008 265.684 130.292C265.684 130.575 265.457 130.803 265.174 130.803Z" fill="#8C6767"/>
<path d="M191.677 196.463L340.769 198.557C340.769 198.557 338.203 193.411 330.361 187.186C322.519 180.962 317.024 178.03 317.024 178.03C317.024 178.03 280.481 168.938 231.814 170.564C183.147 172.189 155.971 185.994 155.971 185.994L191.677 196.463Z" fill="#F79AB0"/>
<path opacity="0.42" d="M180.495 60.1667H146.193V97.543H180.495V60.1667Z" fill="#6598AE"/>
<path opacity="0.24" d="M297.781 64.1556H269.931V93.2844H297.781V64.1556Z" fill="#6598AE"/>
<path d="M172.448 170.095C172.448 170.095 167.584 151.634 183.821 144.033C197.788 137.489 244.399 134.387 264.557 143.955C276.532 149.64 277.39 166.078 277.39 166.078C277.39 166.078 251.298 164.247 230.694 164.445C210.097 164.651 198.164 167.221 198.164 167.221L172.441 170.102L172.448 170.095Z" fill="#F3AB72"/>
<path d="M186.862 168.633C186.728 168.633 186.607 168.527 186.593 168.392C186.579 168.278 185.381 157.007 180.013 146.226C179.949 146.091 179.999 145.928 180.134 145.864C180.269 145.8 180.432 145.85 180.495 145.984C185.912 156.858 187.118 168.228 187.132 168.342C187.146 168.491 187.04 168.626 186.891 168.64C186.884 168.64 186.869 168.64 186.862 168.64V168.633Z" fill="#FFE1B2"/>
<path d="M192.414 168.292C192.272 168.292 192.152 168.179 192.145 168.037C192.145 167.916 191.485 155.864 184.019 144.004C183.941 143.876 183.977 143.713 184.104 143.628C184.232 143.55 184.395 143.585 184.48 143.713C192.024 155.701 192.684 167.888 192.691 168.009C192.698 168.158 192.584 168.285 192.435 168.292C192.435 168.292 192.428 168.292 192.421 168.292H192.414Z" fill="#FFE1B2"/>
<path d="M198.37 167.526C198.235 167.526 198.122 167.426 198.1 167.292C198.079 167.128 195.668 150.605 188.975 142.436C188.883 142.322 188.897 142.152 189.011 142.052C189.124 141.96 189.294 141.974 189.394 142.088C196.186 150.371 198.611 167.043 198.632 167.214C198.653 167.363 198.547 167.497 198.405 167.519C198.391 167.519 198.377 167.519 198.37 167.519V167.526Z" fill="#FFE1B2"/>
<path d="M213.55 165.716C213.422 165.716 213.316 165.631 213.288 165.503C213.252 165.333 209.558 148.05 202.454 139.561C202.355 139.447 202.376 139.277 202.489 139.178C202.603 139.078 202.773 139.1 202.872 139.213C210.062 147.809 213.784 165.212 213.819 165.389C213.848 165.538 213.756 165.68 213.614 165.709C213.592 165.709 213.578 165.709 213.557 165.709L213.55 165.716Z" fill="#FFE1B2"/>
<path d="M219.272 165.453C219.144 165.453 219.031 165.361 219.002 165.226C218.974 165.049 215.911 147.248 207.601 139.149C207.495 139.043 207.495 138.873 207.601 138.766C207.708 138.66 207.878 138.66 207.984 138.766C216.421 146.985 219.513 164.956 219.541 165.141C219.562 165.29 219.463 165.425 219.321 165.453C219.307 165.453 219.293 165.453 219.279 165.453H219.272Z" fill="#FFE1B2"/>
<path d="M225.256 164.836C225.121 164.836 225.001 164.729 224.986 164.587C224.972 164.424 223.342 148.497 213.649 138.858C213.543 138.752 213.543 138.582 213.649 138.475C213.756 138.369 213.926 138.369 214.032 138.475C223.866 148.249 225.511 164.374 225.525 164.538C225.539 164.687 225.433 164.822 225.284 164.836C225.277 164.836 225.27 164.836 225.256 164.836Z" fill="#FFE1B2"/>
<path d="M244.534 164.985C244.392 164.985 244.279 164.878 244.265 164.737C244.258 164.602 243.109 150.768 233.991 138.589C233.899 138.468 233.927 138.298 234.048 138.213C234.168 138.12 234.338 138.149 234.423 138.269C243.648 150.577 244.796 164.559 244.804 164.701C244.818 164.85 244.704 164.978 244.555 164.992C244.555 164.992 244.541 164.992 244.534 164.992V164.985Z" fill="#FFE1B2"/>
<path d="M250.901 165.063C250.773 165.063 250.66 164.971 250.632 164.836C250.603 164.68 247.909 149.363 241.62 139.022C241.542 138.894 241.585 138.731 241.712 138.653C241.84 138.575 242.003 138.617 242.081 138.745C248.419 149.178 251.135 164.594 251.163 164.751C251.192 164.9 251.092 165.035 250.944 165.063C250.929 165.063 250.915 165.063 250.894 165.063H250.901Z" fill="#FFE1B2"/>
<path d="M257.601 165.169C257.467 165.169 257.353 165.07 257.332 164.935C257.311 164.772 255.013 148.511 247.951 140.051C247.852 139.937 247.874 139.767 247.987 139.668C248.1 139.568 248.271 139.589 248.37 139.703C255.531 148.291 257.842 164.701 257.871 164.864C257.892 165.013 257.786 165.148 257.637 165.169C257.623 165.169 257.615 165.169 257.601 165.169Z" fill="#FFE1B2"/>
<path d="M272.264 165.652C272.136 165.652 272.03 165.567 272.001 165.439C271.973 165.297 268.839 150.96 263.408 143.869C263.316 143.749 263.337 143.578 263.458 143.493C263.578 143.401 263.748 143.422 263.834 143.543C269.335 150.733 272.491 165.184 272.526 165.325C272.554 165.475 272.462 165.617 272.32 165.645C272.299 165.645 272.285 165.645 272.264 165.645V165.652Z" fill="#FFE1B2"/>
<path d="M172.406 170.308L169.463 170.791C169.463 170.791 168.506 166.284 169.811 162.039C170.888 158.526 172.852 156.461 172.852 156.461C172.852 156.461 172.384 157.518 171.86 161.351C171.328 165.184 172.406 170.315 172.406 170.315V170.308Z" fill="#7FB5C9"/>
<path opacity="0.43" d="M214.5 163.501C214.5 163.501 237.167 159.782 256.821 159.576C269.669 159.442 276.766 161.841 276.766 161.841L277.035 163.196L277.376 165.297L214.507 163.501H214.5Z" fill="#DB8D58"/>
<path opacity="0.4" d="M-68.129 237.736H46.9872L69.3355 254.245L-90.1086 254.181L-68.129 237.736Z" fill="#E5B1C0"/>
<path opacity="0.42" d="M62.9402 47.5826H-104.799V154.835H62.9402V47.5826Z" fill="#6598AE"/>
<path d="M62.7062 201.829H68.1018L69.3355 254.245H61.3094L62.7062 201.829Z" fill="#FDF5F3"/>
<path d="M62.614 204.895L68.1727 204.881L68.2365 207.67L62.5644 207.031L62.614 204.895Z" fill="#D6B6C0"/>
<path d="M40.3508 185.32H45.7465L46.9872 237.736H38.9541L40.3508 185.32Z" fill="#D6B6C0"/>
<path d="M40.2657 185.135L45.8174 185.121L45.8812 187.91L40.1877 187.903L40.2657 185.135Z" fill="#D6B6C0"/>
<path d="M61.7419 44.0622H-102.694V151.514H61.7419V44.0622Z" fill="#FDF5F3"/>
<path d="M55.1268 49.35H-96.5961V145.559H55.1268V49.35Z" fill="#CBEBF4"/>
<path d="M55.9705 90.5873H-97.844V96.0312H55.9705V90.5873Z" fill="#FDF5F3"/>
<path d="M36.7561 86.9817L34.1824 91.4532L36.7987 91.7229L36.7561 86.9817Z" fill="#A3E27A"/>
<path d="M19.3355 104.832L21.7249 103.455L20.5905 106.252L19.3355 104.832Z" fill="#A3E27A"/>
<path d="M23.618 124.649L43.6619 124.564L40.0956 145.679L28.6166 145.544L23.618 124.649Z" fill="#AD7C73"/>
<path d="M28.7867 124.727L26.8156 117.927C26.8156 117.927 22.6254 118.857 18.8463 117.431C12.1035 114.897 13.2663 105.279 16.464 104.229C18.8959 103.427 20.9733 105.159 21.1364 107.891C21.3208 110.851 20.8528 111.972 22.1432 113.577C23.4407 115.181 26.3122 114.308 26.3122 114.308C26.3122 114.308 22.7317 106.358 24.2632 97.4862C25.3551 91.1763 30.5522 87.7553 37.5218 90.9279C41.9674 92.9508 41.0669 101.553 41.0669 101.553C41.0669 101.553 42.8891 102.234 43.5414 100.914C44.1583 99.658 42.9884 95.0446 45.555 94.9949C48.54 94.9452 49.4475 100.964 47.441 103.796C45.633 106.351 40.7904 104.669 40.7904 104.669L38.8193 124.528L28.7867 124.713V124.727Z" fill="#83C15B"/>
<path d="M29.2901 111.028C28.4606 110.603 26.9787 107.501 26.9787 107.501L30.3111 109.197C30.3111 109.197 30.1268 111.454 29.2901 111.028Z" fill="#A3E27A"/>
<path d="M40.0601 111.476L44.3355 109.524L39.7765 114.755L40.0601 111.476Z" fill="#A3E27A"/>
<path d="M35.1041 118.978L37.3942 117.161C37.3942 117.161 36.0045 119.858 35.6075 120.014C35.0261 120.241 35.1041 118.985 35.1041 118.985V118.978Z" fill="#A3E27A"/>
<path d="M15.755 105.968C14.4575 105.606 16.0527 101.213 16.0527 101.213L17.6126 104.889C17.6126 104.889 16.4853 106.174 15.755 105.968Z" fill="#A3E27A"/>
<path d="M28.5953 124.046L39.1171 121.625L38.8264 124.55L28.8222 124.841L28.5953 124.046Z" fill="#76B24F"/>
<path d="M36.5292 96.2797L33.6364 99.5517C33.6364 99.5517 33.6152 100.829 34.941 101.028C36.2882 101.234 36.7348 100.226 36.7348 100.226L36.5292 96.2797Z" fill="#A3E27A"/>
<path d="M24.2703 90.6866L25.7592 95.8324C25.7592 95.8324 26.3122 95.8111 26.7518 95.3924C27.1914 94.9736 27.2907 94.3916 27.2907 94.3916L24.2703 90.6937V90.6866Z" fill="#A3E27A"/>
<path d="M17.1943 112.519L12.9614 111.391L16.8043 114.372C16.8043 114.372 17.1163 114.301 17.2723 113.64C17.4211 112.98 17.2013 112.519 17.2013 112.519H17.1943Z" fill="#A3E27A"/>
<path d="M48.6534 95.506L47.0652 97.2449C47.0652 97.2449 47.0156 97.8695 47.4836 98.1037C47.9515 98.3379 48.1571 98.1392 48.1571 98.1392L48.6534 95.506Z" fill="#A3E27A"/>
<path opacity="0.6" d="M43.0167 38.0505C43.0167 38.0505 46.101 39.7397 50.1495 39.7397C54.198 39.7397 54.8148 37.9511 59.2036 38.0505C62.7062 38.1286 63.9753 40.0662 67.7119 39.8817C70.0516 39.761 70.7252 37.7382 74.1498 38.0505C76.6526 38.2776 77.865 39.9101 81.481 39.9101C85.097 39.9101 85.4515 37.8021 88.6208 38.0505C90.3296 38.1853 92.0738 39.5552 94.924 39.5552C97.7743 39.5552 100.015 38.0505 100.015 38.0505V181.16C100.015 181.16 98.7527 181.65 95.8457 181.16C92.9317 180.671 91.2584 179.762 88.557 179.72C85.5224 179.677 84.4305 181.749 80.1268 181.608C75.823 181.458 75.2771 179.521 71.342 179.138C69.2504 178.939 67.5488 180.117 64.5709 181.16C61.2952 182.31 57.6154 181.16 57.6154 181.16C57.6154 181.16 58.2252 157.106 57.1191 130.845C55.8996 101.681 45.5621 89.7711 44.2292 65.1919C42.96 41.7626 43.0097 38.0505 43.0097 38.0505H43.0167Z" fill="#FFEEC2"/>
<path d="M1.97164 245.841L1.48949 245.6C1.51076 245.55 3.86472 240.766 1.70221 238.339C0.511061 237.005 -0.453213 236.77 -1.4742 236.522C-2.18322 236.352 -2.9135 236.174 -3.72887 235.635C-5.78503 234.279 -5.5227 232.2 -5.50852 232.107L-4.96966 232.178C-4.97675 232.256 -5.18944 234.017 -3.43108 235.173C-2.6937 235.656 -2.04142 235.819 -1.34658 235.983C-0.290143 236.238 0.808854 236.508 2.10636 237.963C4.51702 240.66 2.07798 245.621 1.97872 245.827L1.97164 245.841Z" fill="#8C6767"/>
<path d="M12.8338 241.434L12.295 241.37C12.3162 241.171 12.8196 236.437 7.96994 234.201C6.07687 233.328 4.44612 233.917 2.71611 234.542C1.39025 235.024 0.0218406 235.521 -1.49546 235.33C-4.23227 234.989 -5.26035 232.469 -5.30289 232.356L-4.79949 232.157C-4.79949 232.157 -3.84231 234.485 -1.42455 234.79C-0.0419669 234.961 1.21299 234.513 2.53176 234.031C4.29013 233.392 6.10523 232.739 8.19684 233.704C13.4081 236.11 12.8409 241.377 12.8338 241.427V241.434Z" fill="#8C6767"/>
<path d="M-2.86386 233.541C-4.26063 233.541 -5.26035 232.434 -5.30289 232.377L-4.89874 232.022C-4.89874 232.022 -3.72887 233.321 -2.29665 232.924C-1.72944 232.767 -1.25438 232.171 -0.750978 231.547C0.064394 230.532 0.986109 229.382 2.67357 229.467C4.41067 229.559 5.16222 231.227 5.19058 231.298L4.69428 231.518C4.69428 231.518 4.04197 230.084 2.64521 230.014C1.22717 229.935 0.440157 230.929 -0.325583 231.887C-0.885708 232.583 -1.41037 233.243 -2.15484 233.449C-2.39591 233.513 -2.63697 233.541 -2.86386 233.541Z" fill="#8C6767"/>
<path d="M3.04225 246.168C3.04225 247.055 2.32616 247.772 1.43988 247.772C0.55361 247.772 -0.162506 247.055 -0.162506 246.168C-0.162506 245.281 0.55361 244.564 1.43988 244.564C2.32616 244.564 3.04225 245.281 3.04225 246.168Z" fill="#8C6767"/>
<path d="M13.8619 242.023C13.8619 242.91 13.1458 243.627 12.2595 243.627C11.3732 243.627 10.6571 242.91 10.6571 242.023C10.6571 241.136 11.3732 240.419 12.2595 240.419C13.1458 240.419 13.8619 241.136 13.8619 242.023Z" fill="#8C6767"/>
<path d="M6.51645 232.363C6.51645 233.044 5.96341 233.591 5.28984 233.591C4.61627 233.591 4.06323 233.037 4.06323 232.363C4.06323 231.689 4.61627 231.135 5.28984 231.135C5.96341 231.135 6.51645 231.689 6.51645 232.363Z" fill="#8C6767"/>
<path d="M-25.0349 130.022C-25.0349 130.022 -20.6248 123.982 -8.64238 123.925C5.21185 123.861 8.84201 130.079 10.331 133.556C13.4081 140.746 10.4444 153.096 8.75693 163.771C7.19709 173.637 8.02664 181.466 8.02664 181.466L-25.8219 181.43C-25.8219 181.43 -27.9915 176.462 -29.5726 162.124C-30.9907 149.271 -25.0278 130.015 -25.0278 130.015L-25.0349 130.022Z" fill="url(#paint0_linear_2132_656)"/>
<path d="M7.6367 181.444C7.6367 181.444 24.6957 190.472 21.1081 202.936C18.2153 213 -10.4716 212.433 -17.8171 206.194C-29.5017 196.257 -25.7439 180.926 -25.7439 180.926L7.6367 181.444Z" fill="#AF6982"/>
<path d="M102.603 28.8519H-157.083C-157.928 28.8519 -158.614 29.5383 -158.614 30.385V31.6768C-158.614 32.5235 -157.928 33.2099 -157.083 33.2099H102.603C103.448 33.2099 104.134 32.5235 104.134 31.6768V30.385C104.134 29.5383 103.448 28.8519 102.603 28.8519Z" fill="#DBAB7B"/>
<path d="M82.0199 66.796C82.0199 66.796 82.0553 66.4482 81.0272 65.2274C80.1622 64.1983 78.2408 62.1612 79.0703 61.3592C79.8999 60.5501 81.637 62.8355 81.637 62.8355C81.637 62.8355 82.6225 60.2307 83.6152 61.0327C84.6503 61.8702 82.0128 66.796 82.0128 66.796H82.0199Z" fill="#FFF1D2"/>
<path d="M65.4784 91.2616C65.4784 91.2616 65.5139 90.9138 64.4858 89.693C63.6208 88.6639 61.6994 86.6269 62.5289 85.8248C63.3585 85.0157 65.0956 87.3011 65.0956 87.3011C65.0956 87.3011 66.0811 84.6963 67.0737 85.4983C68.1089 86.3359 65.4714 91.2616 65.4714 91.2616H65.4784Z" fill="#FFF1D2"/>
<path d="M87.1106 112.917C87.1106 112.917 87.1461 112.569 86.118 111.348C85.253 110.319 83.3315 108.282 84.1611 107.48C84.9906 106.671 86.7277 108.956 86.7277 108.956C86.7277 108.956 87.7133 106.351 88.7059 107.153C89.7411 107.991 87.1035 112.917 87.1035 112.917H87.1106Z" fill="#FFF1D2"/>
<path d="M66.6271 133.422C66.6271 133.422 66.6625 133.074 65.6344 131.853C64.7694 130.824 62.848 128.787 63.6775 127.985C64.5071 127.176 66.2442 129.461 66.2442 129.461C66.2442 129.461 67.2297 126.856 68.2224 127.658C69.2575 128.496 66.62 133.422 66.62 133.422H66.6271Z" fill="#FFF1D2"/>
<path d="M88.3939 155.211C88.3939 155.211 88.4294 154.864 87.4013 153.643C86.5363 152.614 84.6149 150.577 85.4444 149.775C86.274 148.965 88.0111 151.251 88.0111 151.251C88.0111 151.251 88.9966 148.646 89.9892 149.448C91.0244 150.286 88.3869 155.211 88.3869 155.211H88.3939Z" fill="#FFF1D2"/>
<path d="M59.4305 28.3764H59.3525C58.9296 28.3764 58.5868 28.7196 58.5868 29.143V39.3352C58.5868 39.7585 58.9296 40.1017 59.3525 40.1017H59.4305C59.8534 40.1017 60.1963 39.7585 60.1963 39.3352V29.143C60.1963 28.7196 59.8534 28.3764 59.4305 28.3764Z" fill="#EFBE92"/>
<path d="M46.0442 28.3764H45.9662C45.5433 28.3764 45.2005 28.7196 45.2005 29.143V39.3352C45.2005 39.7585 45.5433 40.1017 45.9662 40.1017H46.0442C46.4671 40.1017 46.81 39.7585 46.81 39.3352V29.143C46.81 28.7196 46.4671 28.3764 46.0442 28.3764Z" fill="#EFBE92"/>
<path d="M85.6571 28.3764H85.5791C85.1562 28.3764 84.8134 28.7196 84.8134 29.143V39.3352C84.8134 39.7585 85.1562 40.1017 85.5791 40.1017H85.6571C86.08 40.1017 86.4228 39.7585 86.4228 39.3352V29.143C86.4228 28.7196 86.08 28.3764 85.6571 28.3764Z" fill="#EFBE92"/>
<path d="M98.9087 28.3764H98.8307C98.4078 28.3764 98.065 28.7196 98.065 29.143V39.3352C98.065 39.7585 98.4078 40.1017 98.8307 40.1017H98.9087C99.3316 40.1017 99.6744 39.7585 99.6744 39.3352V29.143C99.6744 28.7196 99.3316 28.3764 98.9087 28.3764Z" fill="#EFBE92"/>
<path d="M72.2709 28.3764H72.1929C71.7699 28.3764 71.4271 28.7196 71.4271 29.143V39.3352C71.4271 39.7585 71.7699 40.1017 72.1929 40.1017H72.2709C72.6938 40.1017 73.0366 39.7585 73.0366 39.3352V29.143C73.0366 28.7196 72.6938 28.3764 72.2709 28.3764Z" fill="#EFBE92"/>
<path d="M79.127 194.724H-105.962V204.888H79.127V194.724Z" fill="#E8CAD2"/>
<path d="M-70.1072 165.915H44.5128L78.6166 194.724H-105.686L-70.1072 165.915Z" fill="#FDF5F3"/>
<path d="M192.896 194.816C239.145 192.112 317.783 189.124 338.564 196.498C346.916 199.465 343.478 239.255 343.478 239.255L189.649 241.973C189.649 241.973 184.501 195.306 192.896 194.816Z" fill="#E57F97"/>
<path d="M189.663 244.422C189.663 244.422 189.635 244.422 189.621 244.415L144.087 228.58C144.031 228.558 143.988 228.502 143.995 228.438L148.611 181.359C148.611 181.317 148.639 181.281 148.675 181.26C148.71 181.238 148.753 181.231 148.795 181.246L191.733 196.335C191.79 196.356 191.826 196.406 191.826 196.47L189.812 244.294C189.812 244.337 189.791 244.379 189.755 244.4C189.734 244.415 189.706 244.422 189.677 244.422H189.663ZM144.272 228.36L189.535 244.095L191.542 196.555L148.859 181.558L144.272 228.36Z" fill="black"/>
<path d="M147.469 180.507C147.469 180.507 190.755 192.098 193.045 196.598C196.548 203.49 189.798 247.318 189.798 247.318L143.782 233.953L147.469 180.507Z" fill="#F28CA0"/>
<path d="M344.045 238.595C344.045 238.595 346.505 246.04 343.719 247.296C340.28 248.851 189.571 247.623 189.571 247.623L189.231 239.347L344.038 238.588L344.045 238.595Z" fill="#FFB8C9"/>
<path d="M189.613 247.651C184.275 247.36 146.448 239.276 143.244 234.506C141.4 231.767 142.691 226.976 142.691 226.976L190.925 239.29C190.925 239.29 192.953 247.836 189.613 247.651Z" fill="#F7ADC3"/>
<path d="M178.468 58.726H146.193V95.435H178.468V58.726Z" fill="#E1F3F9"/>
<path d="M172.668 64.0279H151.688V89.26H172.668V64.0279Z" fill="#C4E8F2"/>
<path d="M151.723 76.6688C151.723 76.6688 153.595 77.1444 155.219 78.3155C156.843 79.4866 158.225 81.3533 158.225 81.3533L151.702 87.3011L151.723 76.6688Z" fill="#93BC7D"/>
<path d="M154.07 71.0333C153.156 70.7778 154.191 69.8764 154.716 69.7983C155.481 69.6776 155.68 70.1461 155.68 70.1461C155.68 70.1461 156.169 69.3086 157.318 69.2163C158.466 69.1311 159.388 70.3448 158.58 70.7991C157.771 71.2533 154.992 71.2959 154.077 71.0404L154.07 71.0333Z" fill="#EEFBFF"/>
<path opacity="0.53" d="M39.7765 206.804L39.8333 204.859L46.2073 204.916L46.2711 207.329L39.7765 206.804Z" fill="#BF99A6"/>
<path opacity="0.31" d="M5.47418 176.469C5.47418 176.469 19.4347 187.974 23.4549 188.648C27.475 189.323 45.8953 179.578 45.8315 176.604C45.7606 173.623 34.2745 167.064 34.2745 167.064L5.47418 176.469Z" fill="#D6B6C0"/>
<path d="M6.66535 168.505L5.87833 170.464L4.65881 173.509C4.65881 173.509 6.27539 175.283 10.2601 179.166C14.9538 183.737 20.4203 188.698 22.3063 186.959C24.7453 184.716 20.8457 181.153 20.8457 181.153L6.66535 168.505Z" fill="#F8EBBA"/>
<path d="M43.5272 170.351C43.5272 170.351 44.137 171.6 44.1866 173.829C44.2221 175.617 43.4351 177.008 42.8395 177.477C41.3435 178.655 37.2241 181.26 31.4881 184.092C26.688 186.469 23.7243 188.286 21.4909 188.23C17.7402 188.13 13.238 183.694 9.77086 180.394C5.31822 176.164 2.9501 173.779 2.9501 173.779L5.54509 171.252L4.67301 173.502C4.67301 173.502 16.861 186.69 20.7819 187.03C21.6044 187.101 22.6112 186.193 22.7388 184.794C22.8735 183.389 20.9946 181.309 20.9946 181.309L43.5202 170.351H43.5272Z" fill="#EAAE4E"/>
<path d="M25.3834 179.145C25.3834 179.145 26.7235 180.039 27.0922 181.856C27.4609 183.673 26.8511 186.398 26.8511 186.398L29.2405 185.178C29.2405 185.178 29.5312 183.07 29.3114 181.274C29.0561 179.216 27.8863 177.995 27.8863 177.995L25.3834 179.145Z" fill="#D1953F"/>
<path d="M36.983 173.474C36.983 173.474 37.5431 174.446 37.7416 176.171C37.9827 178.25 37.6708 180.791 37.6708 180.791L39.7482 179.556C39.7482 179.556 40.0247 177.526 39.9254 175.603C39.8403 173.878 39.1809 172.473 39.1809 172.473L36.983 173.481V173.474Z" fill="#D1953F"/>
<path d="M5.60892 167.76L28.0068 159.456L43.6052 170.351L21.0017 181.309L5.60892 167.76Z" fill="#F9C561"/>
<path opacity="0.53" d="M17.3148 172.402C16.5632 170.62 18.6478 168.037 21.9731 166.631C25.2984 165.226 28.6024 165.524 29.354 167.306C30.1055 169.087 27.9785 171.799 24.7666 173.452C21.4838 175.142 18.0735 174.183 17.3219 172.409L17.3148 172.402Z" fill="#F8EBBA"/>
<path d="M35.5508 168.555C35.4586 168.555 35.3522 168.527 35.2459 168.498C35.2246 168.498 35.2104 168.491 35.2034 168.484C35.1254 168.47 35.0474 168.448 34.9623 168.434C34.8559 168.413 34.7496 168.385 34.6432 168.37C34.5298 168.349 34.4234 168.335 34.31 168.328C34.2036 168.314 34.0973 168.299 33.9909 168.285C33.9555 168.285 33.9129 168.278 33.8704 168.271C33.6931 168.257 33.4237 168.236 33.3953 167.994C33.3812 167.866 33.4946 167.774 33.7711 167.554C33.9271 167.426 34.2958 167.128 34.3029 167.022C34.3029 166.986 34.2958 166.958 34.2674 166.937C34.1398 166.83 33.7995 166.823 33.4592 166.852C33.1897 167.086 32.6651 167.185 32.4524 167.128C32.3176 167.093 32.2893 167.001 32.2893 166.965C32.268 166.759 32.4949 166.731 32.5871 166.717C32.6154 166.717 32.6367 166.717 32.658 166.702C32.658 166.702 32.9699 166.624 33.3315 166.589C33.3599 166.546 33.3741 166.49 33.3174 166.404C33.1117 166.106 32.3744 166.191 31.9348 166.241C31.8426 166.248 31.7646 166.262 31.6937 166.27C31.6866 166.27 31.6583 166.277 31.637 166.284C31.5661 166.305 31.4385 166.355 31.3392 166.248C31.2683 166.17 31.3179 166.092 31.3463 166.042C31.5448 165.716 31.5661 165.617 31.5661 165.588C31.4597 165.262 30.9634 165.255 30.5238 165.24C30.3324 165.24 30.1551 165.233 30.0133 165.205C29.9566 165.191 29.907 165.141 29.8999 165.084C29.8857 164.985 29.9637 164.942 30.0488 164.893C30.2544 164.779 30.2899 164.729 30.2899 164.708C30.063 164.36 29.7581 164.339 29.4319 164.318C29.1838 164.296 28.9285 164.282 28.7229 164.112C28.6449 164.048 28.652 163.977 28.6591 163.949C28.6804 163.842 28.7938 163.814 28.9073 163.778C28.9498 163.764 29.0207 163.75 29.0349 163.736C29.1554 163.658 29.3043 163.509 29.3185 163.452C29.2689 163.381 28.8647 163.367 28.6662 163.359C28.2833 163.345 28.0423 163.331 27.9217 163.218C27.8792 163.175 27.8508 163.118 27.8579 163.061C27.865 162.941 27.9714 162.863 28.0777 162.777C28.1202 162.742 28.1699 162.706 28.1911 162.678C28.2833 162.565 28.2975 162.529 28.2975 162.515C28.2762 162.501 28.1344 162.444 28.0706 162.415C28.0423 162.401 27.9926 162.401 27.943 162.401C27.9076 162.401 27.8721 162.401 27.8437 162.401C27.7728 162.394 27.7161 162.323 27.7232 162.252C27.7303 162.181 27.8012 162.124 27.8721 162.132C27.9005 162.132 27.9217 162.132 27.9501 162.132C28.021 162.132 28.099 162.132 28.177 162.167C28.3613 162.245 28.5244 162.316 28.5599 162.458C28.5953 162.593 28.5031 162.714 28.4039 162.841C28.3613 162.891 28.2975 162.941 28.2408 162.983C28.2195 162.998 28.1912 163.019 28.1699 163.04C28.2833 163.068 28.5244 163.076 28.6733 163.083C29.0349 163.097 29.3752 163.104 29.517 163.267C29.5667 163.324 29.5879 163.395 29.5808 163.473C29.5596 163.679 29.2476 163.913 29.1838 163.956C29.1625 163.97 29.1342 163.984 29.1058 163.998C29.2051 164.027 29.3256 164.034 29.4461 164.041C29.7865 164.062 30.2048 164.098 30.5026 164.545C30.5522 164.616 30.5664 164.694 30.5451 164.772C30.5238 164.843 30.4813 164.907 30.4175 164.964C30.4529 164.964 30.4813 164.964 30.5167 164.964C31.0201 164.971 31.6512 164.985 31.8142 165.51C31.8426 165.609 31.8142 165.744 31.6795 165.986C31.7363 165.986 31.8072 165.971 31.8852 165.964C32.4169 165.9 33.2252 165.808 33.523 166.241C33.5939 166.348 33.6222 166.454 33.6081 166.553C33.9271 166.539 34.2533 166.568 34.4234 166.71C34.5227 166.788 34.5652 166.894 34.5581 167.022C34.544 167.228 34.2887 167.455 33.9271 167.746C33.842 167.817 33.7357 167.902 33.679 167.959C33.7286 167.973 33.8279 167.98 33.8775 167.98C33.9271 167.98 33.9767 167.987 34.0193 167.994C34.1256 168.008 34.2249 168.023 34.3313 168.037C34.4447 168.051 34.5652 168.065 34.6787 168.087C34.7921 168.108 34.8985 168.129 35.0119 168.157C35.0899 168.172 35.1679 168.193 35.2459 168.207C35.2601 168.207 35.2813 168.214 35.3097 168.221C35.4231 168.25 35.5011 168.271 35.5366 168.271C35.565 168.228 35.6217 168.214 35.6713 168.221C35.7422 168.236 35.7918 168.307 35.7777 168.385C35.7635 168.434 35.7351 168.484 35.6855 168.505C35.6429 168.534 35.5933 168.541 35.5366 168.541L35.5508 168.555Z" fill="#D1953F"/>
<path d="M20.867 184.496C20.789 184.496 20.711 184.447 20.6756 184.369C19.8248 182.182 6.82844 170.94 6.69373 170.826C6.60864 170.755 6.60156 170.628 6.67246 170.542C6.74336 170.457 6.87098 170.45 6.95606 170.521C7.49491 170.989 20.1651 181.948 21.0514 184.227C21.0939 184.333 21.0372 184.447 20.9379 184.489C20.9166 184.496 20.8883 184.503 20.867 184.503V184.496Z" fill="#E5C680"/>
<path d="M20.0303 184.95C20.0303 184.95 19.9878 184.95 19.9736 184.943C19.144 184.681 7.20418 174.666 5.80032 172.452C5.7436 172.359 5.77196 172.231 5.86413 172.175C5.9563 172.111 6.08394 172.146 6.14066 172.239C7.60833 174.56 19.5482 184.361 20.0941 184.56C20.2005 184.596 20.2572 184.709 20.2218 184.816C20.1934 184.901 20.1154 184.958 20.0303 184.958V184.95Z" fill="#E5C680"/>
<path opacity="0.65" d="M39.7694 193.155C39.7694 193.155 66.4285 190.863 67.2155 186.654C67.6551 184.319 62.2808 181.927 62.2808 181.927L39.7694 193.155Z" fill="#E5B1C0"/>
<path d="M37.1319 182.835C35.8911 182.452 32.6083 186.931 32.1262 189.557C31.878 190.913 33.9838 191.935 35.6358 192.502C37.6494 193.198 39.0746 193.596 39.4007 192.46C40.3012 189.351 38.089 183.126 37.1319 182.835Z" fill="#AAD4E2"/>
<path d="M61.4938 177.661C61.4938 177.661 65.2587 177.143 65.7337 177.392C66.2371 177.647 65.9606 179.478 65.287 179.549C64.2306 179.67 61.4938 177.661 61.4938 177.661Z" fill="#9B7392"/>
<path d="M37.0114 182.913C37.0114 182.913 40.4217 182.686 44.8177 181.7C50.9507 180.33 61.5576 177.519 61.5576 177.519C61.5576 177.519 67.1447 183.403 65.4926 185.391C62.6353 188.819 51.9362 191.693 44.9453 192.843C41.0599 193.489 38.6137 193.155 38.6137 193.155C38.6137 193.155 39.8191 192.368 39.422 189.805C39.025 187.243 37.0184 182.913 37.0184 182.913H37.0114Z" fill="#99C5D8"/>
<path d="M37.3375 183.233C37.1957 183.233 37.0752 183.119 37.0681 182.977C37.0681 182.828 37.1744 182.701 37.3233 182.693C38.7839 182.63 41.4427 182.182 44.6191 181.473C50.6741 180.117 61.3803 177.285 61.4867 177.257C61.6285 177.221 61.7774 177.306 61.8199 177.448C61.8554 177.59 61.7703 177.739 61.6285 177.782C61.5221 177.81 50.8089 180.642 44.7397 182.005C41.5278 182.722 38.8335 183.176 37.3446 183.24C37.3446 183.24 37.3375 183.24 37.3304 183.24L37.3375 183.233Z" fill="#9B7392"/>
<path d="M38.6137 193.432C38.5287 193.432 38.4365 193.39 38.3868 193.312C38.3089 193.184 38.3372 193.021 38.4648 192.935C38.5145 192.9 39.5213 192.176 39.1526 189.855C38.869 188.045 37.77 185.334 37.139 183.872C37.0823 183.737 37.139 183.574 37.2808 183.517C37.4226 183.46 37.5786 183.517 37.6353 183.659C38.2734 185.142 39.3937 187.903 39.6844 189.77C40.1098 192.474 38.8123 193.354 38.7555 193.39C38.713 193.418 38.6563 193.432 38.6066 193.432H38.6137Z" fill="#DCF4F7"/>
<path d="M63.1387 183.545C63.0394 184.66 62.0539 185.483 60.9337 185.383C59.8205 185.284 58.998 184.298 59.0973 183.176C59.1966 182.062 60.1821 181.238 61.3024 181.338C62.4155 181.437 63.238 182.424 63.1387 183.545Z" fill="#7BB3C6"/>
<path d="M62.7842 183.126C62.6849 184.241 61.6994 185.064 60.5791 184.965C59.466 184.865 58.6435 183.879 58.7428 182.757C58.842 181.643 59.8276 180.82 60.9478 180.919C62.061 181.018 62.8834 182.005 62.7842 183.126Z" fill="#F9C561"/>
<path d="M151.766 86.4777C151.766 86.4777 153.106 82.7373 159.998 80.608C165.188 79.0039 172.654 80.4944 172.654 80.4944L172.682 89.1961L151.766 89.2174V86.4777Z" fill="#BDE5A8"/>
<path d="M163.621 70.1816C163.117 70.4513 163.259 71.9844 162.259 73.5885C161.26 75.1925 159.813 75.8526 160.069 76.3707C160.324 76.8889 163.047 75.6468 163.047 75.6468C163.047 75.6468 162.891 76.9102 161.948 78.1168C161.005 79.3305 159.225 79.9267 159.53 80.4377C159.835 80.9487 162.55 80.1396 162.55 80.1396C162.55 80.1396 161.94 81.1758 161.012 82.1766C160.083 83.1774 158.814 84.3201 159.48 84.3982C160.147 84.4834 162.671 83.0851 163.685 82.9574C164.706 82.8225 167.237 84.6821 167.563 84.1001C167.889 83.5181 164.982 80.1822 164.982 80.1822C164.982 80.1822 167.329 80.97 167.4 80.4235C167.478 79.877 165.868 79.0111 165.117 77.7761C164.365 76.5411 164.394 75.4693 164.394 75.4693C164.394 75.4693 164.84 75.7178 165.507 76.1294C166.301 76.6263 167.414 77.0237 167.216 76.3849C167.017 75.7532 165.549 75.0293 164.727 73.3116C163.904 71.594 164.145 69.8977 163.628 70.1745L163.621 70.1816Z" fill="#8CB276"/>
<path d="M168.017 71.7572C168.329 72.5451 170.782 72.3038 171.108 71.6224C171.427 70.941 170.832 70.4868 169.562 70.4868C168.293 70.4868 167.712 70.9694 168.017 71.7572Z" fill="#EEFBFF"/>
<path opacity="0.22" d="M200.922 48.484L243.463 49.0873L243.889 100.389L201.348 99.7858L200.922 48.484Z" fill="#6598AE"/>
<path d="M200.326 46.3047L200.166 97.3507L241.608 97.481L241.768 46.435L200.326 46.3047Z" fill="#E1F3F9"/>
<path d="M202.042 48.4751L201.895 95.2697L239.884 95.3891L240.031 48.5946L202.042 48.4751Z" fill="#DD9E89"/>
<path d="M208.53 76.1933C207.729 69.628 212.969 63.6163 220.243 62.7716C227.511 61.927 234.055 66.5618 234.856 73.1271C235.657 79.6924 230.417 85.7041 223.143 86.5488C215.875 87.3934 209.331 82.7586 208.53 76.1933Z" fill="#F9C2D2"/>
<path d="M226.107 63.4956C226.107 63.4956 226.674 61.3947 228.39 60.2378C230.106 59.0737 232.389 58.5982 232.97 58.8537C233.58 59.1163 233.92 61.5011 233.636 63.4885C233.317 65.7171 232.126 66.9734 232.126 66.9734L226.107 63.5027V63.4956Z" fill="#F9C2D2"/>
<path d="M209.232 70.9907C209.232 70.9907 207.289 69.0672 206.509 66.8031C205.729 64.5389 205.758 62.3528 206.212 61.8631C206.665 61.3733 208.885 61.3733 211.281 62.218C213.465 62.9845 214.784 64.7518 214.784 64.7518L209.225 70.9978L209.232 70.9907Z" fill="#F9C2D2"/>
<path d="M221.619 73.0774C219.364 73.3471 217.301 77.1941 218.088 78.6491C219.073 80.4732 225.504 79.7989 226.716 77.3076C227.475 75.7461 223.88 72.8077 221.619 73.0703V73.0774Z" fill="#F28CA0"/>
<path d="M221.101 70.1674C220.754 69.4008 220.973 68.5562 221.583 68.2865C222.193 68.0097 222.966 68.4143 223.306 69.1808C223.653 69.9474 223.434 70.792 222.824 71.0617C222.214 71.3385 221.441 70.9339 221.101 70.1674Z" fill="#BA70A0"/>
<path d="M217.499 70.4513C217.499 69.6918 217.988 69.0814 218.577 69.0885C219.165 69.0885 219.64 69.7131 219.633 70.4725C219.633 71.232 219.144 71.8424 218.556 71.8353C217.967 71.8282 217.492 71.2107 217.499 70.4513Z" fill="#BA70A0"/>
<path d="M217.116 65.4474C216.414 66.4482 219.591 68.0593 220.385 67.9174C221.321 67.7541 223.107 64.7518 221.739 64.5247C220.91 64.3828 219.959 66.6469 219.959 66.6469C219.959 66.6469 217.818 64.4466 217.116 65.4474Z" fill="#DD9E89"/>
<path d="M220.115 76.1081C220.293 75.6965 220.782 75.5119 221.2 75.6965C221.626 75.881 221.824 76.3637 221.647 76.7682C221.47 77.1799 220.98 77.3644 220.562 77.1799C220.137 76.9953 219.938 76.5127 220.115 76.101V76.1081Z" fill="#D8778E"/>
<path d="M222.604 75.5971C222.76 75.2351 223.193 75.0719 223.561 75.2351C223.93 75.3984 224.107 75.8171 223.951 76.1791C223.795 76.5411 223.363 76.7043 222.994 76.5411C222.625 76.3778 222.448 75.9591 222.604 75.5971Z" fill="#D8778E"/>
<path opacity="0.57" d="M227.787 72.7367C227.688 71.8424 228.539 71.0191 229.687 70.8842C230.836 70.7565 231.857 71.374 231.956 72.2612C232.055 73.1555 231.204 73.9788 230.056 74.1137C228.907 74.2414 227.886 73.6239 227.787 72.7367Z" fill="#FC757E"/>
<path opacity="0.57" d="M211.465 77.2366C211.331 76.3352 212.21 75.4622 213.415 75.2847C214.628 75.1073 215.712 75.6964 215.84 76.5978C215.975 77.4992 215.096 78.3722 213.89 78.5496C212.678 78.7271 211.593 78.138 211.465 77.2366Z" fill="#FC757E"/>
<path d="M226.532 80.0757C226.49 80.0757 226.44 80.0757 226.397 80.0686C226.248 80.0473 226.142 79.9124 226.163 79.7634C226.185 79.6143 226.319 79.5079 226.468 79.5292C226.688 79.5576 227.057 79.4227 227.269 79.153C227.468 78.9117 227.51 78.6136 227.39 78.2729C227.34 78.1309 227.418 77.9748 227.553 77.9251C227.695 77.8754 227.851 77.9535 227.9 78.0883C228.078 78.5994 228.007 79.0962 227.688 79.4866C227.404 79.8415 226.943 80.0686 226.532 80.0686V80.0757Z" fill="#FF696F"/>
<path d="M223.554 86.35C223.554 86.35 220.683 84.6821 220.002 85.4841C219.321 86.2862 219.853 88.8981 220.902 89.1962C221.952 89.4872 223.54 86.7404 223.54 86.7404C223.54 86.7404 226.014 89.0117 226.716 88.3942C227.418 87.7767 227.255 84.7815 226.355 84.2633C225.454 83.7452 223.554 86.3571 223.554 86.3571V86.35Z" fill="#C7DDEF"/>
<path d="M141.875 234.166C141.131 229.914 140.861 223.647 141.287 211.404C141.748 198.315 143.853 183.247 150.603 176.959C159.034 169.109 194.116 163.502 231.68 163.005C251.695 162.742 274.873 163.459 289.649 167.1C296.867 168.874 306.141 171.756 310.756 173.829C321.42 178.612 319.357 179.301 319.357 179.301C319.357 179.301 286.437 172.31 257.077 172.175C224.667 172.026 183.296 174.29 166.492 186.519C161.033 190.494 159.714 201.218 158.296 211.439C158.005 213.547 157.771 215.662 157.587 217.742C156.538 229.552 157.431 236.458 157.034 240.085C156.814 242.101 142.613 238.431 141.861 234.18L141.875 234.166Z" fill="#FEEBC1"/>
<path opacity="0.28" d="M172.576 177.938C172.576 177.938 174.511 179.925 182.218 178.662C186.005 177.853 181.318 183.85 181.318 183.85C181.318 183.85 185.792 184.113 191.776 179.563C193.364 178.016 191.187 182.814 191.187 182.814C191.187 182.814 195.796 179.436 196.505 176.589C197.214 173.743 192.357 172.53 199.299 174.922C206.24 177.313 212.501 175.099 212.501 175.099L212.593 171.763L196.64 170.727L172.576 177.945V177.938Z" fill="#D36781"/>
<path d="M183.828 171.046C183.828 171.046 177.943 168.583 178.028 163.168C178.177 154.04 184.168 150.591 190.656 150.293C201.532 149.796 204.262 158.59 204.12 161.94C203.886 167.618 199.121 169.194 199.121 169.194C199.121 169.194 202.624 169.996 206.743 170.017C211.203 170.038 214.578 168.129 215.549 170.556C216.521 172.984 215.124 176.561 209.282 176.568C205.106 176.568 198.824 172.608 198.824 172.608C198.824 172.608 199.497 173.914 202.596 176.412C205.269 178.563 209.693 180.529 208.892 182.36C208.09 184.191 204.127 183.297 201.036 182.09C197.363 180.656 193.641 177.193 193.641 177.193C193.641 177.193 192.988 181.068 191.166 184.028C189.124 187.342 186.444 187.981 184.728 187.236C183.75 186.81 186.182 183.886 187.111 182.019C188.245 179.734 188.458 177.718 188.458 177.718C188.458 177.718 185.168 182.346 181.24 184.39C176.631 186.789 173.235 185.603 172.427 184.418C171.81 183.517 171.697 181.813 173.731 180.614C175.873 179.358 177.17 179.372 179.12 178.414C181.07 177.455 181.977 176.511 181.977 176.511C181.977 176.511 176.121 178.619 170.832 177.69C164.713 176.611 165.585 172.082 166.62 171.394C168.081 170.422 173.476 171.813 177.744 171.884C182.431 171.962 183.814 171.039 183.814 171.039L183.828 171.046Z" fill="#BA70A0"/>
<path d="M181.658 177.008C181.573 177.008 181.495 176.973 181.438 176.895C181.353 176.774 181.382 176.604 181.502 176.519C181.524 176.504 183.736 174.893 185.076 173.254C185.168 173.14 185.338 173.119 185.459 173.218C185.572 173.31 185.593 173.481 185.494 173.601C184.104 175.291 181.906 176.895 181.814 176.959C181.765 176.994 181.708 177.008 181.658 177.008Z" fill="#9B5088"/>
<path d="M188.607 161.408C188.607 160.762 188.94 160.237 189.344 160.237C189.748 160.237 190.081 160.762 190.081 161.408C190.081 162.054 189.748 162.579 189.344 162.579C188.94 162.579 188.607 162.054 188.607 161.408Z" fill="#FDF5F3"/>
<path d="M193.329 161.379C193.329 160.79 193.648 160.307 194.038 160.307C194.428 160.307 194.747 160.79 194.747 161.379C194.747 161.968 194.428 162.451 194.038 162.451C193.648 162.451 193.329 161.968 193.329 161.379Z" fill="#FDF5F3"/>
<path d="M192.053 168.016C191.315 168.016 190.436 167.632 189.89 166.532C189.791 166.333 189.869 166.085 190.074 165.986C190.273 165.886 190.521 165.964 190.62 166.17C190.982 166.901 191.585 167.277 192.23 167.192C192.79 167.114 193.222 166.688 193.336 166.099C193.378 165.879 193.591 165.737 193.811 165.773C194.031 165.815 194.172 166.028 194.137 166.248C193.96 167.185 193.258 167.867 192.343 167.994C192.251 168.009 192.159 168.016 192.06 168.016H192.053Z" fill="#FF8CC5"/>
<path d="M197.072 164.048C197.072 163.189 197.76 162.486 198.604 162.486C199.448 162.486 200.135 163.182 200.135 164.048C200.135 164.914 199.448 165.609 198.604 165.609C197.76 165.609 197.072 164.914 197.072 164.048Z" fill="#9B5088"/>
<path d="M179.786 160.492C179.786 159.875 180.361 159.371 181.077 159.371C181.793 159.371 182.367 159.875 182.367 160.492C182.367 161.11 181.793 161.613 181.077 161.613C180.361 161.613 179.786 161.11 179.786 160.492Z" fill="#9B5088"/>
<path d="M182.218 156.354C182.218 155.233 183.204 154.324 184.423 154.324C185.643 154.324 186.628 155.233 186.628 156.354C186.628 157.476 185.643 158.384 184.423 158.384C183.204 158.384 182.218 157.476 182.218 156.354Z" fill="#9B5088"/>
<path d="M197.71 178.655C197.71 178.158 198.115 177.761 198.618 177.761C199.121 177.761 199.526 178.165 199.526 178.655C199.526 179.145 199.121 179.549 198.618 179.549C198.115 179.549 197.71 179.145 197.71 178.655Z" fill="#9B5088"/>
<path d="M200.206 181.707C200.206 181.707 200.78 179.982 202.184 180.522C203.617 181.075 203.347 182.843 203.347 182.843C203.347 182.843 202.674 182.651 201.872 182.402C201.071 182.154 200.213 181.707 200.213 181.707H200.206Z" fill="#9B5088"/>
<path d="M170.165 177.569C170.165 177.569 170.817 174.354 173.71 174.843C175.922 175.22 176.39 177.761 176.39 177.761C176.39 177.761 174.199 177.974 173.263 177.945C172.328 177.917 170.165 177.569 170.165 177.569Z" fill="#9B5088"/>
<path d="M178.007 174.24C178.007 173.729 178.432 173.318 178.964 173.318C179.496 173.318 179.921 173.729 179.921 174.24C179.921 174.751 179.496 175.163 178.964 175.163C178.432 175.163 178.007 174.751 178.007 174.24Z" fill="#9B5088"/>
<path d="M295.931 63.0768H269.073V90.6866H295.931V63.0768Z" fill="#E1F3F9"/>
<path d="M293.797 65.8946H272.462V87.8902H293.797V65.8946Z" fill="#C4E8F2"/>
<path d="M293.797 78.9187H272.462V87.883H293.797V78.9187Z" fill="#F3AB72"/>
<path d="M272.512 71.9205C272.512 71.9205 274.759 70.5719 276.894 70.721C279.326 70.8913 278.815 71.7643 281.708 71.8069C284.601 71.8495 285.7 70.7707 287.614 70.7849C289.535 70.7991 290.911 71.9063 292.152 72.1618C293.392 72.4173 293.754 71.885 293.754 71.885V84.3698C293.754 84.3698 293.109 85.0156 291.23 84.824C289.649 84.6679 289.301 83.8871 287.401 83.9368C285.501 83.9865 285.437 84.895 282.856 84.9589C280.276 85.0227 280.013 84.1639 277.411 84.0362C274.809 83.9013 272.413 84.7814 272.413 84.7814L272.491 71.9134L272.512 71.9205Z" fill="#A4CDDD"/>
<path d="M279.808 77.5134C279.808 77.5134 281.169 75.7958 283.679 75.7035C286.444 75.6041 287.522 77.5631 287.522 77.5631C287.522 77.5631 286.501 79.6285 283.707 79.5078C281.304 79.4014 279.808 77.5205 279.808 77.5205V77.5134Z" fill="#8199BC"/>
<path d="M287.543 77.5489C287.543 77.5489 287.72 77.0805 288.11 76.7114C288.5 76.3423 289.103 76.0868 289.103 76.0868L288.947 78.6632C288.947 78.6632 288.507 78.5923 288.16 78.3155C287.813 78.0386 287.55 77.5489 287.55 77.5489H287.543Z" fill="#6381A5"/>
<path d="M274.596 81.3745C274.568 81.2894 275.596 80.2673 276.334 80.3028C277.071 80.3312 277.822 81.3036 277.822 81.3036C277.822 81.3036 277.085 82.4037 276.348 82.3682C275.61 82.3398 274.618 81.4597 274.589 81.3745H274.596Z" fill="#8199BC"/>
<path d="M277.745 81.2823C277.745 81.2823 278.347 80.5655 278.517 80.6932C278.688 80.821 278.673 81.6585 278.482 81.8076C278.29 81.9566 277.745 81.2823 277.745 81.2823Z" fill="#6381A5"/>
<path d="M284.19 78.7129C284.19 78.7129 284.572 78.9045 284.785 79.2523C284.998 79.6072 285.033 80.1182 285.033 80.1182C285.033 80.1182 284.218 80.0686 283.984 79.6356C283.75 79.2026 284.19 78.7058 284.19 78.7058V78.7129Z" fill="#6381A5"/>
<path opacity="0.28" d="M250.901 169.79C250.866 170.94 256.715 170.329 256.715 170.329C256.715 170.329 257.325 171.11 258.707 171.955C260.09 172.799 263.507 173.374 263.507 173.374C263.507 173.374 272.519 180.891 279.191 179.4C283.112 178.52 280.815 174.936 280.815 175.205C280.815 175.475 285.076 178.591 288.252 177.576C291.429 176.561 289.741 172.43 289.741 172.43C289.741 172.43 277.773 165.46 270.271 165.73C262.77 166 250.972 167.795 250.901 169.79Z" fill="#D36781"/>
<path d="M267.783 135.757C267.783 135.757 266.471 131.91 267.811 126.509C269.08 121.398 270.427 117.374 273.71 115.543C276.085 114.215 279.801 116.345 280.169 119.823C280.538 123.3 277.206 126.289 275.185 130.576C273.164 134.87 272.094 136.985 272.094 136.985L267.783 135.764V135.757Z" fill="#F9BDE4"/>
<path d="M261.813 135.742C261.813 135.742 261.054 132.215 261.146 127.807C261.239 123.407 262.203 121.065 262.011 117.502C261.848 114.428 260.657 112.696 258.268 112.441C254.404 112.036 251.553 114.918 250.738 122.243C249.689 131.661 256.134 136.921 256.134 136.921L261.813 135.742Z" fill="#F9BDE4"/>
<path d="M270.193 132.684C270.144 133.053 271.207 133.429 271.441 133.003C271.675 132.577 276.809 122.662 275.398 122.158C273.987 121.654 272.64 124.535 271.611 127.467C270.619 130.313 270.307 131.867 270.193 132.684Z" fill="#E2A1CB"/>
<path d="M258.807 133.194C258.764 132.634 258.339 130.682 257.97 127.559C257.601 124.436 258.183 121.675 257.488 120.539C256.8 119.404 254.829 120.71 254.758 122.86C254.68 125.195 254.574 126.324 255.354 129.028C256.275 132.236 257.119 133.202 257.495 133.776C257.693 134.075 258.849 133.854 258.807 133.202V133.194Z" fill="#E2A1CB"/>
<path d="M276.702 158.072C276.702 158.072 280.673 158.249 283.211 161.152C285.48 163.75 284.182 166.859 284.182 166.859L278.617 166.482L276.702 158.072Z" fill="#EFB4DD"/>
<path d="M275.724 156.837C275.724 156.837 279.07 154.644 279.73 149.604C280.765 141.74 274.866 135.331 263.72 135.217C252.085 135.097 248.675 144.764 248.824 149.689C249.065 157.483 256.212 158.618 256.212 158.618C256.212 158.618 253.617 158.32 249.873 161.883C246.307 165.269 245.307 167.171 246.016 169.201C246.831 171.536 249.724 171.742 251.383 170.585C253.929 168.81 256.814 162.572 256.814 162.572C256.814 162.572 255.843 165.822 257.715 169.002C259.026 171.231 262.111 172.054 262.111 172.054C262.111 172.054 263.167 173.743 266.443 176.071C268.286 177.377 273.561 180.067 276.305 179.059C280.439 177.541 278.702 173.005 278.702 173.005C278.702 173.005 284.934 177.64 287.508 176.547C290.081 175.447 291.592 171.068 288.238 168.463C285.381 166.241 278.631 165.517 278.631 165.517C278.631 165.517 279.581 164.027 278.95 161.145C278.312 158.235 275.724 156.837 275.724 156.837Z" fill="#FFCFEC"/>
<path d="M260.345 159.725C260.274 159.725 260.203 159.697 260.147 159.64C260.04 159.534 260.047 159.364 260.154 159.257C266.712 152.99 275.249 156.397 275.334 156.432C275.469 156.489 275.539 156.645 275.483 156.787C275.426 156.922 275.27 156.993 275.128 156.936C275.043 156.901 266.826 153.629 260.522 159.655C260.473 159.704 260.402 159.733 260.338 159.733L260.345 159.725Z" fill="#F9ACBE"/>
<path d="M278.368 172.934C278.298 172.934 278.22 172.906 278.17 172.849C278.099 172.771 271.051 165.148 264.947 168.505C264.819 168.576 264.649 168.527 264.578 168.399C264.507 168.271 264.557 168.101 264.684 168.03C271.158 164.467 278.496 172.402 278.567 172.48C278.666 172.594 278.659 172.764 278.546 172.863C278.496 172.913 278.425 172.934 278.361 172.934H278.368Z" fill="#F9ACBE"/>
<path d="M273.278 168.058C273.235 168.058 273.193 168.051 273.15 168.03C273.015 167.959 272.966 167.796 273.037 167.661C274.341 165.184 277.801 165.247 277.95 165.247C278.099 165.247 278.22 165.375 278.212 165.524C278.212 165.673 278.085 165.794 277.936 165.787C277.908 165.787 274.667 165.73 273.519 167.909C273.469 168.001 273.377 168.051 273.278 168.051V168.058Z" fill="#F9ACBE"/>
<path d="M266.556 159.009C268.407 157.433 272.058 157.397 274.341 158.519C276.568 159.619 276.809 162.316 274.752 163.466C272.696 164.616 268.924 164.531 267.074 163.501C265.776 162.777 264.769 160.535 266.563 159.009H266.556Z" fill="#FFE3F5"/>
<path d="M274.76 171.571C272.583 172.338 272.129 174.723 272.264 176.007C272.569 178.91 274.497 179.727 276.227 179.187C277.957 178.648 279.95 176.71 279.191 173.85C278.673 171.891 276.575 170.933 274.76 171.579V171.571Z" fill="#FFE3F5"/>
<path d="M286.373 168.399C284.657 168.725 283.573 170.67 283.608 172.735C283.665 175.716 285.338 176.959 286.969 176.788C288.6 176.618 290.167 174.836 290.131 172.047C290.103 169.974 288.472 167.994 286.373 168.392V168.399Z" fill="#FFE3F5"/>
<path d="M256.07 158.924C255.963 158.924 255.857 158.86 255.815 158.746C255.765 158.604 255.829 158.448 255.971 158.398C256.006 158.384 256.843 158.079 258.105 158.235C258.254 158.256 258.36 158.391 258.339 158.54C258.317 158.689 258.19 158.796 258.034 158.774C256.914 158.632 256.162 158.902 256.155 158.909C256.126 158.923 256.091 158.924 256.063 158.924H256.07Z" fill="#F9ACBE"/>
<path d="M266.84 143.302C266.84 142.549 267.23 141.946 267.705 141.946C268.18 141.946 268.57 142.556 268.57 143.302C268.57 144.047 268.18 144.657 267.705 144.657C267.23 144.657 266.84 144.047 266.84 143.302Z" fill="#AF6982"/>
<path d="M261.444 143.791C261.331 142.989 261.678 142.272 262.217 142.194C262.763 142.116 263.295 142.705 263.408 143.507C263.522 144.309 263.174 145.026 262.635 145.104C262.096 145.182 261.558 144.593 261.444 143.791Z" fill="#AF6982"/>
<path d="M265.046 147.141C265.131 148.589 268.003 148.256 267.882 146.879C267.776 145.693 264.975 145.885 265.046 147.141Z" fill="#AF6982"/>
<path d="M265.138 151.748C264.606 151.748 264.145 151.563 263.833 151.208C263.5 150.825 263.401 150.307 263.578 149.86C263.635 149.718 263.791 149.654 263.926 149.704C264.067 149.76 264.131 149.917 264.082 150.051C263.982 150.307 264.039 150.612 264.245 150.846C264.535 151.18 265.039 151.286 265.634 151.137C266.514 150.924 266.599 150.073 266.592 149.682C266.57 149.54 266.57 149.448 266.577 149.441C266.577 149.299 266.691 149.185 266.833 149.178C266.974 149.171 267.095 149.271 267.116 149.406C267.13 149.484 267.138 149.562 267.138 149.654C267.166 149.838 267.251 150.108 267.457 150.3C267.683 150.52 268.031 150.612 268.478 150.577C269.023 150.541 269.399 150.087 269.47 149.675C269.499 149.533 269.506 149.292 269.293 149.193C269.158 149.129 269.102 148.965 269.165 148.831C269.229 148.696 269.392 148.639 269.527 148.703C269.91 148.88 270.094 149.299 270.002 149.775C269.889 150.378 269.328 151.059 268.513 151.116C267.903 151.159 267.421 151.017 267.074 150.683C267.038 150.648 267.01 150.619 266.982 150.584C266.804 151.052 266.436 151.492 265.762 151.655C265.542 151.705 265.337 151.734 265.138 151.734V151.748Z" fill="#F9ACBE"/>
<path opacity="0.71" d="M254.063 149.853C254.063 148.341 255.396 147.113 257.034 147.113C258.672 147.113 260.005 148.341 260.005 149.853C260.005 151.365 258.672 152.592 257.034 152.592C255.396 152.592 254.063 151.365 254.063 149.853Z" fill="#FC757E"/>
<path opacity="0.71" d="M273.008 146.715C273.008 145.296 274.178 144.139 275.625 144.139C277.071 144.139 278.241 145.296 278.241 146.715C278.241 148.135 277.071 149.292 275.625 149.292C274.178 149.292 273.008 148.142 273.008 146.715Z" fill="#FC757E"/>
<g opacity="0.63">
<path d="M210.721 222.795C210.586 222.795 210.466 222.696 210.452 222.554C210.452 222.497 210.303 221.205 210.515 220.247C210.544 220.098 210.693 220.006 210.834 220.041C210.983 220.077 211.075 220.219 211.04 220.361C210.849 221.234 210.983 222.476 210.99 222.49C211.005 222.639 210.898 222.774 210.749 222.788C210.742 222.788 210.728 222.788 210.721 222.788V222.795Z" fill="#FEEBC1"/>
<path d="M252.766 234.705C252.631 234.705 252.511 234.606 252.496 234.464C252.496 234.407 252.347 233.115 252.56 232.157C252.589 232.008 252.737 231.916 252.879 231.951C253.028 231.987 253.12 232.129 253.085 232.271C252.893 233.144 253.028 234.386 253.035 234.4C253.049 234.549 252.943 234.684 252.794 234.698C252.787 234.698 252.773 234.698 252.766 234.698V234.705Z" fill="#FEEBC1"/>
<path d="M198.597 232.675C198.462 232.675 198.342 232.576 198.327 232.434C198.327 232.377 198.178 231.085 198.391 230.127C198.42 229.978 198.568 229.886 198.71 229.921C198.859 229.957 198.951 230.099 198.916 230.241C198.724 231.114 198.859 232.356 198.866 232.37C198.88 232.519 198.774 232.654 198.625 232.668C198.618 232.668 198.604 232.668 198.597 232.668V232.675Z" fill="#FEEBC1"/>
<path d="M212.479 208.919C212.338 208.919 212.217 208.806 212.21 208.664C212.21 208.614 212.153 207.393 212.245 206.393C212.26 206.244 212.394 206.13 212.536 206.144C212.685 206.158 212.798 206.286 212.784 206.435C212.699 207.4 212.749 208.621 212.749 208.635C212.749 208.784 212.642 208.912 212.494 208.919C212.494 208.919 212.486 208.919 212.479 208.919Z" fill="#FEEBC1"/>
<path d="M181.85 208.905C181.85 208.905 181.828 208.905 181.821 208.905C181.672 208.891 181.566 208.756 181.58 208.607C181.58 208.557 181.715 207.344 181.942 206.364C181.977 206.222 182.126 206.13 182.268 206.165C182.41 206.201 182.502 206.343 182.467 206.492C182.24 207.436 182.119 208.65 182.112 208.664C182.098 208.806 181.977 208.905 181.843 208.905H181.85Z" fill="#FEEBC1"/>
<path d="M170.938 215.634C170.938 215.634 170.917 215.634 170.91 215.634C170.761 215.619 170.654 215.485 170.669 215.336C170.669 215.286 170.803 214.072 171.03 213.093C171.066 212.951 171.214 212.858 171.356 212.894C171.498 212.929 171.59 213.071 171.555 213.22C171.328 214.164 171.207 215.378 171.2 215.392C171.186 215.534 171.066 215.634 170.931 215.634H170.938Z" fill="#FEEBC1"/>
<path d="M181.212 225.925C181.212 225.925 181.19 225.925 181.183 225.925C181.034 225.911 180.928 225.776 180.942 225.627C180.942 225.578 181.077 224.364 181.304 223.384C181.339 223.242 181.488 223.15 181.63 223.186C181.772 223.221 181.864 223.363 181.828 223.512C181.602 224.456 181.474 225.67 181.474 225.684C181.46 225.826 181.339 225.925 181.205 225.925H181.212Z" fill="#FEEBC1"/>
<path d="M162.82 225.925C162.82 225.925 162.798 225.925 162.791 225.925C162.642 225.911 162.536 225.776 162.55 225.627C162.55 225.578 162.685 224.364 162.912 223.384C162.947 223.242 163.096 223.15 163.238 223.186C163.38 223.221 163.472 223.363 163.436 223.512C163.21 224.456 163.089 225.67 163.082 225.684C163.068 225.826 162.947 225.925 162.813 225.925H162.82Z" fill="#FEEBC1"/>
<path d="M164.344 208.905C164.344 208.905 164.323 208.905 164.316 208.905C164.167 208.891 164.06 208.756 164.075 208.607C164.075 208.557 164.209 207.344 164.436 206.364C164.472 206.222 164.621 206.13 164.762 206.165C164.904 206.201 164.996 206.343 164.961 206.492C164.734 207.436 164.606 208.65 164.606 208.664C164.592 208.806 164.472 208.905 164.337 208.905H164.344Z" fill="#FEEBC1"/>
<path d="M171.626 198.663C171.626 198.663 171.604 198.663 171.597 198.663C171.448 198.649 171.342 198.514 171.356 198.365C171.356 198.315 171.491 197.102 171.718 196.122C171.753 195.98 171.902 195.888 172.044 195.924C172.186 195.959 172.278 196.101 172.243 196.25C172.016 197.194 171.895 198.408 171.888 198.422C171.874 198.564 171.753 198.663 171.619 198.663H171.626Z" fill="#FEEBC1"/>
<path d="M203.758 200.189C203.617 200.189 203.496 200.076 203.489 199.934C203.489 199.884 203.432 198.663 203.524 197.662C203.539 197.513 203.666 197.4 203.815 197.414C203.964 197.428 204.07 197.556 204.063 197.705C203.978 198.67 204.028 199.891 204.028 199.905C204.028 200.054 203.921 200.182 203.773 200.189C203.773 200.189 203.766 200.189 203.758 200.189Z" fill="#FEEBC1"/>
<path d="M240.287 200.189C240.145 200.189 240.025 200.076 240.018 199.934C240.018 199.884 239.961 198.663 240.053 197.662C240.067 197.513 240.202 197.4 240.344 197.414C240.493 197.428 240.599 197.556 240.592 197.705C240.507 198.67 240.556 199.891 240.556 199.905C240.556 200.054 240.45 200.182 240.301 200.189C240.301 200.189 240.294 200.189 240.287 200.189Z" fill="#FEEBC1"/>
<path d="M239.578 179.507C239.465 179.507 239.358 179.45 239.302 179.343C239.273 179.301 238.663 178.215 238.323 177.235C238.266 177.072 238.351 176.888 238.515 176.831C238.678 176.774 238.862 176.859 238.919 177.022C239.245 177.945 239.847 179.017 239.855 179.024C239.94 179.173 239.89 179.372 239.734 179.457C239.684 179.485 239.628 179.5 239.578 179.5V179.507Z" fill="#FEEBC1"/>
<path d="M220.307 179.507C220.193 179.507 220.087 179.45 220.03 179.343C220.002 179.301 219.392 178.215 219.052 177.235C218.995 177.072 219.08 176.888 219.243 176.831C219.406 176.774 219.591 176.859 219.647 177.022C219.974 177.945 220.576 179.017 220.583 179.024C220.668 179.173 220.619 179.372 220.463 179.457C220.413 179.485 220.356 179.5 220.307 179.5V179.507Z" fill="#FEEBC1"/>
<path d="M220.307 189.862C220.193 189.862 220.087 189.805 220.03 189.699C220.002 189.656 219.392 188.57 219.052 187.591C218.995 187.428 219.08 187.243 219.243 187.186C219.406 187.13 219.591 187.215 219.647 187.378C219.974 188.301 220.576 189.372 220.583 189.379C220.668 189.529 220.619 189.727 220.463 189.812C220.413 189.841 220.356 189.855 220.307 189.855V189.862Z" fill="#FEEBC1"/>
<path d="M197.866 189.862C197.753 189.862 197.647 189.805 197.59 189.699C197.562 189.656 196.952 188.57 196.611 187.591C196.555 187.428 196.64 187.243 196.803 187.186C196.966 187.13 197.15 187.215 197.207 187.378C197.533 188.301 198.136 189.372 198.143 189.379C198.228 189.529 198.178 189.727 198.022 189.812C197.973 189.841 197.916 189.855 197.866 189.855V189.862Z" fill="#FEEBC1"/>
<path d="M255.262 179.507C255.148 179.507 255.042 179.45 254.985 179.343C254.957 179.301 254.347 178.215 254.007 177.235C253.95 177.072 254.035 176.888 254.198 176.831C254.361 176.774 254.545 176.859 254.602 177.022C254.928 177.945 255.531 179.017 255.538 179.024C255.623 179.173 255.574 179.372 255.418 179.457C255.368 179.485 255.311 179.5 255.262 179.5V179.507Z" fill="#FEEBC1"/>
<path d="M301.142 181.962C301.007 181.962 300.88 181.877 300.837 181.742C300.539 180.813 299.972 179.72 299.965 179.713C299.887 179.556 299.944 179.365 300.1 179.287C300.256 179.209 300.447 179.265 300.525 179.421C300.547 179.471 301.128 180.571 301.44 181.558C301.497 181.728 301.404 181.906 301.234 181.955C301.199 181.962 301.17 181.97 301.135 181.97L301.142 181.962Z" fill="#FEEBC1"/>
<path d="M308.013 188.847C307.878 188.847 307.75 188.762 307.708 188.627C307.41 187.697 306.843 186.604 306.836 186.597C306.758 186.441 306.814 186.249 306.97 186.171C307.126 186.093 307.318 186.15 307.396 186.306C307.417 186.356 307.998 187.456 308.31 188.443C308.367 188.613 308.275 188.79 308.105 188.84C308.069 188.847 308.041 188.854 308.005 188.854L308.013 188.847Z" fill="#FEEBC1"/>
<path d="M318.073 185.944C317.939 185.944 317.811 185.859 317.769 185.724C317.471 184.794 316.904 183.701 316.897 183.694C316.819 183.538 316.875 183.346 317.031 183.268C317.187 183.19 317.379 183.247 317.457 183.403C317.478 183.453 318.059 184.553 318.371 185.54C318.428 185.71 318.336 185.887 318.166 185.937C318.13 185.944 318.102 185.951 318.066 185.951L318.073 185.944Z" fill="#FEEBC1"/>
<path d="M247.994 186.782C247.881 186.782 247.774 186.725 247.718 186.619C247.689 186.576 247.079 185.49 246.739 184.511C246.682 184.347 246.767 184.163 246.931 184.106C247.094 184.049 247.278 184.134 247.335 184.298C247.661 185.22 248.263 186.292 248.271 186.299C248.356 186.448 248.306 186.647 248.15 186.732C248.1 186.76 248.044 186.775 247.994 186.775V186.782Z" fill="#FEEBC1"/>
<path d="M269.399 186.817C269.258 186.817 269.13 186.725 269.094 186.583C268.832 185.639 268.3 184.532 268.293 184.518C268.215 184.361 268.286 184.17 268.442 184.092C268.598 184.014 268.79 184.085 268.868 184.241C268.889 184.29 269.428 185.412 269.704 186.406C269.754 186.576 269.655 186.746 269.484 186.796C269.456 186.803 269.428 186.81 269.399 186.81V186.817Z" fill="#FEEBC1"/>
<path d="M287.061 186.782C286.933 186.782 286.813 186.704 286.763 186.576C286.423 185.66 285.806 184.596 285.799 184.581C285.714 184.432 285.764 184.234 285.912 184.148C286.061 184.063 286.26 184.113 286.345 184.262C286.373 184.305 286.997 185.383 287.352 186.356C287.415 186.519 287.33 186.704 287.167 186.76C287.132 186.775 287.096 186.782 287.061 186.782Z" fill="#FEEBC1"/>
<path d="M222.235 215.463C222.115 215.463 222.001 215.378 221.973 215.257C221.959 215.208 221.675 214.023 221.994 212.66C222.03 212.511 222.172 212.426 222.321 212.461C222.469 212.497 222.554 212.638 222.519 212.788C222.228 214.03 222.491 215.123 222.498 215.137C222.533 215.279 222.448 215.428 222.299 215.463C222.278 215.463 222.257 215.47 222.235 215.47V215.463Z" fill="#FEEBC1"/>
<path d="M224.589 205.243C224.469 205.243 224.355 205.158 224.327 205.037C224.313 204.973 223.937 203.454 224.327 202.46C224.384 202.318 224.54 202.255 224.674 202.304C224.816 202.361 224.88 202.517 224.83 202.652C224.504 203.482 224.852 204.888 224.852 204.902C224.887 205.044 224.802 205.193 224.653 205.229C224.632 205.229 224.611 205.236 224.589 205.236V205.243Z" fill="#FEEBC1"/>
<path d="M235.218 214.853C235.09 214.853 234.977 214.761 234.955 214.633C234.941 214.569 234.65 213.05 234.856 211.929C234.884 211.78 235.026 211.68 235.168 211.709C235.317 211.737 235.409 211.879 235.388 212.021C235.203 213.043 235.487 214.505 235.487 214.519C235.515 214.668 235.423 214.81 235.274 214.839C235.26 214.839 235.239 214.839 235.225 214.839L235.218 214.853Z" fill="#FEEBC1"/>
<path d="M231.616 228.757C231.481 228.757 231.368 228.658 231.346 228.523C231.339 228.459 231.141 226.926 231.297 225.925C231.318 225.776 231.46 225.677 231.609 225.698C231.758 225.719 231.857 225.861 231.836 226.01C231.687 226.94 231.885 228.445 231.885 228.459C231.906 228.608 231.8 228.743 231.651 228.764C231.637 228.764 231.63 228.764 231.616 228.764V228.757Z" fill="#FEEBC1"/>
</g>
<g opacity="0.63">
<path d="M248.71 222.795C248.575 222.795 248.455 222.696 248.441 222.554C248.441 222.497 248.292 221.205 248.505 220.247C248.533 220.098 248.682 220.006 248.824 220.041C248.973 220.077 249.065 220.219 249.029 220.361C248.838 221.234 248.973 222.476 248.98 222.49C248.994 222.639 248.887 222.774 248.739 222.788C248.731 222.788 248.717 222.788 248.71 222.788V222.795Z" fill="#FEEBC1"/>
<path d="M250.469 208.919C250.327 208.919 250.206 208.806 250.199 208.664C250.199 208.614 250.142 207.393 250.235 206.393C250.249 206.244 250.376 206.13 250.525 206.144C250.674 206.158 250.78 206.286 250.773 206.435C250.688 207.4 250.738 208.621 250.738 208.635C250.738 208.784 250.632 208.912 250.483 208.919C250.483 208.919 250.476 208.919 250.469 208.919Z" fill="#FEEBC1"/>
<path d="M260.232 215.463C260.111 215.463 259.998 215.378 259.969 215.257C259.955 215.208 259.672 214.023 259.991 212.66C260.026 212.511 260.168 212.426 260.317 212.461C260.466 212.497 260.551 212.638 260.515 212.788C260.225 214.03 260.487 215.123 260.494 215.137C260.529 215.279 260.444 215.428 260.296 215.463C260.274 215.463 260.253 215.47 260.232 215.47V215.463Z" fill="#FEEBC1"/>
<path d="M262.586 205.243C262.465 205.243 262.352 205.158 262.323 205.037C262.309 204.973 261.933 203.454 262.323 202.46C262.38 202.318 262.536 202.255 262.671 202.304C262.813 202.361 262.876 202.517 262.827 202.652C262.501 203.482 262.848 204.888 262.848 204.902C262.883 205.044 262.798 205.193 262.649 205.229C262.628 205.229 262.607 205.236 262.586 205.236V205.243Z" fill="#FEEBC1"/>
<path d="M273.214 214.853C273.086 214.853 272.973 214.761 272.952 214.633C272.937 214.569 272.647 213.05 272.852 211.929C272.881 211.78 273.022 211.68 273.164 211.709C273.313 211.737 273.405 211.879 273.384 212.021C273.2 213.043 273.483 214.505 273.483 214.519C273.512 214.668 273.419 214.81 273.271 214.839C273.256 214.839 273.235 214.839 273.221 214.839L273.214 214.853Z" fill="#FEEBC1"/>
<path d="M269.612 228.757C269.477 228.757 269.364 228.658 269.343 228.523C269.336 228.459 269.137 226.926 269.293 225.925C269.314 225.776 269.456 225.677 269.605 225.698C269.754 225.719 269.853 225.861 269.832 226.01C269.683 226.94 269.881 228.445 269.881 228.459C269.903 228.608 269.796 228.743 269.647 228.764C269.633 228.764 269.626 228.764 269.612 228.764V228.757Z" fill="#FEEBC1"/>
</g>
<g opacity="0.63">
<path d="M290.712 222.795C290.578 222.795 290.457 222.696 290.443 222.554C290.443 222.497 290.294 221.205 290.507 220.247C290.535 220.098 290.684 220.006 290.826 220.041C290.975 220.077 291.067 220.219 291.031 220.361C290.84 221.234 290.975 222.476 290.982 222.49C290.996 222.639 290.89 222.774 290.741 222.788C290.734 222.788 290.72 222.788 290.712 222.788V222.795Z" fill="#FEEBC1"/>
<path d="M283.863 233.988C283.729 233.988 283.608 233.889 283.594 233.747C283.594 233.69 283.445 232.398 283.658 231.44C283.686 231.291 283.835 231.199 283.977 231.234C284.126 231.27 284.218 231.412 284.182 231.554C283.991 232.427 284.126 233.669 284.133 233.683C284.147 233.832 284.041 233.967 283.892 233.981C283.885 233.981 283.87 233.981 283.863 233.981V233.988Z" fill="#FEEBC1"/>
<path d="M292.471 208.919C292.329 208.919 292.208 208.806 292.201 208.664C292.201 208.614 292.145 207.393 292.237 206.393C292.251 206.244 292.386 206.13 292.528 206.144C292.676 206.158 292.783 206.286 292.776 206.435C292.691 207.4 292.74 208.621 292.74 208.635C292.74 208.784 292.634 208.912 292.485 208.919C292.485 208.919 292.478 208.919 292.471 208.919Z" fill="#FEEBC1"/>
<path d="M282.644 199.082C282.502 199.082 282.381 198.968 282.374 198.826C282.374 198.777 282.318 197.563 282.41 196.555C282.424 196.406 282.559 196.293 282.701 196.307C282.849 196.321 282.956 196.449 282.949 196.598C282.864 197.563 282.913 198.784 282.913 198.798C282.913 198.947 282.807 199.075 282.658 199.082C282.658 199.082 282.651 199.082 282.644 199.082Z" fill="#FEEBC1"/>
<path d="M302.234 215.463C302.113 215.463 302 215.378 301.972 215.257C301.957 215.208 301.674 214.023 301.993 212.66C302.028 212.511 302.17 212.426 302.319 212.461C302.468 212.497 302.553 212.638 302.518 212.788C302.227 214.03 302.489 215.123 302.496 215.137C302.532 215.279 302.447 215.428 302.298 215.463C302.276 215.463 302.255 215.47 302.234 215.47V215.463Z" fill="#FEEBC1"/>
<path d="M304.588 205.243C304.467 205.243 304.354 205.158 304.326 205.037C304.311 204.973 303.936 203.454 304.326 202.46C304.382 202.318 304.538 202.255 304.673 202.304C304.815 202.361 304.879 202.517 304.829 202.652C304.503 203.482 304.85 204.888 304.85 204.902C304.886 205.044 304.801 205.193 304.652 205.229C304.63 205.229 304.609 205.236 304.588 205.236V205.243Z" fill="#FEEBC1"/>
<path d="M315.216 214.853C315.089 214.853 314.975 214.761 314.954 214.633C314.94 214.569 314.649 213.05 314.855 211.929C314.883 211.78 315.025 211.68 315.167 211.709C315.315 211.737 315.408 211.879 315.386 212.021C315.202 213.043 315.486 214.505 315.486 214.519C315.514 214.668 315.422 214.81 315.273 214.839C315.259 214.839 315.237 214.839 315.223 214.839L315.216 214.853Z" fill="#FEEBC1"/>
<path d="M329.205 228.864C329.077 228.864 328.964 228.771 328.943 228.644C328.929 228.58 328.638 227.061 328.843 225.939C328.872 225.79 329.014 225.691 329.155 225.719C329.304 225.748 329.396 225.89 329.375 226.032C329.191 227.054 329.474 228.516 329.474 228.53C329.503 228.679 329.411 228.821 329.262 228.849C329.248 228.849 329.226 228.849 329.212 228.849L329.205 228.864Z" fill="#FEEBC1"/>
<path d="M325.284 204.767C325.157 204.767 325.043 204.675 325.022 204.547C325.008 204.483 324.717 202.964 324.923 201.843C324.951 201.694 325.093 201.594 325.235 201.623C325.383 201.651 325.476 201.793 325.454 201.935C325.27 202.957 325.554 204.419 325.554 204.434C325.582 204.583 325.49 204.725 325.341 204.753C325.327 204.753 325.305 204.753 325.291 204.753L325.284 204.767Z" fill="#FEEBC1"/>
<path d="M336.416 215.91C336.288 215.91 336.175 215.818 336.153 215.69C336.139 215.627 335.849 214.108 336.054 212.986C336.083 212.837 336.224 212.738 336.366 212.766C336.515 212.795 336.607 212.937 336.586 213.078C336.402 214.101 336.685 215.563 336.685 215.577C336.714 215.726 336.621 215.868 336.472 215.896C336.458 215.896 336.437 215.896 336.423 215.896L336.416 215.91Z" fill="#FEEBC1"/>
<path d="M311.614 228.757C311.48 228.757 311.366 228.658 311.345 228.523C311.338 228.459 311.139 226.926 311.295 225.925C311.316 225.776 311.458 225.677 311.607 225.698C311.756 225.719 311.855 225.861 311.834 226.01C311.685 226.94 311.884 228.445 311.884 228.459C311.905 228.608 311.799 228.743 311.65 228.764C311.636 228.764 311.628 228.764 311.614 228.764V228.757Z" fill="#FEEBC1"/>
</g>
<path d="M277.56 66.3772C272.299 66.3772 268.506 61.4656 265.542 57.64C263.77 55.3404 262.231 53.3601 260.82 52.8633C257.935 51.8483 255.914 52.771 253.574 53.8428C250.639 55.1842 247.313 56.7102 241.343 55.1558C236.473 53.8925 234.636 49.1796 232.857 44.6229C230.893 39.5836 228.858 34.3739 222.703 33.7564C214.911 32.9686 211.664 39.1222 208.225 45.645C205.779 50.2798 203.255 55.0707 198.93 56.9232C193.946 59.0524 190.798 56.8238 188.018 54.8648C186.132 53.5376 184.509 52.3878 182.587 52.7001C180.637 53.0124 179.404 53.9918 178.099 55.021C176.192 56.5328 174.221 58.0943 169.945 57.5761C164.287 56.8877 161.231 50.5424 158.537 44.9352C157.247 42.2594 156.034 39.7326 154.687 38.1996C151.326 34.3739 147.859 36.2264 147.71 36.3045C147.583 36.3755 147.413 36.3329 147.342 36.198C147.271 36.0703 147.313 35.8999 147.448 35.8289C147.491 35.8076 151.433 33.6784 155.091 37.8376C156.488 39.4275 157.715 41.9826 159.019 44.6939C161.657 50.1733 164.642 56.3766 170.009 57.0296C174.058 57.5194 175.858 56.0927 177.759 54.588C179.063 53.5589 180.41 52.4871 182.495 52.1535C184.636 51.8058 186.43 53.0762 188.323 54.4106C190.989 56.2915 194.009 58.4208 198.717 56.4121C202.865 54.6448 205.347 49.932 207.75 45.3824C211.118 38.9945 214.606 32.3866 222.76 33.2099C229.248 33.8629 231.339 39.2287 233.36 44.4171C235.168 49.0519 236.87 53.424 241.478 54.6235C247.264 56.1282 250.497 54.6448 253.347 53.3388C255.793 52.2174 257.899 51.2521 260.997 52.3452C262.564 52.8988 264.138 54.9358 265.968 57.3064C269.931 62.438 274.873 68.8259 282.63 64.3118C288.359 60.9759 288.6 57.4058 288.883 53.2679C289.011 51.3444 289.146 49.35 289.819 47.1994C291.889 40.5631 294.392 40.2224 297.044 39.8604C297.186 39.8391 297.32 39.8249 297.462 39.8036C297.611 39.7823 297.746 39.8888 297.767 40.0308C297.788 40.1798 297.682 40.3147 297.54 40.336C297.398 40.3572 297.257 40.3785 297.122 40.3927C294.541 40.7476 292.308 41.0457 290.337 47.3555C289.684 49.4493 289.55 51.4083 289.422 53.2963C289.146 57.4129 288.883 61.2953 282.899 64.7732C280.963 65.9017 279.184 66.3772 277.553 66.3772H277.56Z" fill="white"/>
<path d="M227.503 36.049C227.915 36.4535 227.659 37.3478 226.922 38.0434C226.185 38.739 225.256 38.9803 224.838 38.5686C224.426 38.1641 224.682 37.2698 225.419 36.5742C226.156 35.8786 227.085 35.6373 227.503 36.049Z" fill="#FF696F"/>
<path d="M261.82 53.1685C262.231 53.573 261.976 54.4673 261.239 55.1629C260.501 55.8585 259.572 56.0998 259.154 55.6881C258.743 55.2836 258.998 54.3893 259.735 53.6937C260.473 52.9981 261.402 52.7568 261.82 53.1685Z" fill="#FF696F"/>
<path d="M293.683 48.6331C293.499 49.1796 292.577 49.3287 291.634 48.9667C290.691 48.6047 290.074 47.8595 290.266 47.3129C290.457 46.7664 291.372 46.6174 292.315 46.9793C293.258 47.3413 293.875 48.0866 293.683 48.6331Z" fill="#FF696F"/>
<path d="M204.723 51.9406C205.254 51.7135 205.985 52.2955 206.346 53.2395C206.708 54.1835 206.573 55.1417 206.041 55.3688C205.51 55.5959 204.779 55.0139 204.418 54.0699C204.056 53.1259 204.191 52.1677 204.723 51.9406Z" fill="#FF696F"/>
<path d="M166.45 56.334C166.641 56.8806 166.01 57.569 165.046 57.8671C164.082 58.1652 163.139 57.9665 162.947 57.42C162.756 56.8735 163.387 56.185 164.351 55.8869C165.315 55.5888 166.258 55.7875 166.45 56.334Z" fill="#FF696F"/>
<path d="M219.626 28.8591C220.208 28.8236 220.69 29.6185 220.718 30.6335C220.739 31.6484 220.293 32.5001 219.711 32.5356C219.13 32.5711 218.648 31.7762 218.619 30.7612C218.598 29.7463 219.045 28.8945 219.626 28.8591Z" fill="#83C15B"/>
<path d="M247.895 51.6851C248.476 51.6496 248.958 52.4446 248.987 53.4595C249.008 54.4745 248.561 55.3262 247.98 55.3617C247.398 55.3972 246.916 54.6022 246.888 53.5873C246.867 52.5723 247.313 51.7206 247.895 51.6851Z" fill="#83C15B"/>
<path d="M284.629 58.5343C284.65 57.9523 285.494 57.5477 286.501 57.6329C287.508 57.711 288.309 58.2504 288.288 58.8324C288.266 59.4144 287.423 59.819 286.416 59.7338C285.409 59.6557 284.608 59.1163 284.629 58.5343Z" fill="#83C15B"/>
<path d="M192.272 53.3105C192.854 53.275 193.336 54.0699 193.364 55.0849C193.385 56.0998 192.939 56.9516 192.357 56.9871C191.776 57.0225 191.294 56.2276 191.265 55.2126C191.244 54.1977 191.691 53.346 192.272 53.3105Z" fill="#83C15B"/>
<path d="M162.153 44.5874C162.692 44.8075 162.784 45.7373 162.359 46.66C161.94 47.5826 161.161 48.1505 160.629 47.9304C160.09 47.7104 159.998 46.7806 160.423 45.8579C160.841 44.9352 161.621 44.3674 162.153 44.5874Z" fill="#83C15B"/>
<path d="M213.798 38.1357C214.358 37.9937 214.989 38.6822 215.202 39.6688C215.415 40.6624 215.131 41.578 214.571 41.72C214.011 41.8619 213.38 41.1735 213.167 40.1869C212.954 39.2003 213.238 38.2776 213.798 38.1357Z" fill="#F9C561"/>
<path d="M237.146 52.3097C237.16 52.8917 236.359 53.353 235.345 53.3459C234.331 53.3388 233.495 52.8633 233.48 52.2813C233.466 51.6993 234.267 51.2379 235.281 51.245C236.295 51.2521 237.132 51.7277 237.146 52.3097Z" fill="#F9C561"/>
<path d="M281.155 65.6391C281.63 65.9727 281.524 66.8954 280.914 67.7045C280.304 68.5136 279.425 68.904 278.95 68.5704C278.475 68.2368 278.581 67.3141 279.191 66.505C279.801 65.6959 280.68 65.3055 281.155 65.6391Z" fill="#F9C561"/>
<path d="M183.027 52.6149C183.566 52.8278 183.672 53.7505 183.268 54.6803C182.864 55.6101 182.091 56.1921 181.552 55.9792C181.013 55.7663 180.907 54.8436 181.311 53.9138C181.715 52.984 182.488 52.402 183.027 52.6149Z" fill="#F9C561"/>
<path d="M156.155 40.5986C156.346 41.1451 155.715 41.8336 154.751 42.1317C153.787 42.4298 152.844 42.231 152.652 41.6845C152.461 41.138 153.092 40.4495 154.056 40.1514C155.02 39.8533 155.963 40.052 156.155 40.5986Z" fill="#F9C561"/>
<path d="M208.161 44.1687C208.225 44.7436 207.459 45.2759 206.446 45.3469C205.439 45.4179 204.567 45.0133 204.503 44.4384C204.439 43.8635 205.205 43.3312 206.219 43.2602C207.225 43.1821 208.098 43.5938 208.161 44.1687Z" fill="#8199BC"/>
<path d="M173.88 56.7386C173.412 57.0864 172.576 56.6818 172.001 55.8443C171.427 55.0068 171.342 54.0486 171.81 53.7008C172.278 53.353 173.115 53.7576 173.689 54.5951C174.263 55.4327 174.341 56.3908 173.88 56.7386Z" fill="#8199BC"/>
<path d="M147.746 35.5592C147.952 36.1058 147.335 36.8013 146.378 37.1207C145.413 37.4401 144.47 37.2627 144.272 36.7162C144.066 36.1696 144.683 35.4741 145.64 35.1547C146.604 34.8353 147.547 35.0127 147.746 35.5592Z" fill="#8199BC"/>
<path d="M235.707 40.5489C235.771 41.1238 235.005 41.6561 233.991 41.7271C232.984 41.8052 232.112 41.3935 232.048 40.8186C231.984 40.2437 232.75 39.7114 233.764 39.6404C234.771 39.5694 235.643 39.974 235.707 40.5489Z" fill="#8199BC"/>
<path d="M272.023 59.599C272.569 59.7977 272.696 60.7204 272.313 61.6573C271.931 62.5942 271.179 63.1975 270.633 62.9916C270.087 62.7929 269.959 61.8702 270.342 60.9333C270.725 59.9964 271.477 59.3931 272.023 59.599Z" fill="#8199BC"/>
<path d="M300.44 41.2232C300.348 41.7981 299.469 42.1033 298.476 41.9116C297.484 41.72 296.746 41.0954 296.838 40.5205C296.931 39.9456 297.81 39.6404 298.802 39.832C299.795 40.0237 300.532 40.6483 300.44 41.2232Z" fill="#8199BC"/>
<path d="M103.22 206.598C103.22 205.392 108.09 204.412 114.096 204.412C120.101 204.412 124.972 205.392 124.972 206.598C124.972 207.805 120.101 208.785 114.096 208.785C108.09 208.785 103.22 207.805 103.22 206.598Z" fill="#D68C5B"/>
<path d="M104.432 207.493C104.432 206.57 108.948 205.818 114.528 205.818C120.108 205.818 124.625 206.57 124.625 207.493C124.625 208.415 120.108 209.168 114.528 209.168C108.948 209.168 104.432 208.415 104.432 207.493Z" fill="#AD7C73"/>
<path d="M103.212 206.414C103.212 206.414 106.864 208.309 114.975 208.131C123.086 207.954 124.972 206.598 124.972 206.598L121.385 230.915C121.385 230.915 120.853 233.215 114.613 233.144C109.679 233.087 107.899 230.915 107.899 230.915L103.212 206.414Z" fill="#EDA370"/>
<path d="M113.997 207.826L113.458 207.798C113.458 207.684 114.082 196.527 111.061 191.168L111.529 190.906C114.628 196.406 114.025 207.372 113.997 207.833V207.826Z" fill="#80A56A"/>
<path d="M114.94 207.542C114.918 207.138 114.486 197.634 116.549 192.552L117.052 192.758C115.032 197.726 115.478 207.422 115.478 207.514L114.94 207.542Z" fill="#80A56A"/>
<path d="M116.308 207.01L115.769 206.989C115.769 206.925 116.074 200.395 118.506 194.107L119.009 194.298C116.613 200.509 116.315 206.946 116.308 207.01Z" fill="#80A56A"/>
<path d="M124.71 193.773C124.71 193.773 124.887 185.738 128.319 182.275C131.75 178.804 138.429 179.897 138.429 179.897C138.429 179.897 138.72 185.745 133.615 190.763C130.134 194.185 124.703 193.773 124.703 193.773H124.71Z" fill="#80A56A"/>
<path d="M104.007 177.356C104.007 177.356 104.127 171.884 100.951 169.087C97.7743 166.291 91.308 166.17 91.308 166.17C91.308 166.17 89.8687 173.048 92.0099 176.859C95.0162 182.225 100.199 181.21 100.199 181.21L104.007 177.356Z" fill="#80A56A"/>
<path d="M111.153 181.089C111.153 181.089 104.9 177.853 103.383 167.796C102.369 161.046 107.509 155.559 107.509 155.559C107.509 155.559 112.628 160.3 113.77 167.029C114.918 173.758 111.146 181.089 111.146 181.089H111.153Z" fill="#80A56A"/>
<path d="M115.961 194.866C115.961 194.866 114.117 188.393 116.308 184.503C118.499 180.614 124.724 179.308 124.724 179.308C124.724 179.308 127.227 184.837 124.759 189.748C122.221 194.795 115.961 194.866 115.961 194.866Z" fill="#93BC7D"/>
<path d="M111.877 192.048C111.877 192.048 115.684 186.228 113.217 180.522C111.125 175.674 102.652 173.112 100.476 174.254C99.1568 174.95 97.6821 182.097 100.164 186.76C103.68 193.361 111.87 192.041 111.87 192.041L111.877 192.048Z" fill="#93BC7D"/>
<path d="M121.526 181.636C121.526 181.636 117.194 177.981 118.329 170.762C119.782 161.5 130.006 158.114 130.006 158.114C130.006 158.114 132.856 167.256 130.737 173.133C128.617 179.017 121.533 181.636 121.533 181.636H121.526Z" fill="#93BC7D"/>
<path d="M133.183 176.391C133.183 176.391 132.779 172.097 134.721 169.201C136.664 166.312 141.124 165.396 141.124 165.396C141.124 165.396 141.996 170.379 140.053 173.275C138.11 176.164 133.176 176.391 133.176 176.391H133.183Z" fill="#AFD385"/>
<path d="M117.428 159.711C115.989 159.882 113.678 155.921 113.975 152.635C114.273 149.349 118.619 146.573 118.619 146.573C118.619 146.573 122.15 150.115 121.853 153.394C121.555 156.681 118.626 159.569 117.428 159.704V159.711Z" fill="#93BC7D"/>
<path d="M111.678 207.748C111.657 207.677 109.849 200.651 106.552 197.804L106.906 197.393C110.331 200.352 112.125 207.315 112.203 207.613L111.678 207.748Z" fill="#93BC7D"/>
<path d="M119.967 207.578L119.428 207.564C119.435 207.329 119.676 201.744 125.71 195.363L126.1 195.732C120.215 201.949 119.967 207.521 119.967 207.578Z" fill="#93BC7D"/>
<path d="M117.549 207.038L117.045 206.833C117.088 206.733 121.2 196.683 126.447 190.586L126.858 190.941C121.675 196.974 117.591 206.939 117.549 207.038Z" fill="#80A56A"/>
<path d="M111.685 180.94C111.685 180.94 109.693 176.007 110.962 171.827C112.976 165.226 119.279 165.205 119.279 165.205C119.279 165.205 119.64 171.493 117.74 175.425C115.84 179.358 111.685 180.94 111.685 180.94Z" fill="#AFD385"/>
<path d="M123.228 188.641C123.228 188.641 123.214 185.696 124.171 184.312C125.128 182.928 127.199 182.26 127.199 182.26C127.199 182.26 127.766 185.107 126.801 186.491C125.844 187.875 123.228 188.641 123.228 188.641Z" fill="#AFD385"/>
<path d="M125.369 196.144C125.369 196.144 125.242 191.019 129.333 188.868C133.254 186.803 136.302 189.167 136.302 189.167C136.302 189.167 135.402 192.914 132.665 194.66C129.928 196.406 125.362 196.144 125.362 196.144H125.369Z" fill="#AFD385"/>
<path d="M121.583 179.272C121.569 179.187 120.045 170.542 129.553 158.987L129.758 159.158C120.335 170.599 121.824 179.138 121.845 179.216L121.583 179.265V179.272Z" fill="#C1DDB1"/>
<path d="M111.125 190.267C111.111 190.189 109.459 182.126 101.192 176.554L101.341 176.327C109.7 181.962 111.373 190.132 111.387 190.21L111.125 190.26V190.267Z" fill="#C1DDB1"/>
<path d="M134.225 175.496L133.977 175.397C135.891 170.571 140.507 166.553 140.556 166.518L140.734 166.724C140.691 166.766 136.125 170.734 134.232 175.504L134.225 175.496Z" fill="#D2E8C4"/>
<path d="M117.598 158.803C117.556 158.803 117.499 158.781 117.45 158.71C117.067 158.143 115.322 151.421 118.102 147.652L118.322 147.816C115.649 151.435 117.364 158.192 117.676 158.569C117.662 158.554 117.62 158.526 117.57 158.54C117.52 158.554 117.492 158.597 117.492 158.611H117.762C117.754 158.746 117.691 158.789 117.641 158.803C117.627 158.803 117.62 158.803 117.598 158.803Z" fill="#C1DDB1"/>
<path d="M125.809 195.704L125.568 195.576C125.589 195.526 128.049 190.948 135.437 189.635L135.487 189.905C128.234 191.196 125.83 195.661 125.809 195.704Z" fill="#D2E8C4"/>
<path d="M109.75 175.958C109.714 175.844 106.531 164.495 107.311 156.688L107.58 156.716C106.8 164.474 109.976 175.773 110.012 175.887L109.75 175.958Z" fill="#C1DDB1"/>
<path d="M96.6611 198.223C102.262 201.651 107.339 197.882 107.339 197.882C107.339 197.882 104.538 193.184 100.61 190.735C96.6824 188.286 92.017 188.01 92.017 188.01C92.017 188.01 91.5562 195.093 96.6682 198.223H96.6611Z" fill="#AFD385"/>
<path d="M105.098 196.527C105.049 196.484 100.313 191.949 92.5771 189.202L92.6693 188.947C100.461 191.708 105.24 196.285 105.283 196.328L105.091 196.52L105.098 196.527Z" fill="#D2E8C4"/>
</g>
<defs>
<linearGradient id="paint0_linear_2132_656" x1="-8.65657" y1="121.803" x2="-9.33866" y2="168.37" gradientUnits="userSpaceOnUse">
<stop offset="0.04" stop-color="#D89AB0"/>
<stop offset="0.24" stop-color="#C58096"/>
<stop offset="0.56" stop-color="#C17C92"/>
<stop offset="0.87" stop-color="#B57088"/>
<stop offset="1" stop-color="#AF6982"/>
</linearGradient>
<clipPath id="clip0_2132_656">
<rect width="575" height="314" fill="white" transform="translate(-198)"/>
</clipPath>
</defs>
</svg>
