<svg width="360" height="361" viewBox="0 20 360 321" fill="none" xmlns="http://www.w3.org/2000/svg">
<path d="M0 277H368V361H0V277Z" fill="#F9D3DC"/>
<path d="M363.741 281H2.2591C-3.95999 281 -9 273.059 -9 263.264V-31.253C-9 -41.0486 -3.95999 -49 2.2591 -49H363.741C369.96 -49 375 -41.0594 375 -31.2639V263.242C375 273.038 369.96 280.978 363.741 280.978V281Z" fill="#AFD6E6"/>
<path d="M344.806 -49H341.72V279.351H344.806V-49Z" fill="#7FB5C9"/>
<path d="M310.416 -49H307.33V279.351H310.416V-49Z" fill="#7FB5C9"/>
<path d="M274.061 -49H270.975V279.351H274.061V-49Z" fill="#7FB5C9"/>
<path d="M239.671 -49H236.585V279.351H239.671V-49Z" fill="#7FB5C9"/>
<path d="M203.963 -49H200.877V279.351H203.963V-49Z" fill="#7FB5C9"/>
<path d="M169.573 -49H166.487V279.351H169.573V-49Z" fill="#7FB5C9"/>
<path d="M133.207 -49H130.12V279.351H133.207V-49Z" fill="#7FB5C9"/>
<path d="M98.8168 -49H95.7304V279.351H98.8168V-49Z" fill="#7FB5C9"/>
<path d="M61.7566 -49H58.6702V279.351H61.7566V-49Z" fill="#7FB5C9"/>
<path d="M27.3667 -49H24.2802V279.351H27.3667V-49Z" fill="#7FB5C9"/>
<path d="M215.037 123.514C214.211 121.639 211.013 112.582 208.82 113.447C208.786 113.462 208.757 113.491 208.728 113.51C208.255 111.234 209.931 106.26 210.829 104.574C212.317 101.795 213.501 96.3334 211.906 93.4094C210.366 90.5772 207.076 89.1418 204.878 86.9186C203.39 85.4155 202.762 83.4002 201.502 81.7473C199.994 79.7754 198.106 79.2872 195.855 78.5381C193.285 77.6827 192.193 78.804 189.884 79.0263C186.986 79.3114 184.885 76.6919 181.981 77.0302C179.914 77.2719 178.257 78.8571 177.035 80.5438C175.813 82.2306 175.074 81.8729 173.528 83.2648C171.775 84.8404 169.417 85.6524 167.765 87.3343C166.253 88.8712 165.49 90.9687 164.77 92.9938C164.099 94.8738 161.621 100.243 161.732 102.235C161.935 105.748 163.708 111.118 166.181 114.066C164.113 115.646 162.572 118.304 161.254 120.252C158.573 124.215 154.612 127.879 155.409 133.011C155.438 133.2 155.583 133.364 155.761 133.475C154.882 135.984 154.544 139.357 157.457 140.208C159.094 140.686 160.317 139.763 161.099 138.444C161.915 139.855 163.384 139.72 164.466 138.26C164.886 140.116 165.828 141.74 167.954 141.324C170.446 140.841 171.011 137.424 171.185 134.862C172.808 136.158 174.977 137.231 175.929 134.838C176.798 132.644 174.48 130.832 173.494 129.164C170.992 124.94 171.233 119.725 171.238 114.989C171.238 114.602 171.011 114.361 170.731 114.269C170.683 113.964 170.625 113.65 170.538 113.312C170.451 112.974 170.113 112.727 169.77 112.727C169.084 112.727 168.456 112.887 167.852 113.119C170.441 107.604 175.982 98.9336 179.692 95.6568C183.856 91.9837 189.531 89.7653 195.014 90.6497C200.497 91.5342 205.487 95.9516 206.158 101.461C206.361 103.119 206.192 104.82 206.578 106.439C206.917 107.841 207.173 112.442 208.308 113.771C207.235 114.767 206.83 117.265 206.429 118.401C205.786 120.233 205.095 122.094 203.695 123.495C202.917 124.273 201.975 124.853 201.139 125.568C200.304 126.279 199.55 127.178 199.366 128.26C199.284 128.739 199.352 129.251 199.54 129.701C199.386 129.894 199.241 130.087 199.125 130.29C198.97 130.426 198.898 130.6 198.883 130.783C198.627 131.46 198.685 132.146 199.294 132.755C199.521 132.982 199.758 133.127 199.994 133.229C199.961 133.316 199.912 133.388 199.878 133.475C199.695 133.963 200.115 134.403 200.569 134.466C199.492 136.133 200.057 138.724 201.849 139.652C203.202 140.353 204.912 139.927 206.004 138.898C206.004 139.077 206.013 139.256 206.071 139.43C206.525 140.783 208.467 141.068 209.68 140.319C210.689 139.695 211.303 138.637 211.815 137.545C211.684 138.284 212.114 139.149 212.824 139.478C213.766 139.913 214.93 139.546 215.669 138.816C216.404 138.086 216.78 137.071 217.012 136.061C217.974 131.861 216.761 127.458 215.022 123.514H215.037Z" fill="#BA6453"/>
<path d="M203.96 109.097C203.975 109.054 203.98 109.01 203.994 108.967C203.574 108.208 204.096 107.125 205.042 106.69C205.269 106.424 205.593 105.801 205.83 105.569C206.318 105.09 206.941 104.68 207.602 104.423C208.24 104.177 208.854 104.124 209.399 104.235C210.25 104.351 211.027 104.796 211.515 105.632C212.414 107.173 212.293 109.165 211.617 110.779C210.907 112.466 209.201 114.38 207.081 114.578C204.429 114.829 203.313 112.538 203.207 110.537C203.173 109.88 203.497 109.397 203.96 109.097Z" fill="#FC8E82"/>
<path d="M209.066 103.549C209.023 97.769 206.917 88.8375 202.53 86.4935C199.13 84.6762 190.604 81.0128 186.614 81.4768C182.648 81.9359 178.194 88.2865 175.059 91.0124C171.552 94.0572 167.055 97.6046 167.036 103.182C167.036 103.83 167.05 104.472 167.079 105.12C166.461 104.738 165.761 104.569 164.978 104.787C163.413 105.217 162.799 106.952 162.93 108.638C163.171 111.833 165.572 114.602 168.408 114.975C168.524 114.989 168.625 114.965 168.731 114.96C169.905 118.677 171.741 122.103 174.344 124.955C174.262 126.898 174.6 128.923 174.823 130.837C175.079 133.026 176.093 137.666 175.653 139.821C175.214 141.982 172.847 141.136 170.924 142.209C177.378 149.226 184.6 148.695 191.826 147.491C195.159 146.94 200.028 144.292 201.13 140.048C200.313 139.647 199.386 139.526 198.511 139.275C197.632 139.024 196.739 138.598 196.285 137.806C196.038 137.376 195.951 136.883 195.859 136.399C195.57 134.8 195.28 133.205 194.99 131.61C207.627 127.729 209.163 116.995 209.066 103.559V103.549Z" fill="#FFA293"/>
<path d="M178.523 130.372C177.817 129.696 178.518 128.256 179.494 128.811C184.86 131.876 190.111 132.393 195.618 131.47C195.41 131.537 195.217 131.624 195.004 131.687C195.178 132.658 195.357 133.625 195.531 134.597C189.449 135.582 183.271 134.945 178.523 130.377V130.372Z" fill="#FC8E82"/>
<path d="M165.93 106.482C166.833 106.811 167.509 107.642 167.925 108.333C167.987 108.444 167.958 108.527 167.891 108.585C167.997 108.773 168.074 108.971 168.142 109.165C168.615 110.199 168.929 111.306 168.818 112.325C168.731 113.118 167.944 113.384 167.219 112.697C166.461 111.977 165.437 110.358 165.93 109.498C166.244 108.952 166.925 108.995 167.47 109.295C167.364 109.049 167.229 108.807 167.103 108.565C167.031 108.454 166.963 108.343 166.876 108.237C166.789 108.13 166.809 108.038 166.862 107.961C166.673 107.734 166.466 107.516 166.21 107.323C165.379 106.705 164.968 107.357 164.664 107.864C164.471 108.193 163.819 107.879 164.012 107.55C164.369 106.941 164.896 106.096 165.939 106.477L165.93 106.482Z" fill="#FC8E82"/>
<path d="M199.328 81.6646C192.7 77.5227 183.851 77.513 177.218 81.6501C171.499 85.2169 166.987 93.0271 166.128 100.243C165.896 100.243 165.669 100.267 165.437 100.252C165.645 100.876 165.823 101.408 165.992 101.896C165.968 102.485 165.963 103.065 165.992 103.64C166.186 103.631 166.393 103.611 166.591 103.602C167.253 105.434 167.717 106.603 168.741 109.677C168.857 107.526 170.214 109.532 170.963 107.512C171.712 105.492 173.199 103.631 175.252 102.978C177.726 102.191 181.054 102.993 182.474 100.818C183.097 99.861 183.136 98.5174 184.025 97.807C184.807 97.1787 185.942 97.2898 186.86 96.8935C188.232 96.3039 189.657 94.6703 190.671 92.8531C190.754 93.6699 190.792 94.5447 191.348 95.1198C192.203 95.9994 193.676 95.6031 194.86 95.9414C196.951 96.5455 197.632 99.2424 199.439 100.46C200.56 101.219 201.989 101.316 203.342 101.393C207.023 101.596 206.361 106.917 208.911 110.532C209.148 108.15 209.849 104.283 209.902 100.861C210.119 100.91 210.322 100.953 210.544 101.002C210.993 93.0029 205.95 85.8162 199.323 81.6694L199.328 81.6646Z" fill="#BA6453"/>
<path d="M197.12 112.084C199.096 110.46 201.859 110.253 204.009 111.669C204.709 112.128 204.038 113.254 203.337 112.79C203.168 112.805 203.047 112.834 202.907 112.809C201.149 112.505 199.429 112.65 197.734 113.186C197.13 113.375 196.623 112.495 197.12 112.084Z" fill="#48353A"/>
<path d="M177.373 113.181C179.141 111.335 181.861 110.799 184.165 111.949C184.913 112.326 184.382 113.515 183.629 113.143C183.464 113.176 183.348 113.22 183.203 113.21C181.421 113.119 179.735 113.466 178.112 114.201C177.537 114.462 176.929 113.645 177.373 113.181Z" fill="#48353A"/>
<path d="M193.178 116.395C192.889 115.868 192.188 115.467 192.077 114.863C191.956 114.211 190.923 114.288 191.039 114.945C191.179 115.714 191.691 116.1 192.135 116.7C192.449 117.125 192.372 117.444 191.971 117.763C191.652 118.014 191.159 118.29 190.758 118.169C190.116 117.975 189.937 119 190.57 119.193C191.526 119.483 192.918 118.647 193.29 117.748C193.473 117.304 193.406 116.811 193.174 116.395H193.178Z" fill="#9B5346"/>
<path d="M198.908 117.009C200.038 115.752 201.956 115.482 203.298 116.598C203.327 116.622 203.356 116.647 203.385 116.671C204.641 117.715 204.926 119.812 203.796 121.064C202.661 122.321 200.748 122.591 199.405 121.475L199.318 121.402C198.062 120.358 197.777 118.261 198.908 117.009Z" fill="#FC8E82"/>
<path d="M177.658 119.025C178.788 117.768 180.706 117.497 182.049 118.614C182.078 118.638 182.107 118.662 182.136 118.686C183.392 119.73 183.677 121.828 182.547 123.08C181.416 124.336 179.498 124.607 178.156 123.49L178.069 123.418C176.813 122.374 176.528 120.276 177.658 119.025Z" fill="#FC8E82"/>
<path d="M182.59 107.285C182.706 107.42 182.667 107.652 182.498 107.73C181.74 108.063 180.798 107.841 179.982 108.025C179.049 108.232 178.315 108.822 177.417 109.097C177.006 109.223 176.798 108.711 176.958 108.411C177.74 106.952 181.378 105.864 182.585 107.285H182.59Z" fill="#BA6453"/>
<path d="M197.961 107.251C197.864 107.401 197.937 107.628 198.115 107.676C198.912 107.894 199.811 107.536 200.646 107.599C201.598 107.667 202.414 108.14 203.342 108.285C203.767 108.348 203.897 107.812 203.695 107.536C202.704 106.207 198.951 105.666 197.961 107.251Z" fill="#BA6453"/>
<path d="M188.696 121.146C190.3 122.253 192.531 121.968 193.758 120.426C194.207 119.861 195.145 120.494 194.69 121.059C193.092 123.07 190.193 123.548 188.063 122.074C187.464 121.663 188.102 120.73 188.696 121.141V121.146Z" fill="#9B5346"/>
<path d="M137.715 179.853C138.594 172.555 138.545 173.696 140.69 166.669C142.84 159.642 144.873 154.572 150.274 149.589C156.742 143.62 167.316 140.305 175.707 137.642C176.45 142.214 181.803 144.229 186.793 144.19C191.773 144.157 195.314 141.735 196.536 138.173C196.589 138.023 198.526 138.613 198.642 138.516C202.941 139.154 206.772 140.822 210.322 143.04C212.525 144.949 214.602 147.168 216.181 149.299C217.703 151.358 230.05 173.57 228.002 174.088C223.553 175.209 217.399 175.533 212.95 176.654C214.225 187.287 217.317 212.752 214.65 222.8C195.14 225.178 168.683 225.811 149.293 222.587C149.433 212.003 153.013 189.732 153.877 176.722C148.134 175.682 143.453 180.883 137.71 179.839L137.715 179.853Z" fill="#E8D6D2"/>
<path d="M197.255 313.447C195.545 318.053 194.357 322.49 194.937 327.371C207.404 329.218 219.713 329.208 232.282 328.309C233.528 326.41 232.847 323.713 231.262 322.079C229.678 320.451 227.417 319.682 225.195 319.184C222.978 318.686 220.688 318.392 218.611 317.473C216.534 316.55 214.636 314.844 214.225 312.606C209.018 312.993 202.463 313.061 197.255 313.447Z" fill="#ACC1D4"/>
<path d="M222.471 323.762L223.514 319.673C223.857 318.32 225.968 318.837 225.625 320.195L224.582 324.284C224.239 325.637 222.128 325.12 222.471 323.762Z" fill="#F1E6E4"/>
<path d="M218.027 323.848C218.544 322.123 219.06 320.398 219.582 318.667C219.983 317.333 222.094 317.846 221.693 319.189C221.176 320.915 220.659 322.645 220.138 324.37C219.737 325.704 217.626 325.192 218.027 323.848Z" fill="#F1E6E4"/>
<path d="M213.501 321.113C214.283 319.571 215.061 318.034 215.843 316.492C216.476 315.245 218.379 316.289 217.747 317.541C216.964 319.083 216.186 320.62 215.404 322.161C214.771 323.408 212.868 322.364 213.501 321.113Z" fill="#F1E6E4"/>
<path d="M107.514 264.069C102.882 262.604 98.4472 261.643 93.6554 262.45C92.4332 274.861 93.0322 287.026 94.5297 299.403C96.4667 300.544 99.0945 299.741 100.631 298.098C102.162 296.455 102.814 294.179 103.196 291.965C103.582 289.752 103.761 287.475 104.567 285.373C105.379 283.275 106.973 281.318 109.161 280.801C108.529 275.673 108.142 269.197 107.514 264.069Z" fill="#ACC1D4"/>
<path d="M173.499 179.356C170.33 179.742 168.553 173.831 167.818 171.507C165.205 163.257 161.307 143.992 160.838 142.856C163.258 141.769 165.775 140.841 168.33 139.976C168.601 139.913 168.867 139.845 169.127 139.778C169.19 139.763 169.248 139.744 169.311 139.729C171.712 149.681 173.315 159.932 175.156 169.999C175.581 172.333 177.407 178.877 173.504 179.351L173.499 179.356Z" fill="#EF7468"/>
<path d="M208.216 141.817C208.139 142.58 208.071 143.185 208.047 143.354C206.83 152.493 205.699 161.908 203.405 170.825C202.757 173.333 201.207 179.718 198.028 179.466C194.106 179.152 195.681 172.091 196.019 169.583C196.289 167.582 198.951 148.361 200.709 138.917C203.376 139.536 205.863 140.541 208.221 141.817H208.216Z" fill="#EF7468"/>
<path d="M105.466 259.729C107.828 256.993 116.397 256.544 119.745 255.384C130.068 251.803 138.883 243.185 143.115 233.577C146.231 226.497 146.719 221.316 148.772 213.878C149.588 210.92 150.747 192.482 153.022 191.336C161.225 187.194 167.079 180.351 167.823 171.511C179.098 172.898 191.657 174.624 202.419 170.994C203.376 178.524 207.641 186.349 214.211 189.978C215.858 198.146 215.462 206.275 216.626 214.303C221.432 247.429 226.239 281.183 220.814 314.216C211.032 314.202 200.052 314.323 190.271 314.308C190.971 314.308 191.135 296.846 191.116 295.223C191.048 288.751 190.647 282.289 190.044 275.852C188.826 262.885 186.768 250.019 184.831 237.144C184.6 235.597 184.406 227.72 182.286 227.671C177.634 244.355 163.698 261.01 150.327 272.014C144.695 276.644 120.875 285.6 105.171 284.179C102.162 275.963 103.152 268.196 105.476 259.734L105.466 259.729Z" fill="#EF7468"/>
<path d="M194.85 174.145C195.333 173.135 196.806 174.082 196.323 175.087C195.777 176.218 196.381 177.823 197.603 178.214C198.854 178.615 200.144 177.721 200.482 176.527C200.791 175.45 202.458 175.977 202.149 177.059C201.516 179.273 198.985 180.66 196.801 179.775C194.589 178.876 193.874 176.18 194.85 174.145Z" fill="#E8565A"/>
<path d="M170.248 174.89C170.519 176.316 171.973 177.529 173.465 176.963C174.784 176.461 175.272 174.885 174.798 173.643C174.397 172.589 176.074 172.101 176.475 173.145C177.286 175.276 176.146 177.939 173.929 178.66C171.596 179.414 169.021 177.751 168.577 175.388C168.369 174.291 170.045 173.783 170.253 174.89H170.248Z" fill="#E8565A"/>
<path d="M170.847 173.628C170.746 173.058 170.958 172.531 171.33 172.188C171.369 172.144 171.398 172.096 171.441 172.057C171.673 171.85 171.953 171.763 172.238 171.811C172.402 171.801 172.572 171.811 172.745 171.859C173.784 172.154 174.422 173.44 173.827 174.387C173.707 174.58 173.538 174.687 173.364 174.745C173.34 174.774 173.325 174.812 173.296 174.841C173.079 175.068 172.837 175.165 172.586 175.18C172.345 175.266 172.055 175.252 171.842 175.136C171.736 175.078 171.644 175.001 171.552 174.928C171.093 174.58 170.857 174.165 170.842 173.628H170.847Z" fill="#E8565A"/>
<path d="M197.405 173.372C197.787 172.633 198.661 172.111 199.492 172.449C199.647 172.512 199.767 172.604 199.869 172.715C200.386 173.063 200.589 173.686 200.463 174.29C200.429 174.812 200.173 175.315 199.661 175.615C199.308 175.823 198.908 175.876 198.521 175.769C198.41 175.755 198.294 175.765 198.183 175.726C197.207 175.378 196.961 174.232 197.4 173.377L197.405 173.372Z" fill="#E8565A"/>
<path d="M199.067 197.745C189.401 199.973 179.421 200.466 169.731 198.518C169.804 198.262 169.963 198.025 170.214 197.909C169.958 197.692 169.804 197.344 169.91 196.928C170.91 193.081 171.547 189.185 171.852 185.213C171.919 184.343 172.905 184.217 173.369 184.696C173.518 184.56 173.712 184.459 173.958 184.459C175.967 184.444 177.711 182.743 177.948 180.708C178.011 180.186 178.397 179.945 178.793 179.935C178.938 179.838 179.102 179.771 179.315 179.785C183.315 180.061 187.295 180.036 191.295 179.698C191.961 179.64 192.328 180.254 192.29 180.776C193.034 183.27 195.565 184.594 197.864 184.029C198.763 183.811 199.106 184.942 198.623 185.522C198.787 189.538 198.946 193.559 199.11 197.576C199.11 197.643 199.081 197.687 199.072 197.75L199.067 197.745Z" fill="#E8565A"/>
<path d="M234.47 283.966C206.187 233.809 177.904 183.656 149.612 133.509C145.521 126.254 141.511 118.947 137.323 111.75C135.261 108.203 129.744 111.412 131.816 114.969C160.862 164.894 188.609 215.627 216.983 265.939C220.978 273.019 224.973 280.104 228.963 287.185C230.977 290.761 236.489 287.547 234.47 283.966Z" fill="#5275AB"/>
<path d="M134.425 188.224C136.082 181.883 137.869 176.006 139.526 169.66L153.877 176.731C152.158 181.332 151.52 186.063 149.96 190.684C149.791 191.182 150.187 191.684 150.709 191.626C156.24 190.969 161.51 189.983 167.07 189.364C168.408 187.668 170.287 186.407 172.364 185.807C172.388 185.861 172.417 185.919 172.441 185.972C173.441 185.45 174.605 185.194 175.827 185.111C179.822 185.029 181.59 184.357 182.759 186.701C183.054 187.286 182.682 187.823 182.073 187.9C181.774 187.939 181.474 187.963 181.17 187.992C181.89 188.069 184.01 188.403 184.464 189.002C184.836 189.49 185.957 191.003 184.735 191.269C184.237 191.375 183.769 191.423 183.3 191.443C184.657 191.776 185.276 191.94 186.15 192.917C186.527 193.337 186.416 194.111 185.797 194.251C184.744 194.483 184.894 194.719 184.199 194.357C184.909 194.797 185.493 195.444 185.855 196.411C186.049 196.919 185.561 197.402 185.087 197.421C182.373 197.542 179.658 197.643 176.948 197.851C176.277 198.518 175.436 198.992 174.315 199.229C172.803 199.543 171.712 199.161 170.615 198.586C163.679 201.249 156.409 203.032 149.028 203.873C146.308 204.183 143.526 204.361 140.864 203.738C138.202 203.11 135.642 201.573 134.348 199.166C132.58 195.875 133.478 191.849 134.425 188.234V188.224Z" fill="#FFA293"/>
<path d="M196.227 220.571C197.212 219.74 198.294 218.918 199.424 218.29C200.043 217.947 200.647 217.666 201.328 217.458C201.859 217.294 204.009 217.318 204.298 217.028C206.173 219.01 207.453 221.436 209.172 223.548C209.438 223.872 210.134 223.031 210.409 223.345C210.066 223.553 209.317 224.916 208.97 225.114C208.742 226.264 208.375 227.294 207.245 228.222C206.404 228.908 205.559 229.246 204.67 229.343C202.912 231.218 201.221 233.151 199.521 235.08C199.222 235.418 198.584 235.491 198.323 235.046C197.826 234.205 197.695 233.393 197.797 232.605C197.652 233.33 197.569 233.084 196.772 233.717C196.304 234.089 195.671 233.717 195.584 233.185C195.386 231.962 195.632 231.411 196.193 230.213C195.898 230.546 195.584 230.865 195.212 231.165C194.29 231.909 193.845 230.189 193.705 229.623C193.531 228.937 194.55 227.173 194.922 226.603C194.719 226.806 194.521 227.013 194.319 227.212C193.903 227.613 193.285 227.564 193.029 227.004C191.894 224.524 194.541 221.997 196.231 220.571H196.227Z" fill="#FFA293"/>
<path d="M213.433 176.025C214.09 182.424 217.138 187.151 215.665 193.409C213.346 203.254 206.462 211.843 202.274 221.639C204.332 223.539 205.636 224.36 207.694 226.264C207.694 226.264 225.64 211.21 229.214 200.214C231.977 191.723 229.905 182.501 227.818 173.816C223.567 173.304 217.573 174.923 213.438 176.025H213.433Z" fill="#FFA293"/>
<path d="M220.766 307.605C211.109 307.542 200.762 307.503 191.116 307.445C190.58 307.445 190.372 308.219 190.28 308.745L189.512 313.187C189.396 313.849 189.903 314.458 190.575 314.463L220.935 314.767C221.543 314.772 222.036 314.284 222.036 313.675C222.036 312.293 222.036 310.756 222.036 309.374C222.036 308.774 221.36 307.605 220.761 307.6L220.766 307.605Z" fill="#F29188"/>
<path d="M109.48 285.697C108.427 285.731 107.244 285.721 106.229 285.769C105.606 285.798 105.036 285.426 104.833 284.841C101.901 276.408 101.457 267.119 103.587 258.443C103.857 257.336 109.548 255.896 110.417 257.09C111.021 257.921 110.359 260.115 110.277 261.082C110.132 262.701 110.016 264.32 109.925 265.944C109.582 271.903 110.398 278.201 110.847 284.208C110.905 285.001 110.287 285.677 109.49 285.706L109.48 285.697Z" fill="#F29188"/>
<path d="M173.76 225.11C177.218 226.366 182.45 228.836 185.933 226.646C186.454 226.318 186.938 227.144 186.416 227.473C185.145 228.27 183.691 228.517 182.184 228.449C182.233 228.594 182.213 228.759 182.049 228.889C180.252 230.339 177.615 230.624 175.422 230.073C174.823 229.923 175.079 229 175.678 229.15C177.421 229.59 179.643 229.435 181.16 228.357C178.479 228.005 175.702 226.83 173.513 226.033C172.939 225.825 173.19 224.897 173.77 225.11H173.76Z" fill="#E8565A"/>
<path d="M202.366 181.211C203.071 183.618 204.767 185.793 206.448 187.601C208.1 189.379 210.375 191.617 212.959 191.704C213.573 191.723 213.578 192.68 212.959 192.661C210.274 192.569 207.945 190.52 206.163 188.688C204.202 186.668 202.25 184.203 201.444 181.463C201.27 180.873 202.192 180.617 202.366 181.206V181.211Z" fill="#E8565A"/>
<path d="M179.585 176.185H190.638C191.251 176.185 191.256 177.142 190.638 177.142H179.585C178.972 177.142 178.967 176.185 179.585 176.185Z" fill="#E8565A"/>
<path d="M160.756 188.746C163.65 187.929 165.707 184.648 167.06 182.164C167.355 181.622 168.181 182.106 167.886 182.647C166.408 185.363 164.166 188.785 161.012 189.669C160.418 189.838 160.167 188.915 160.756 188.746Z" fill="#E8565A"/>
<path d="M173.248 139.531C175.228 151.256 196.009 150.69 198.149 139.371C198.265 138.767 199.188 139.023 199.072 139.627C196.753 151.879 174.46 152.425 172.325 139.787C172.224 139.183 173.146 138.927 173.248 139.531Z" fill="#DFC5BF"/>
<path d="M141.782 166.359C144.555 167.824 147.327 169.351 150.308 170.347C151.684 170.806 153.085 171.246 154.216 172.135C154.245 171.995 154.269 171.85 154.303 171.71C154.81 169.52 156.08 167.582 156.365 165.34C156.442 164.736 157.399 164.731 157.322 165.34C157.085 167.2 156.225 168.771 155.631 170.526C155.365 171.304 155.182 172.116 155.017 172.937C155.114 173.14 155.056 173.363 154.911 173.503C154.65 174.982 154.481 176.485 154.288 177.939C154.211 178.544 153.249 178.548 153.332 177.939C153.539 176.378 153.713 174.788 153.989 173.227C152.457 171.748 150.172 171.434 148.25 170.651C145.864 169.685 143.569 168.389 141.289 167.186C140.743 166.896 141.226 166.074 141.772 166.359H141.782Z" fill="#DFC5BF"/>
<path d="M210.868 162.019C211.414 165.349 212.312 168.538 213.008 171.791C216.756 169.665 221.331 169.35 225.553 169.326C226.166 169.326 226.166 170.278 225.553 170.283C221.384 170.312 216.863 170.578 213.206 172.767C213.525 174.357 213.786 175.967 213.916 177.62C213.964 178.233 213.008 178.229 212.959 177.62C212.534 172.308 210.8 167.47 209.95 162.275C209.853 161.671 210.771 161.415 210.873 162.019H210.868Z" fill="#DFC5BF"/>
<path d="M227.475 293.599C229.581 291.521 232.214 289.872 234.528 288.084C236.996 286.18 239.658 284.503 242.305 282.836C240.74 279.467 237.165 277.113 233.446 277.108C229.528 277.104 225.736 279.689 224.311 283.343C222.886 286.992 223.925 291.467 226.804 294.116C227.021 293.937 227.248 293.778 227.47 293.604L227.475 293.599Z" fill="#5275AB"/>
<path d="M260.526 294.115C258.405 293.033 256.284 291.945 254.164 290.863C255.685 292.312 257.207 293.762 258.729 295.207C254.681 298.146 250.633 301.084 246.59 304.028C244.918 302.621 243.252 301.21 241.58 299.804C242.643 301.843 243.706 303.883 244.768 305.922C241.01 308.663 237.252 311.408 233.489 314.148C232.233 312.418 231.441 311.625 229.717 308.953C230.639 312.022 231.441 316.333 231.04 316.531C231.04 316.531 225.722 320.547 223.239 321.896C221.993 318.44 221.012 314.892 220.307 311.292C219.853 308.982 219.514 306.599 219.93 304.284C220.621 300.427 223.186 297.242 225.958 294.618C229.847 290.935 234.19 287.876 238.643 284.928C241.947 282.738 244.913 280.438 249.068 280.143C252.526 279.896 255.966 281.119 258.912 282.956C261.854 284.792 264.375 287.223 266.873 289.635C265.032 291.138 262.366 292.612 260.521 294.115H260.526Z" fill="#EB8F4A"/>
<path d="M230.75 309.417C230.591 308.17 229.973 307.223 229.533 306.068C228.987 304.627 228.688 303.032 228.325 301.539C228.142 300.785 226.982 301.104 227.166 301.858C227.499 303.216 227.799 304.613 228.229 305.942C228.606 307.116 229.393 308.18 229.548 309.417C229.581 309.702 229.779 309.881 230.002 309.953C229.91 309.61 229.813 309.272 229.717 308.948C229.958 309.32 230.18 309.654 230.388 309.963C230.615 309.905 230.789 309.726 230.75 309.417Z" fill="#FF9C47"/>
<path d="M249.502 301.801C248.517 300.177 246.503 299.099 245.116 297.818C243.16 296.011 241.136 294.28 239.194 292.458C238.629 291.932 237.779 292.777 238.344 293.309C240.107 294.962 241.938 296.533 243.72 298.161C244.541 298.915 245.343 299.684 246.193 300.404C246.937 301.032 247.957 301.564 248.469 302.405C248.512 302.472 248.56 302.521 248.614 302.559C248.923 302.332 249.232 302.11 249.507 301.796L249.502 301.801Z" fill="#FF9C47"/>
<path d="M237.996 301.505C236.629 299.548 234.856 297.494 234.035 295.227C233.774 294.507 232.61 294.817 232.876 295.546C233.74 297.939 235.504 300.046 236.958 302.11C238.344 304.082 239.382 306.295 240.948 308.136C241.117 308.335 241.319 308.364 241.503 308.301C241.6 308.228 241.701 308.156 241.798 308.088C241.967 307.871 242.025 307.556 241.798 307.291C240.305 305.536 239.315 303.395 237.996 301.505Z" fill="#FF9C47"/>
<path d="M237.445 311.258C236.46 309.349 235.441 307.469 234.484 305.541C233.301 303.168 231.731 301.085 230.47 298.794C230.098 298.117 229.06 298.721 229.432 299.403C230.692 301.699 232.262 303.777 233.446 306.15C234.426 308.117 235.465 310.031 236.465 311.978C236.793 311.737 237.117 311.5 237.445 311.263V311.258Z" fill="#FF9C47"/>
<path d="M227.074 319.412C225.306 315.328 225.21 310.761 223.92 306.551C223.693 305.812 222.534 306.131 222.761 306.87C224.099 311.215 224.224 315.903 226.074 320.108C226.408 319.881 226.746 319.649 227.079 319.412H227.074Z" fill="#FF9C47"/>
</svg>
