<svg width="360" height="312" viewBox="0 0 360 312" fill="none" xmlns="http://www.w3.org/2000/svg">
<path d="M0 228H368V312H0V228Z" fill="#F9D3DC"/>
<path d="M356.946 232H2.05385C-4.05187 232 -9 226.418 -9 219.531V12.4766C-9 5.59009 -4.05187 0 2.05385 0H356.946C363.052 0 368 5.58246 368 12.469V219.516C368 226.402 363.052 231.985 356.946 231.985V232Z" fill="#AFD6E6"/>
<path d="M338.357 0H335.326V230.841H338.357V0Z" fill="#7FB5C9"/>
<path d="M304.594 0H301.563V230.841H304.594V0Z" fill="#7FB5C9"/>
<path d="M268.901 0H265.871V230.841H268.901V0Z" fill="#7FB5C9"/>
<path d="M235.138 0H232.108V230.841H235.138V0Z" fill="#7FB5C9"/>
<path d="M200.081 0H197.051V230.841H200.081V0Z" fill="#7FB5C9"/>
<path d="M166.318 0H163.288V230.841H166.318V0Z" fill="#7FB5C9"/>
<path d="M130.615 0H127.584V230.841H130.615V0Z" fill="#7FB5C9"/>
<path d="M96.8514 0H93.8213V230.841H96.8514V0Z" fill="#7FB5C9"/>
<path d="M60.4668 0H57.4366V230.841H60.4668V0Z" fill="#7FB5C9"/>
<path d="M26.7037 0H23.6736V230.841H26.7037V0Z" fill="#7FB5C9"/>
<path d="M215.037 74.5144C214.211 72.6392 211.013 63.5821 208.82 64.4472C208.786 64.4617 208.757 64.4907 208.728 64.51C208.255 62.2337 209.931 57.2605 210.829 55.5737C212.317 52.7947 213.501 47.3334 211.906 44.4094C210.366 41.5772 207.076 40.1418 204.878 37.9186C203.39 36.4156 202.762 34.4002 201.502 32.7473C199.994 30.7754 198.106 30.2873 195.855 29.5381C193.285 28.6827 192.193 29.8039 189.884 30.0263C186.986 30.3114 184.885 27.6919 181.981 28.0302C179.914 28.2719 178.257 29.8571 177.035 31.5438C175.813 33.2306 175.074 32.8729 173.528 34.2648C171.775 35.8404 169.417 36.6524 167.765 38.3343C166.253 39.8712 165.49 41.9687 164.77 43.9938C164.099 45.8738 161.621 51.2433 161.732 53.2345C161.935 56.7482 163.708 62.1177 166.181 65.0658C164.113 66.6462 162.572 69.3044 161.254 71.2521C158.573 75.2152 154.612 78.8786 155.409 84.0113C155.438 84.1998 155.583 84.3642 155.761 84.4753C154.882 86.9837 154.544 90.3571 157.457 91.2077C159.094 91.6862 160.317 90.7631 161.099 89.4437C161.915 90.8549 163.384 90.7196 164.466 89.26C164.886 91.1159 165.828 92.7398 167.954 92.3242C170.446 91.8409 171.011 88.4239 171.185 85.8624C172.808 87.1577 174.977 88.2306 175.929 85.8382C176.798 83.644 174.48 81.8316 173.494 80.1642C170.992 75.9402 171.233 70.7253 171.238 65.9889C171.238 65.6023 171.011 65.3606 170.731 65.2688C170.683 64.9643 170.625 64.6502 170.538 64.3119C170.451 63.9735 170.113 63.7271 169.77 63.7271C169.084 63.7271 168.456 63.8866 167.852 64.1185C170.441 58.604 175.982 49.9336 179.692 46.6568C183.856 42.9837 189.531 40.7653 195.014 41.6497C200.497 42.5342 205.487 46.9516 206.158 52.4613C206.361 54.119 206.192 55.8202 206.578 57.4393C206.917 58.8409 207.173 63.4419 208.308 64.771C207.235 65.7666 206.83 68.2653 206.429 69.4011C205.786 71.2328 205.095 73.0935 203.695 74.4951C202.917 75.2732 201.975 75.8532 201.139 76.5685C200.304 77.2789 199.55 78.1778 199.366 79.2605C199.284 79.7389 199.352 80.2512 199.54 80.7007C199.386 80.894 199.241 81.0873 199.125 81.2903C198.97 81.4257 198.898 81.5997 198.883 81.7833C198.627 82.4599 198.685 83.1462 199.294 83.7552C199.521 83.9823 199.758 84.1273 199.994 84.2288C199.961 84.3158 199.912 84.3883 199.878 84.4753C199.695 84.9634 200.115 85.4033 200.569 85.4661C199.492 87.1335 200.057 89.724 201.849 90.6519C203.202 91.3527 204.912 90.9274 206.004 89.898C206.004 90.0768 206.013 90.2556 206.071 90.4296C206.525 91.7829 208.467 92.068 209.68 91.3189C210.689 90.6954 211.303 89.637 211.815 88.5447C211.684 89.2842 212.114 90.1493 212.824 90.478C213.766 90.9129 214.93 90.5456 215.669 89.8158C216.404 89.086 216.78 88.0711 217.012 87.061C217.974 82.8611 216.761 78.4582 215.022 74.5144H215.037Z" fill="#BA6453"/>
<path d="M203.96 60.097C203.975 60.0536 203.98 60.0101 203.994 59.9666C203.574 59.2078 204.095 58.1252 205.042 57.6902C205.269 57.4244 205.593 56.8009 205.83 56.5689C206.318 56.0905 206.941 55.6796 207.602 55.4235C208.24 55.177 208.854 55.1238 209.399 55.235C210.25 55.351 211.027 55.7956 211.515 56.6318C212.414 58.1735 212.293 60.1647 211.617 61.7789C210.907 63.4657 209.201 65.3796 207.081 65.5777C204.429 65.829 203.313 63.5382 203.207 61.5373C203.173 60.88 203.497 60.3967 203.96 60.097Z" fill="#FC8E82"/>
<path d="M209.066 54.5493C209.023 48.769 206.917 39.8375 202.53 37.4935C199.13 35.6762 190.604 32.0128 186.614 32.4768C182.648 32.9359 178.194 39.2865 175.059 42.0124C171.552 45.0572 167.055 48.6046 167.036 54.182C167.036 54.8296 167.05 55.4724 167.079 56.12C166.461 55.7382 165.761 55.569 164.978 55.7865C163.413 56.2167 162.799 57.9517 162.93 59.6385C163.171 62.8331 165.572 65.6024 168.408 65.9746C168.524 65.9891 168.625 65.9649 168.731 65.9601C169.905 69.6767 171.741 73.1033 174.344 75.9548C174.262 77.8977 174.6 79.9227 174.823 81.8366C175.079 84.026 176.093 88.6657 175.653 90.8212C175.214 92.9816 172.847 92.1358 170.924 93.2088C177.378 100.226 184.6 99.6947 191.826 98.4913C195.159 97.9403 200.028 95.2918 201.13 91.0484C200.313 90.6472 199.386 90.5264 198.511 90.2751C197.632 90.0238 196.739 89.5985 196.285 88.8059C196.038 88.3757 195.951 87.8828 195.859 87.3994C195.57 85.7997 195.28 84.2048 194.99 82.6099C207.627 78.729 209.163 67.9948 209.066 54.5589V54.5493Z" fill="#FFA293"/>
<path d="M178.523 81.3725C177.817 80.6958 178.518 79.2556 179.494 79.8114C184.86 82.8755 190.111 83.3927 195.618 82.4696C195.41 82.5372 195.217 82.6242 195.004 82.687C195.178 83.6585 195.357 84.6251 195.531 85.5965C189.449 86.5825 183.271 85.9445 178.523 81.3773V81.3725Z" fill="#FC8E82"/>
<path d="M165.93 57.4822C166.833 57.8108 167.509 58.6421 167.925 59.3332C167.987 59.4444 167.958 59.5266 167.891 59.5846C167.997 59.773 168.074 59.9712 168.142 60.1645C168.615 61.1988 168.929 62.3056 168.818 63.3253C168.731 64.118 167.944 64.3838 167.219 63.6975C166.461 62.9774 165.437 61.3583 165.93 60.498C166.244 59.9519 166.925 59.9954 167.47 60.295C167.364 60.0485 167.229 59.8069 167.103 59.5652C167.031 59.4541 166.963 59.3429 166.876 59.2366C166.789 59.1303 166.809 59.0384 166.862 58.9611C166.673 58.7339 166.466 58.5165 166.21 58.3231C165.379 57.7045 164.968 58.357 164.664 58.8644C164.471 59.1931 163.819 58.8789 164.012 58.5503C164.369 57.9413 164.896 57.0955 165.939 57.4774L165.93 57.4822Z" fill="#FC8E82"/>
<path d="M199.328 32.6646C192.7 28.5227 183.851 28.513 177.218 32.6501C171.499 36.2169 166.987 44.0271 166.128 51.2428C165.896 51.2428 165.669 51.267 165.437 51.2525C165.645 51.8759 165.823 52.4076 165.992 52.8957C165.968 53.4854 165.963 54.0653 165.992 54.6404C166.186 54.6308 166.393 54.6115 166.591 54.6018C167.253 56.4335 167.717 57.6031 168.741 60.6769C168.857 58.5262 170.214 60.5319 170.963 58.5117C171.712 56.4915 173.199 54.6308 175.252 53.9783C177.726 53.1905 181.054 53.9928 182.474 51.818C183.097 50.861 183.136 49.5174 184.025 48.807C184.807 48.1787 185.942 48.2898 186.86 47.8935C188.232 47.3039 189.657 45.6703 190.671 43.8531C190.754 44.6699 190.792 45.5447 191.348 46.1198C192.203 46.9994 193.676 46.6031 194.86 46.9414C196.951 47.5455 197.632 50.2424 199.439 51.4603C200.56 52.2191 201.989 52.3158 203.342 52.3931C207.023 52.5961 206.361 57.9173 208.911 61.5324C209.148 59.1497 209.849 55.2832 209.902 51.8615C210.119 51.9098 210.322 51.9533 210.544 52.0016C210.993 44.0029 205.95 36.8162 199.323 32.6694L199.328 32.6646Z" fill="#BA6453"/>
<path d="M197.12 63.0844C199.096 61.4605 201.859 61.2527 204.009 62.6687C204.709 63.1279 204.038 64.254 203.337 63.79C203.168 63.8045 203.047 63.8335 202.907 63.8093C201.149 63.5049 199.429 63.6498 197.734 64.1863C197.13 64.3748 196.623 63.4952 197.12 63.0844Z" fill="#48353A"/>
<path d="M177.373 64.1813C179.141 62.3351 181.861 61.7986 184.165 62.9489C184.913 63.3259 184.382 64.5148 183.629 64.1427C183.464 64.1765 183.348 64.22 183.203 64.2103C181.421 64.1185 179.735 64.4665 178.112 65.2011C177.537 65.4621 176.929 64.6453 177.373 64.1813Z" fill="#48353A"/>
<path d="M193.178 67.3951C192.889 66.8683 192.188 66.4672 192.077 65.863C191.956 65.2106 190.923 65.2879 191.039 65.9452C191.179 66.7136 191.691 67.1003 192.135 67.6996C192.449 68.1249 192.372 68.4439 191.971 68.7628C191.652 69.0142 191.159 69.2896 190.758 69.1688C190.116 68.9755 189.937 70.0001 190.57 70.1934C191.526 70.4834 192.918 69.6473 193.29 68.7484C193.473 68.3037 193.406 67.8107 193.174 67.3951H193.178Z" fill="#9B5346"/>
<path d="M198.908 68.009C200.038 66.7524 201.956 66.4818 203.298 67.5982C203.327 67.6224 203.356 67.6465 203.385 67.6707C204.641 68.7146 204.926 70.8122 203.796 72.0639C202.661 73.3205 200.748 73.5912 199.405 72.4747L199.318 72.4022C198.062 71.3583 197.777 69.2607 198.908 68.009Z" fill="#FC8E82"/>
<path d="M177.658 70.0246C178.788 68.768 180.706 68.4974 182.049 69.6138C182.078 69.638 182.107 69.6621 182.136 69.6863C183.392 70.7302 183.677 72.8278 182.547 74.0795C181.416 75.3361 179.498 75.6068 178.156 74.4904L178.069 74.4179C176.813 73.3739 176.528 71.2764 177.658 70.0246Z" fill="#FC8E82"/>
<path d="M182.59 58.2851C182.706 58.4204 182.667 58.6524 182.498 58.7297C181.74 59.0632 180.798 58.8409 179.982 59.0245C179.049 59.2324 178.315 59.822 177.417 60.0975C177.006 60.2231 176.798 59.7108 176.958 59.4112C177.74 57.9516 181.378 56.8642 182.585 58.2851H182.59Z" fill="#BA6453"/>
<path d="M197.961 58.2511C197.864 58.4009 197.937 58.6281 198.115 58.6764C198.912 58.8939 199.811 58.5363 200.646 58.5991C201.598 58.6668 202.414 59.1404 203.342 59.2854C203.767 59.3482 203.897 58.8117 203.695 58.5363C202.704 57.2072 198.951 56.6659 197.961 58.2511Z" fill="#BA6453"/>
<path d="M188.696 72.1461C190.3 73.2529 192.531 72.9677 193.758 71.426C194.207 70.8605 195.145 71.4937 194.69 72.0591C193.092 74.0697 190.193 74.5481 188.063 73.0741C187.464 72.6633 188.102 71.7305 188.696 72.1413V72.1461Z" fill="#9B5346"/>
<path d="M137.715 130.853C138.594 123.555 138.545 124.696 140.69 117.669C142.84 110.642 144.873 105.572 150.274 100.589C156.742 94.6201 167.316 91.3046 175.707 88.6416C176.45 93.2137 181.803 95.229 186.793 95.1904C191.773 95.1565 195.314 92.7352 196.536 89.1732C196.589 89.0234 198.526 89.613 198.642 89.5164C202.941 90.1543 206.772 91.8217 210.322 94.0401C212.525 95.9492 214.602 98.1675 216.181 100.299C217.703 102.358 230.05 124.57 228.002 125.088C223.553 126.209 217.399 126.533 212.95 127.654C214.225 138.287 217.317 163.752 214.65 173.8C195.14 176.178 168.683 176.811 149.293 173.587C149.433 163.003 153.013 140.732 153.877 127.722C148.134 126.682 143.453 131.883 137.71 130.839L137.715 130.853Z" fill="#E8D6D2"/>
<path d="M197.255 264.447C195.545 269.053 194.357 273.49 194.937 278.371C207.404 280.218 219.713 280.208 232.282 279.309C233.528 277.41 232.847 274.713 231.262 273.079C229.678 271.451 227.417 270.682 225.195 270.184C222.978 269.686 220.688 269.392 218.611 268.473C216.534 267.55 214.636 265.844 214.225 263.606C209.018 263.993 202.463 264.061 197.255 264.447Z" fill="#ACC1D4"/>
<path d="M222.471 274.762L223.514 270.673C223.857 269.32 225.968 269.837 225.625 271.195L224.582 275.284C224.239 276.637 222.128 276.12 222.471 274.762Z" fill="#F1E6E4"/>
<path d="M218.027 274.848C218.544 273.123 219.06 271.398 219.582 269.667C219.983 268.333 222.094 268.846 221.693 270.189C221.176 271.915 220.659 273.645 220.138 275.37C219.737 276.704 217.626 276.192 218.027 274.848Z" fill="#F1E6E4"/>
<path d="M213.501 272.113C214.283 270.571 215.061 269.034 215.843 267.492C216.476 266.245 218.379 267.289 217.747 268.541C216.964 270.083 216.186 271.62 215.404 273.161C214.771 274.408 212.868 273.364 213.501 272.113Z" fill="#F1E6E4"/>
<path d="M107.514 215.069C102.882 213.604 98.4472 212.643 93.6554 213.45C92.4332 225.861 93.0322 238.026 94.5297 250.403C96.4667 251.544 99.0945 250.741 100.631 249.098C102.162 247.455 102.814 245.179 103.196 242.965C103.582 240.752 103.761 238.475 104.567 236.373C105.379 234.275 106.973 232.318 109.161 231.801C108.529 226.673 108.142 220.197 107.514 215.069Z" fill="#ACC1D4"/>
<path d="M173.499 130.356C170.33 130.742 168.553 124.831 167.818 122.507C165.205 114.257 161.307 94.9922 160.838 93.8565C163.258 92.769 165.775 91.8411 168.33 90.976C168.601 90.9132 168.867 90.8455 169.127 90.7778C169.19 90.7633 169.248 90.744 169.311 90.7295C171.712 100.681 173.315 110.932 175.156 120.999C175.581 123.333 177.407 129.877 173.504 130.351L173.499 130.356Z" fill="#EF7468"/>
<path d="M208.216 92.8168C208.139 93.5804 208.071 94.1846 208.047 94.3537C206.83 103.493 205.699 112.908 203.405 121.825C202.757 124.333 201.207 130.718 198.028 130.466C194.106 130.152 195.681 123.091 196.019 120.583C196.289 118.582 198.951 99.3608 200.709 89.917C203.376 90.5356 205.863 91.5409 208.221 92.8168H208.216Z" fill="#EF7468"/>
<path d="M105.466 210.729C107.828 207.993 116.397 207.544 119.745 206.384C130.068 202.803 138.883 194.185 143.115 184.577C146.231 177.497 146.719 172.316 148.772 164.878C149.588 161.92 150.747 143.482 153.022 142.336C161.225 138.195 167.079 131.351 167.823 122.511C179.098 123.898 191.657 125.624 202.419 121.994C203.376 129.524 207.641 137.349 214.211 140.978C215.858 149.146 215.462 157.275 216.626 165.303C221.432 198.429 226.239 232.183 220.814 265.216C211.032 265.202 200.052 265.323 190.271 265.308C190.971 265.308 191.135 247.847 191.116 246.223C191.048 239.751 190.647 233.289 190.044 226.852C188.826 213.885 186.768 201.019 184.831 188.144C184.6 186.597 184.406 178.72 182.286 178.671C177.634 195.355 163.698 212.01 150.327 223.014C144.695 227.644 120.875 236.6 105.171 235.179C102.162 226.963 103.152 219.196 105.476 210.734L105.466 210.729Z" fill="#EF7468"/>
<path d="M194.85 125.145C195.333 124.135 196.806 125.082 196.323 126.087C195.777 127.218 196.381 128.823 197.603 129.214C198.854 129.615 200.144 128.721 200.482 127.527C200.791 126.45 202.458 126.977 202.149 128.059C201.516 130.273 198.985 131.66 196.801 130.775C194.589 129.876 193.874 127.18 194.85 125.145Z" fill="#E8565A"/>
<path d="M170.248 125.89C170.519 127.316 171.973 128.529 173.465 127.963C174.784 127.461 175.272 125.885 174.798 124.643C174.397 123.589 176.074 123.101 176.475 124.145C177.286 126.276 176.146 128.939 173.929 129.66C171.596 130.414 169.021 128.751 168.577 126.388C168.369 125.291 170.045 124.783 170.253 125.89H170.248Z" fill="#E8565A"/>
<path d="M170.847 124.628C170.746 124.058 170.958 123.531 171.33 123.188C171.369 123.144 171.398 123.096 171.441 123.057C171.673 122.85 171.953 122.763 172.238 122.811C172.402 122.801 172.572 122.811 172.745 122.859C173.784 123.154 174.422 124.44 173.827 125.387C173.707 125.58 173.538 125.687 173.364 125.745C173.34 125.774 173.325 125.812 173.296 125.841C173.079 126.068 172.837 126.165 172.586 126.18C172.344 126.267 172.055 126.252 171.842 126.136C171.736 126.078 171.644 126.001 171.552 125.928C171.093 125.58 170.857 125.165 170.842 124.628H170.847Z" fill="#E8565A"/>
<path d="M197.405 124.372C197.787 123.633 198.661 123.111 199.492 123.449C199.647 123.512 199.767 123.604 199.869 123.715C200.386 124.063 200.589 124.686 200.463 125.29C200.429 125.812 200.173 126.315 199.661 126.615C199.308 126.823 198.908 126.876 198.521 126.769C198.41 126.755 198.294 126.765 198.183 126.726C197.207 126.378 196.961 125.232 197.4 124.377L197.405 124.372Z" fill="#E8565A"/>
<path d="M199.067 148.745C189.401 150.973 179.421 151.466 169.731 149.518C169.804 149.262 169.963 149.025 170.214 148.909C169.958 148.692 169.804 148.344 169.91 147.928C170.91 144.081 171.547 140.185 171.852 136.213C171.919 135.343 172.905 135.217 173.369 135.696C173.518 135.56 173.712 135.459 173.958 135.459C175.967 135.444 177.711 133.743 177.948 131.708C178.011 131.186 178.397 130.945 178.793 130.935C178.938 130.838 179.102 130.771 179.315 130.785C183.315 131.061 187.295 131.036 191.295 130.698C191.961 130.64 192.328 131.254 192.29 131.776C193.034 134.27 195.565 135.594 197.864 135.029C198.763 134.811 199.106 135.942 198.623 136.522C198.787 140.538 198.946 144.559 199.11 148.576C199.11 148.643 199.081 148.687 199.072 148.75L199.067 148.745Z" fill="#E8565A"/>
<path d="M234.47 234.966C206.187 184.809 177.904 134.656 149.612 84.5086C145.521 77.2542 141.511 69.9466 137.323 62.7502C135.261 59.2028 129.744 62.4119 131.816 65.969C160.862 115.894 188.609 166.627 216.983 216.939C220.978 224.019 224.973 231.104 228.963 238.185C230.977 241.761 236.489 238.547 234.47 234.966Z" fill="#5275AB"/>
<path d="M134.425 139.224C136.082 132.883 137.869 127.006 139.526 120.66L153.877 127.731C152.158 132.332 151.52 137.063 149.96 141.684C149.791 142.182 150.187 142.684 150.709 142.626C156.24 141.969 161.51 140.983 167.07 140.364C168.408 138.668 170.287 137.407 172.364 136.807C172.388 136.861 172.417 136.919 172.441 136.972C173.441 136.45 174.605 136.194 175.827 136.111C179.822 136.029 181.59 135.357 182.759 137.701C183.054 138.286 182.682 138.823 182.073 138.9C181.774 138.939 181.474 138.963 181.17 138.992C181.89 139.069 184.01 139.403 184.464 140.002C184.836 140.49 185.957 142.003 184.735 142.269C184.237 142.375 183.769 142.423 183.3 142.443C184.657 142.776 185.276 142.94 186.15 143.917C186.527 144.337 186.416 145.111 185.797 145.251C184.744 145.483 184.894 145.719 184.199 145.357C184.909 145.797 185.493 146.444 185.855 147.411C186.049 147.919 185.561 148.402 185.087 148.421C182.373 148.542 179.658 148.643 176.948 148.851C176.277 149.518 175.436 149.992 174.315 150.229C172.803 150.543 171.712 150.161 170.615 149.586C163.679 152.249 156.409 154.032 149.028 154.873C146.308 155.183 143.526 155.361 140.864 154.738C138.202 154.11 135.642 152.573 134.348 150.166C132.58 146.875 133.478 142.849 134.425 139.234V139.224Z" fill="#FFA293"/>
<path d="M196.227 171.571C197.212 170.74 198.294 169.918 199.424 169.29C200.043 168.947 200.647 168.666 201.328 168.458C201.859 168.294 204.009 168.318 204.298 168.028C206.173 170.01 207.453 172.436 209.172 174.548C209.438 174.872 210.134 174.031 210.409 174.345C210.066 174.553 209.317 175.916 208.97 176.114C208.742 177.264 208.375 178.294 207.245 179.222C206.405 179.908 205.559 180.246 204.67 180.343C202.912 182.218 201.221 184.151 199.521 186.08C199.222 186.418 198.584 186.491 198.323 186.046C197.826 185.205 197.695 184.393 197.797 183.605C197.652 184.33 197.569 184.084 196.772 184.717C196.304 185.089 195.671 184.717 195.584 184.185C195.386 182.962 195.632 182.411 196.193 181.213C195.898 181.546 195.584 181.865 195.212 182.165C194.29 182.909 193.845 181.189 193.705 180.623C193.531 179.937 194.55 178.173 194.922 177.603C194.719 177.806 194.521 178.013 194.319 178.212C193.903 178.613 193.285 178.564 193.029 178.004C191.894 175.524 194.541 172.997 196.231 171.571H196.227Z" fill="#FFA293"/>
<path d="M213.433 127.025C214.09 133.424 217.138 138.151 215.665 144.409C213.346 154.254 206.462 162.843 202.274 172.639C204.332 174.539 205.636 175.36 207.694 177.264C207.694 177.264 225.64 162.21 229.214 151.214C231.977 142.723 229.905 133.501 227.818 124.816C223.567 124.304 217.573 125.923 213.438 127.025H213.433Z" fill="#FFA293"/>
<path d="M220.766 258.605C211.109 258.542 200.762 258.503 191.116 258.445C190.58 258.445 190.372 259.219 190.28 259.745L189.512 264.187C189.396 264.849 189.903 265.458 190.575 265.463L220.935 265.767C221.543 265.772 222.036 265.284 222.036 264.675C222.036 263.293 222.036 261.756 222.036 260.374C222.036 259.774 221.36 258.605 220.761 258.6L220.766 258.605Z" fill="#F29188"/>
<path d="M109.48 236.697C108.427 236.731 107.244 236.721 106.229 236.769C105.606 236.798 105.036 236.426 104.833 235.841C101.901 227.408 101.457 218.119 103.587 209.443C103.857 208.336 109.548 206.896 110.417 208.09C111.021 208.921 110.359 211.115 110.277 212.082C110.132 213.701 110.016 215.32 109.925 216.944C109.582 222.903 110.398 229.201 110.847 235.208C110.905 236.001 110.287 236.677 109.49 236.706L109.48 236.697Z" fill="#F29188"/>
<path d="M173.76 176.11C177.219 177.366 182.45 179.836 185.933 177.646C186.454 177.318 186.938 178.144 186.416 178.473C185.145 179.27 183.691 179.517 182.184 179.449C182.233 179.594 182.213 179.758 182.049 179.889C180.252 181.339 177.615 181.624 175.422 181.073C174.823 180.923 175.079 180 175.678 180.15C177.421 180.59 179.643 180.435 181.16 179.357C178.479 179.005 175.702 177.83 173.513 177.033C172.939 176.825 173.19 175.897 173.77 176.11H173.76Z" fill="#E8565A"/>
<path d="M202.366 132.211C203.071 134.618 204.767 136.793 206.448 138.601C208.1 140.379 210.375 142.617 212.959 142.704C213.573 142.723 213.578 143.68 212.959 143.661C210.274 143.569 207.945 141.52 206.163 139.688C204.202 137.668 202.25 135.203 201.444 132.463C201.27 131.873 202.192 131.617 202.366 132.206V132.211Z" fill="#E8565A"/>
<path d="M179.585 127.185H190.638C191.251 127.185 191.256 128.142 190.638 128.142H179.585C178.972 128.142 178.967 127.185 179.585 127.185Z" fill="#E8565A"/>
<path d="M160.756 139.746C163.65 138.929 165.707 135.648 167.06 133.164C167.355 132.622 168.181 133.106 167.886 133.647C166.408 136.363 164.166 139.785 161.012 140.669C160.418 140.838 160.167 139.915 160.756 139.746Z" fill="#E8565A"/>
<path d="M173.248 90.5307C175.228 102.256 196.009 101.69 198.149 90.3712C198.265 89.7671 199.188 90.0232 199.072 90.6273C196.753 102.879 174.46 103.425 172.325 90.7868C172.224 90.1827 173.146 89.9265 173.248 90.5307Z" fill="#DFC5BF"/>
<path d="M141.782 117.359C144.555 118.824 147.327 120.351 150.308 121.347C151.684 121.806 153.085 122.246 154.216 123.135C154.245 122.995 154.269 122.85 154.303 122.71C154.81 120.52 156.08 118.582 156.365 116.34C156.442 115.736 157.399 115.731 157.322 116.34C157.085 118.2 156.225 119.771 155.631 121.526C155.365 122.304 155.182 123.116 155.017 123.937C155.114 124.14 155.056 124.363 154.911 124.503C154.65 125.982 154.481 127.485 154.288 128.939C154.211 129.544 153.249 129.548 153.332 128.939C153.539 127.378 153.713 125.788 153.989 124.227C152.457 122.748 150.172 122.434 148.25 121.651C145.864 120.685 143.569 119.389 141.289 118.186C140.743 117.896 141.226 117.074 141.772 117.359H141.782Z" fill="#DFC5BF"/>
<path d="M210.868 113.019C211.414 116.349 212.312 119.538 213.008 122.791C216.756 120.665 221.331 120.35 225.553 120.326C226.166 120.326 226.166 121.278 225.553 121.283C221.384 121.312 216.863 121.578 213.206 123.767C213.525 125.357 213.786 126.967 213.916 128.62C213.964 129.233 213.008 129.229 212.96 128.62C212.534 123.308 210.8 118.47 209.95 113.275C209.853 112.671 210.771 112.415 210.873 113.019H210.868Z" fill="#DFC5BF"/>
<path d="M227.475 244.599C229.581 242.521 232.214 240.872 234.528 239.084C236.996 237.18 239.658 235.503 242.305 233.836C240.74 230.467 237.165 228.113 233.446 228.108C229.528 228.104 225.736 230.689 224.311 234.343C222.886 237.992 223.925 242.467 226.804 245.116C227.021 244.937 227.248 244.778 227.47 244.604L227.475 244.599Z" fill="#5275AB"/>
<path d="M260.526 245.115C258.405 244.033 256.284 242.945 254.164 241.863C255.685 243.312 257.207 244.762 258.729 246.207C254.681 249.146 250.633 252.084 246.59 255.028C244.918 253.621 243.252 252.21 241.58 250.804C242.643 252.843 243.706 254.883 244.768 256.922C241.01 259.663 237.252 262.408 233.489 265.148C232.233 263.418 231.441 262.625 229.717 259.953C230.639 263.022 231.441 267.333 231.04 267.531C231.04 267.531 225.722 271.547 223.239 272.896C221.993 269.44 221.012 265.892 220.307 262.292C219.853 259.982 219.514 257.599 219.93 255.284C220.621 251.427 223.186 248.242 225.958 245.618C229.847 241.935 234.19 238.876 238.643 235.928C241.947 233.738 244.913 231.438 249.068 231.143C252.526 230.896 255.966 232.119 258.912 233.956C261.854 235.792 264.375 238.223 266.873 240.635C265.032 242.138 262.366 243.612 260.521 245.115H260.526Z" fill="#EB8F4A"/>
<path d="M230.75 260.417C230.591 259.17 229.973 258.223 229.533 257.068C228.987 255.627 228.688 254.032 228.325 252.539C228.142 251.785 226.982 252.104 227.166 252.858C227.499 254.216 227.799 255.613 228.229 256.942C228.606 258.116 229.393 259.18 229.548 260.417C229.581 260.702 229.779 260.881 230.002 260.953C229.91 260.61 229.813 260.272 229.717 259.948C229.958 260.32 230.18 260.654 230.388 260.963C230.615 260.905 230.789 260.726 230.75 260.417Z" fill="#FF9C47"/>
<path d="M249.502 252.801C248.517 251.177 246.503 250.099 245.116 248.818C243.16 247.011 241.136 245.28 239.194 243.458C238.629 242.932 237.779 243.777 238.344 244.309C240.107 245.962 241.938 247.533 243.72 249.161C244.541 249.915 245.343 250.684 246.193 251.404C246.937 252.032 247.957 252.564 248.469 253.405C248.512 253.472 248.56 253.521 248.614 253.559C248.923 253.332 249.232 253.11 249.507 252.796L249.502 252.801Z" fill="#FF9C47"/>
<path d="M237.996 252.505C236.629 250.548 234.856 248.494 234.035 246.227C233.774 245.507 232.61 245.817 232.876 246.546C233.74 248.939 235.504 251.046 236.958 253.11C238.344 255.082 239.382 257.295 240.948 259.136C241.117 259.335 241.319 259.364 241.503 259.301C241.6 259.228 241.701 259.156 241.798 259.088C241.967 258.871 242.025 258.556 241.798 258.291C240.305 256.536 239.315 254.395 237.996 252.505Z" fill="#FF9C47"/>
<path d="M237.445 262.258C236.46 260.349 235.441 258.469 234.484 256.541C233.301 254.168 231.731 252.085 230.47 249.794C230.098 249.117 229.06 249.721 229.432 250.403C230.692 252.699 232.262 254.777 233.446 257.15C234.426 259.117 235.465 261.031 236.465 262.978C236.793 262.737 237.117 262.5 237.445 262.263V262.258Z" fill="#FF9C47"/>
<path d="M227.074 270.412C225.306 266.328 225.21 261.761 223.92 257.551C223.693 256.812 222.534 257.131 222.761 257.87C224.099 262.215 224.224 266.903 226.074 271.108C226.408 270.881 226.746 270.649 227.079 270.412H227.074Z" fill="#FF9C47"/>
</svg>
