<svg width="360" height="314" viewBox="0 0 360 314" fill="none" xmlns="http://www.w3.org/2000/svg">
<path d="M360.11 0H-182.11C-191.438 0 -199 7.55671 -199 16.8784V297.118C-199 306.44 -191.438 313.996 -182.11 313.996H360.11C369.438 313.996 377 306.44 377 297.118V16.8784C377 7.55671 369.438 0 360.11 0Z" fill="#AFD6E6"/>
<g opacity="0.63">
<path d="M358.455 0H356.559V214.841H358.455V0Z" fill="#7FB5C9"/>
<path d="M337.325 0H335.429V214.841H337.325V0Z" fill="#7FB5C9"/>
<path d="M314.981 0H313.084V214.841H314.981V0Z" fill="#7FB5C9"/>
<path d="M293.851 0H291.954V214.841H293.851V0Z" fill="#7FB5C9"/>
<path d="M271.918 0H270.022V214.841H271.918V0Z" fill="#7FB5C9"/>
<path d="M250.781 0H248.885V214.841H250.781V0Z" fill="#7FB5C9"/>
<path d="M228.444 0H226.547V214.841H228.444V0Z" fill="#7FB5C9"/>
<path d="M207.314 0H205.417V214.841H207.314V0Z" fill="#7FB5C9"/>
<path d="M10.6166 0H8.72025V214.841H10.6166V0Z" fill="#7FB5C9"/>
<path d="M184.536 0H182.64V214.841H184.536V0Z" fill="#7FB5C9"/>
<path d="M163.406 0H161.51V214.841H163.406V0Z" fill="#7FB5C9"/>
<path d="M141.061 0H139.165V214.841H141.061V0Z" fill="#7FB5C9"/>
<path d="M119.931 0H118.035V214.841H119.931V0Z" fill="#7FB5C9"/>
<path d="M97.9989 0H96.1025V214.841H97.9989V0Z" fill="#7FB5C9"/>
<path d="M76.8689 0H74.9725V214.841H76.8689V0Z" fill="#7FB5C9"/>
<path d="M54.5244 0H52.628V214.841H54.5244V0Z" fill="#7FB5C9"/>
<path d="M33.3944 0H31.498V214.841H33.3944V0Z" fill="#7FB5C9"/>
</g>
<path d="M377 218.042V297.118C377 306.444 369.436 313.996 360.11 313.996H-182.11C-191.443 313.996 -199 306.437 -199 297.118V218.042H377Z" fill="#F9D3DC"/>
<path d="M376.972 214.919H-198.695V221.598H376.972V214.919Z" fill="#FDF5F3"/>
<path d="M142.837 235.098C142.837 235.098 143.427 239.044 147.986 240.443C152.546 241.841 156.928 241.727 156.928 241.727C156.928 241.727 162.547 245.333 180.559 250.521C198.571 255.71 203.244 258.371 212.726 261.757C222.208 265.143 234.261 265.412 234.261 265.412L253.267 247.952C253.267 247.952 345.252 249.464 345.451 247.86C345.657 246.256 342.922 243.53 342.922 243.53L142.837 235.091V235.098Z" fill="#E5B1C0"/>
<path d="M274.369 227.929H274.319L155.387 227.482C151.871 227.468 148.576 226.084 146.111 223.578C143.647 221.073 142.304 217.765 142.34 214.252L143.277 126.78C143.356 119.639 149.229 113.833 156.375 113.833H274.369C281.592 113.833 287.466 119.703 287.466 126.922V214.841C287.466 218.347 286.095 221.641 283.609 224.111C281.137 226.574 277.856 227.929 274.369 227.929ZM156.367 115.459C150.11 115.459 144.961 120.548 144.897 126.801L143.959 214.273C143.924 217.354 145.096 220.25 147.262 222.443C149.421 224.636 152.312 225.85 155.387 225.857L274.319 226.304H274.361C277.416 226.304 280.292 225.119 282.458 222.961C284.632 220.796 285.832 217.907 285.832 214.841V126.922C285.832 120.598 280.683 115.459 274.361 115.459H156.367Z" fill="#8C6767"/>
<path d="M286.805 145.447H143.91V151.104H286.805V145.447Z" fill="#8C6767"/>
<path d="M192.043 114.87H191.184V147.037H192.043V114.87Z" fill="#8C6767"/>
<path d="M239.176 114.87H238.316V147.037H239.176V114.87Z" fill="#8C6767"/>
<path d="M168.371 114.323H167.44V148.932H168.371V114.323Z" fill="#8C6767"/>
<path d="M179.493 145.66C177.135 145.66 174.813 144.964 172.859 143.58C168.598 140.563 166.9 134.85 168.214 127.901C169.237 122.5 171.808 118.61 175.274 117.226C177.554 116.318 180.019 116.63 182.05 118.085C185.196 120.349 185.978 124.239 185.118 126.914C184.337 129.363 182.363 130.776 179.699 130.79C179.692 130.79 179.678 130.79 179.671 130.79C176.794 130.79 176.056 128.781 176.027 128.696C175.949 128.469 176.07 128.22 176.297 128.142C176.524 128.064 176.773 128.185 176.851 128.405C176.879 128.476 177.441 129.917 179.671 129.917H179.699C181.958 129.903 183.627 128.71 184.287 126.645C185.047 124.267 184.344 120.803 181.539 118.788C179.735 117.489 177.625 117.219 175.601 118.028C172.419 119.299 170.04 122.954 169.081 128.057C167.838 134.651 169.401 140.045 173.371 142.856C176.78 145.269 181.411 145.418 185.182 143.232C189.572 140.691 191.752 135.652 191.156 129.406C191.134 129.164 191.312 128.951 191.546 128.93C191.788 128.909 192.001 129.086 192.022 129.321C192.654 135.921 190.317 141.266 185.623 143.992C183.712 145.099 181.588 145.645 179.5 145.645L179.493 145.66Z" fill="#8C6767"/>
<path d="M156.573 145.66C154.478 145.66 152.362 145.113 150.451 144.006C145.749 141.287 143.419 135.936 144.052 129.335C144.073 129.094 144.286 128.916 144.527 128.944C144.769 128.966 144.947 129.179 144.918 129.42C144.322 135.666 146.495 140.705 150.891 143.246C154.663 145.425 159.294 145.276 162.703 142.87C166.673 140.059 168.243 134.665 166.993 128.071C166.027 122.968 163.655 119.32 160.473 118.042C158.448 117.233 156.339 117.503 154.535 118.802C151.729 120.818 151.026 124.281 151.786 126.659C152.447 128.724 154.123 129.917 156.374 129.931H156.403C158.64 129.931 159.201 128.476 159.223 128.419C159.308 128.192 159.556 128.079 159.784 128.157C160.011 128.235 160.132 128.483 160.046 128.71C160.018 128.795 159.279 130.804 156.403 130.804C156.396 130.804 156.382 130.804 156.374 130.804C153.718 130.79 151.744 129.377 150.955 126.929C150.103 124.253 150.877 120.356 154.024 118.099C156.048 116.644 158.519 116.332 160.799 117.24C164.265 118.624 166.837 122.514 167.859 127.915C169.173 134.857 167.476 140.571 163.214 143.594C161.261 144.978 158.939 145.674 156.58 145.674L156.573 145.66Z" fill="#8C6767"/>
<path d="M170.53 130.804H165.771C165.487 130.804 165.26 130.577 165.26 130.293C165.26 130.009 165.487 129.782 165.771 129.782H170.53C170.814 129.782 171.041 130.009 171.041 130.293C171.041 130.577 170.814 130.804 170.53 130.804Z" fill="#8C6767"/>
<path d="M215.61 114.323H214.679V148.932H215.61V114.323Z" fill="#8C6767"/>
<path d="M226.725 145.66C224.367 145.66 222.044 144.964 220.091 143.58C215.83 140.563 214.132 134.85 215.446 127.901C216.469 122.5 219.04 118.61 222.506 117.226C224.786 116.318 227.251 116.63 229.282 118.085C232.428 120.349 233.21 124.239 232.35 126.914C231.569 129.363 229.594 130.783 226.931 130.79C224.012 130.804 223.287 128.781 223.259 128.696C223.181 128.469 223.302 128.22 223.529 128.142C223.756 128.064 224.005 128.185 224.083 128.405C224.104 128.469 224.665 129.917 226.902 129.917H226.931C229.189 129.903 230.859 128.71 231.519 126.645C232.279 124.267 231.576 120.803 228.77 118.788C226.966 117.489 224.857 117.219 222.833 118.028C219.651 119.299 217.271 122.954 216.313 128.057C215.07 134.651 216.632 140.045 220.603 142.856C224.012 145.269 228.65 145.418 232.414 143.232C236.803 140.691 238.984 135.652 238.387 129.406C238.366 129.164 238.544 128.951 238.778 128.93C239.019 128.909 239.232 129.086 239.254 129.321C239.886 135.921 237.549 141.266 232.854 143.992C230.944 145.099 228.82 145.645 226.732 145.645L226.725 145.66Z" fill="#8C6767"/>
<path d="M204.366 145.617C202.505 145.617 200.602 145.163 198.805 144.24C193.784 141.656 190.992 136.234 191.141 129.37C191.141 129.129 191.347 128.93 191.589 128.944C191.83 128.944 192.022 129.15 192.015 129.392C191.873 135.907 194.494 141.039 199.203 143.466C202.924 145.383 207.172 145.134 210.283 142.813C212.484 141.174 215.922 137.078 214.217 128.071C213.251 122.968 210.879 119.32 207.697 118.042C205.673 117.233 203.564 117.503 201.76 118.802C198.954 120.818 198.251 124.281 199.011 126.659C199.671 128.724 201.348 129.917 203.599 129.931H203.628C205.865 129.931 206.426 128.476 206.447 128.419C206.532 128.192 206.781 128.079 207.008 128.157C207.236 128.235 207.356 128.483 207.271 128.71C207.243 128.795 206.504 130.804 203.628 130.804C203.62 130.804 203.606 130.804 203.599 130.804C200.943 130.79 198.968 129.377 198.18 126.929C197.328 124.253 198.102 120.356 201.248 118.099C203.272 116.644 205.744 116.332 208.024 117.24C211.49 118.624 214.061 122.514 215.084 127.915C216.874 137.391 213.173 141.756 210.808 143.523C208.933 144.921 206.682 145.631 204.359 145.631L204.366 145.617Z" fill="#8C6767"/>
<path d="M217.769 130.804H213.01C212.726 130.804 212.499 130.577 212.499 130.293C212.499 130.009 212.726 129.782 213.01 129.782H217.769C218.053 129.782 218.28 130.009 218.28 130.293C218.28 130.577 218.053 130.804 217.769 130.804Z" fill="#8C6767"/>
<path d="M262.82 114.323H261.889V148.932H262.82V114.323Z" fill="#8C6767"/>
<path d="M273.935 145.66C271.577 145.66 269.255 144.964 267.302 143.58C263.04 140.563 261.343 134.85 262.657 127.901C263.679 122.5 266.25 118.61 269.716 117.226C271.996 116.318 274.461 116.63 276.492 118.085C279.639 120.349 280.42 124.239 279.561 126.914C278.779 129.363 276.805 130.776 274.141 130.79C271.251 130.804 270.498 128.781 270.469 128.696C270.391 128.469 270.512 128.22 270.739 128.142C270.967 128.064 271.215 128.185 271.293 128.405C271.315 128.469 271.876 129.917 274.113 129.917H274.141C276.4 129.903 278.069 128.71 278.73 126.645C279.49 124.267 278.786 120.803 275.981 118.788C274.177 117.489 272.067 117.219 270.043 118.028C266.861 119.299 264.482 122.954 263.523 128.057C262.28 134.651 263.843 140.045 267.813 142.856C271.222 145.269 275.86 145.418 279.625 143.232C284.014 140.691 286.194 135.652 285.598 129.406C285.576 129.164 285.754 128.951 285.988 128.93C286.23 128.909 286.443 129.086 286.464 129.321C287.096 135.921 284.76 141.266 280.065 143.992C278.154 145.099 276.031 145.645 273.942 145.645L273.935 145.66Z" fill="#8C6767"/>
<path d="M251.704 145.539C249.865 145.539 247.983 145.092 246.2 144.19C241.214 141.656 238.288 136.12 238.38 129.37C238.38 129.129 238.579 128.937 238.82 128.937C239.062 128.937 239.254 129.136 239.254 129.377C239.169 135.879 241.846 140.989 246.598 143.402C250.312 145.29 254.517 145.035 257.578 142.735C259.752 141.11 263.132 137.036 261.442 128.057C260.476 122.954 258.104 119.306 254.922 118.028C252.898 117.219 250.788 117.489 248.984 118.788C246.179 120.803 245.476 124.267 246.236 126.645C246.896 128.71 248.572 129.903 250.824 129.917C253.097 129.931 253.643 128.462 253.672 128.405C253.757 128.178 254.006 128.064 254.233 128.142C254.46 128.22 254.581 128.469 254.496 128.696C254.467 128.781 253.729 130.79 250.852 130.79C250.845 130.79 250.831 130.79 250.824 130.79C248.167 130.776 246.193 129.363 245.405 126.914C244.552 124.239 245.326 120.342 248.473 118.085C250.497 116.63 252.969 116.318 255.249 117.226C258.715 118.61 261.286 122.5 262.309 127.901C264.091 137.348 260.448 141.692 258.111 143.438C256.257 144.829 254.02 145.532 251.712 145.532L251.704 145.539Z" fill="#8C6767"/>
<path d="M264.979 130.804H260.22C259.936 130.804 259.709 130.577 259.709 130.293C259.709 130.009 259.936 129.782 260.22 129.782H264.979C265.263 129.782 265.49 130.009 265.49 130.293C265.49 130.577 265.263 130.804 264.979 130.804Z" fill="#8C6767"/>
<path d="M339.769 197.26C339.769 197.26 338.376 194.485 336.04 192.015C333.703 189.545 330.407 187.373 330.407 187.373C330.407 187.373 323.823 186.287 317.822 188.757C311.82 191.227 306.401 197.253 306.401 197.253C306.401 197.253 318.078 197.963 326.416 197.963C334.754 197.963 339.761 197.26 339.761 197.26H339.769Z" fill="#FFE1F9"/>
<path d="M192.86 196.501C206.44 188.807 324.413 186.564 339.669 197.246C344.875 200.887 344.03 220.668 344.03 220.668L343.874 247.122H189.131V211.626C189.131 211.626 187.903 199.311 192.853 196.508L192.86 196.501Z" fill="#EFC7E5"/>
<path d="M156.346 240.592L213.195 260.508C213.195 260.508 227.506 269.529 233.252 267.535C240.767 264.923 241.271 259.642 252.308 249.137C265.704 236.383 283.552 219.788 296.891 208.801C321.224 188.764 330.592 187.38 330.592 187.38C330.592 187.38 329.406 185.861 327.659 184.654C325.912 183.448 323.717 183.058 323.717 183.058C323.717 183.058 235.546 157.882 180.899 175.271C138.86 188.651 156.346 240.592 156.346 240.592Z" fill="#E57F97"/>
<path d="M147.07 180.509C147.07 180.509 190.431 192.1 192.725 196.6C196.234 203.492 189.472 247.32 189.472 247.32L143.377 233.955L147.07 180.509Z" fill="#F28CA0"/>
<path d="M164.251 184.988C168.335 180.935 173.761 177.55 180.899 175.278C235.546 157.896 323.717 183.065 323.717 183.065C323.717 183.065 325.912 183.455 327.659 184.662C329.406 185.868 330.592 187.387 330.592 187.387C330.592 187.387 320.67 190.645 313.155 195.038C313.155 195.038 275.391 193.548 244.694 194.094C213.997 194.634 192.732 196.614 192.732 196.614C192.732 196.614 190.523 194.549 179.01 190.169C167.497 185.79 164.258 184.995 164.258 184.995L164.251 184.988Z" fill="#F79AB0"/>
<path opacity="0.22" d="M102.729 30.6125H-157.408C-158.255 30.6125 -158.942 31.2989 -158.942 32.1456V33.4374C-158.942 34.2841 -158.255 34.9705 -157.408 34.9705H102.729C103.577 34.9705 104.263 34.2841 104.263 33.4374V32.1456C104.263 31.2989 103.577 30.6125 102.729 30.6125Z" fill="#6598AE"/>
<path opacity="0.42" d="M180.154 60.1674H145.792V97.544H180.154V60.1674Z" fill="#6598AE"/>
<path opacity="0.24" d="M297.842 60.1674H265.547V93.2854H297.842V60.1674Z" fill="#6598AE"/>
<path d="M172.092 170.097C172.092 170.097 167.22 151.636 183.485 144.034C197.477 137.49 244.169 134.388 264.361 143.956C276.357 149.641 277.217 166.08 277.217 166.08C277.217 166.08 251.08 164.248 230.44 164.447C209.807 164.653 197.853 167.222 197.853 167.222L172.085 170.104L172.092 170.097Z" fill="#F3AB72"/>
<path d="M186.532 168.635C186.397 168.635 186.276 168.528 186.262 168.394C186.248 168.28 185.047 157.009 179.671 146.227C179.607 146.093 179.657 145.929 179.791 145.865C179.926 145.802 180.09 145.851 180.154 145.986C185.58 156.86 186.787 168.23 186.802 168.344C186.816 168.493 186.709 168.628 186.56 168.642C186.553 168.642 186.539 168.642 186.532 168.642V168.635Z" fill="#FFE1B2"/>
<path d="M192.093 168.294C191.951 168.294 191.83 168.181 191.823 168.039C191.823 167.918 191.163 155.866 183.684 144.006C183.606 143.878 183.641 143.715 183.769 143.63C183.897 143.551 184.06 143.587 184.145 143.715C191.702 155.703 192.363 167.89 192.363 168.01C192.363 168.159 192.256 168.287 192.107 168.294C192.107 168.294 192.1 168.294 192.093 168.294Z" fill="#FFE1B2"/>
<path d="M198.059 167.528C197.924 167.528 197.811 167.428 197.789 167.293C197.768 167.13 195.353 150.607 188.648 142.437C188.556 142.324 188.57 142.153 188.684 142.054C188.798 141.962 188.968 141.976 189.067 142.089C195.872 150.372 198.301 167.045 198.329 167.215C198.35 167.364 198.244 167.499 198.102 167.52C198.088 167.52 198.073 167.52 198.066 167.52L198.059 167.528Z" fill="#FFE1B2"/>
<path d="M213.266 165.718C213.138 165.718 213.031 165.633 213.003 165.505C212.967 165.334 209.267 148.052 202.15 139.563C202.051 139.449 202.072 139.279 202.186 139.179C202.299 139.087 202.47 139.101 202.569 139.215C209.771 147.81 213.5 165.214 213.536 165.391C213.564 165.54 213.472 165.682 213.33 165.711C213.308 165.711 213.294 165.711 213.273 165.711L213.266 165.718Z" fill="#FFE1B2"/>
<path d="M218.997 165.455C218.87 165.455 218.756 165.363 218.728 165.228C218.699 165.05 215.631 147.249 207.307 139.151C207.2 139.044 207.2 138.874 207.307 138.768C207.413 138.661 207.584 138.661 207.69 138.768C216.142 146.987 219.239 164.958 219.267 165.143C219.289 165.292 219.189 165.427 219.047 165.455C219.033 165.455 219.019 165.455 219.005 165.455H218.997Z" fill="#FFE1B2"/>
<path d="M224.992 164.838C224.857 164.838 224.736 164.731 224.722 164.589C224.708 164.426 223.074 148.499 213.365 138.86C213.259 138.753 213.259 138.583 213.365 138.477C213.472 138.37 213.642 138.37 213.749 138.477C223.6 148.25 225.248 164.376 225.262 164.539C225.276 164.688 225.17 164.823 225.02 164.838C225.013 164.838 225.006 164.838 224.992 164.838Z" fill="#FFE1B2"/>
<path d="M244.304 164.987C244.162 164.987 244.048 164.88 244.034 164.738C244.027 164.603 242.876 150.77 233.742 138.59C233.65 138.47 233.678 138.299 233.799 138.214C233.92 138.122 234.09 138.15 234.176 138.271C243.409 150.578 244.567 164.561 244.574 164.703C244.588 164.852 244.474 164.98 244.325 164.994C244.325 164.994 244.311 164.994 244.304 164.994V164.987Z" fill="#FFE1B2"/>
<path d="M250.682 165.065C250.554 165.065 250.44 164.972 250.412 164.838C250.383 164.681 247.677 149.365 241.384 139.023C241.306 138.895 241.349 138.732 241.477 138.654C241.605 138.576 241.768 138.619 241.846 138.746C248.196 149.18 250.916 164.596 250.944 164.752C250.973 164.901 250.873 165.036 250.724 165.065C250.71 165.065 250.696 165.065 250.675 165.065H250.682Z" fill="#FFE1B2"/>
<path d="M257.394 165.171C257.259 165.171 257.145 165.072 257.124 164.937C257.102 164.774 254.801 148.513 247.727 140.052C247.635 139.939 247.649 139.768 247.763 139.669C247.876 139.57 248.047 139.591 248.146 139.705C255.32 148.293 257.635 164.703 257.663 164.866C257.685 165.015 257.578 165.15 257.429 165.171C257.415 165.171 257.408 165.171 257.394 165.171Z" fill="#FFE1B2"/>
<path d="M272.082 165.654C271.954 165.654 271.847 165.569 271.819 165.441C271.79 165.299 268.651 150.962 263.211 143.871C263.118 143.75 263.14 143.58 263.26 143.495C263.381 143.402 263.551 143.424 263.637 143.544C269.148 150.734 272.309 165.185 272.344 165.327C272.373 165.476 272.28 165.618 272.138 165.647C272.117 165.647 272.103 165.647 272.082 165.647V165.654Z" fill="#FFE1B2"/>
<path d="M172.05 170.31L169.095 170.793C169.095 170.793 168.136 166.286 169.443 162.041C170.523 158.528 172.49 156.462 172.49 156.462C172.49 156.462 172.021 157.52 171.496 161.353C170.97 165.185 172.043 170.317 172.043 170.317L172.05 170.31Z" fill="#7FB5C9"/>
<path opacity="0.43" d="M214.217 163.503C214.217 163.503 236.924 159.784 256.605 159.578C269.475 159.443 276.585 161.842 276.585 161.842L276.855 163.198L277.195 165.299L214.217 163.503Z" fill="#DB8D58"/>
<path opacity="0.4" d="M-68.9032 237.738H46.4133L71.8687 252.828L-90.921 254.184L-68.9032 237.738Z" fill="#E5B1C0"/>
<path opacity="0.42" d="M62.394 47.5831H-105.637V154.837H62.394V47.5831Z" fill="#6598AE"/>
<path d="M62.1596 201.831H67.5646L68.8004 254.248H60.7604L62.1596 201.831Z" fill="#FDF5F3"/>
<path d="M62.0673 204.897L67.6356 204.883L67.6996 207.672L62.0175 207.034L62.0673 204.897Z" fill="#D6B6C0"/>
<path d="M39.7653 185.322H45.1704L46.4133 237.738H38.3661L39.7653 185.322Z" fill="#D6B6C0"/>
<path d="M39.6801 185.137L45.2414 185.123L45.3053 187.912L39.602 187.905L39.6801 185.137Z" fill="#D6B6C0"/>
<path d="M61.1936 44.0627H-103.528V151.515H61.1936V44.0627Z" fill="#FDF5F3"/>
<path d="M54.567 49.3505H-97.4198V145.56H54.567V49.3505Z" fill="#CBEBF4"/>
<path d="M55.4122 90.5883H-98.6698V96.0322H55.4122V90.5883Z" fill="#FDF5F3"/>
<path d="M28.1811 124.728L26.2066 117.929C26.2066 117.929 22.009 118.859 18.2234 117.432C11.4689 114.898 12.6337 105.281 15.837 104.23C18.2731 103.428 20.3542 105.16 20.5175 107.893C20.7022 110.852 20.2334 111.974 21.5261 113.578C22.8258 115.182 25.7023 114.309 25.7023 114.309C25.7023 114.309 22.1156 106.359 23.6497 97.4873C24.7435 91.1775 29.9496 87.7564 36.9314 90.929C41.3847 92.9519 40.4827 101.554 40.4827 101.554C40.4827 101.554 42.308 102.236 42.9615 100.916C43.5794 99.6592 42.4075 95.0457 44.9786 94.996C47.9687 94.9463 48.8779 100.965 46.8679 103.797C45.0567 106.352 40.2057 104.67 40.2057 104.67L38.2312 124.53L28.1811 124.714V124.728Z" fill="#83C15B"/>
<path d="M28.6854 111.03C27.8544 110.604 26.37 107.502 26.37 107.502L29.7082 109.199C29.7082 109.199 29.5235 111.456 28.6854 111.03Z" fill="#A3E27A"/>
<path d="M39.4742 111.477L43.757 109.525L39.19 114.756L39.4742 111.477Z" fill="#A3E27A"/>
<path d="M34.5095 118.979L36.8036 117.162C36.8036 117.162 35.4115 119.859 35.0138 120.016C34.4314 120.243 34.5095 118.986 34.5095 118.986V118.979Z" fill="#A3E27A"/>
<path d="M15.1267 105.969C13.827 105.607 15.425 101.214 15.425 101.214L16.9876 104.89C16.9876 104.89 15.8583 106.175 15.1267 105.969Z" fill="#A3E27A"/>
<path d="M18.7135 104.833L21.107 103.456L19.9706 106.253L18.7135 104.833Z" fill="#A3E27A"/>
<path d="M27.9894 124.047L38.5295 121.627L38.2383 124.551L28.2167 124.842L27.9894 124.047Z" fill="#76B24F"/>
<path d="M29.9639 102.683C29.9639 102.683 33.0606 104.734 35.5322 105.934C38.0039 107.133 39.879 107.744 39.879 107.744L40.1418 105.557L29.9639 102.676V102.683Z" fill="#76B24F"/>
<path d="M23.0034 124.65L43.0822 124.565L39.5097 145.681L28.0107 145.546L23.0034 124.65Z" fill="#AD7C73"/>
<path d="M22.5915 84.4133C22.5915 84.4133 21.4764 84.1435 19.8712 84.683C18.0956 85.2863 15.9577 87.6569 15.4889 89.5733C14.5301 93.4983 20.5175 98.1332 28.3587 101.966C36.8746 106.125 43.828 106.267 45.6107 105.103C50.618 101.824 47.2869 95.4999 47.2869 95.4999C47.2869 95.4999 40.4827 95.4289 32.7481 92.0362C26.5618 89.3178 22.5844 84.4133 22.5844 84.4133H22.5915Z" fill="#F9AE5D"/>
<path d="M18.0032 94.1939C18.0032 94.1939 17.9606 94.1939 17.9322 94.1868C17.7901 94.1513 17.6978 94.0023 17.7404 93.8532C17.7973 93.6403 19.1538 88.6435 23.2094 86.869C23.3443 86.8123 23.5077 86.869 23.5645 87.011C23.6213 87.1459 23.5645 87.3091 23.4225 87.3659C19.6013 89.0339 18.2731 93.9384 18.2589 93.9881C18.2305 94.1087 18.1169 94.1868 17.9961 94.1868L18.0032 94.1939Z" fill="#EA9847"/>
<path d="M22.627 98.3319C22.627 98.3319 22.5773 98.3319 22.556 98.3248C22.4139 98.2822 22.3287 98.1332 22.3642 97.9912C22.421 97.7712 23.8699 92.6396 26.7606 90.1412C26.8743 90.0418 27.0447 90.056 27.1442 90.1695C27.2436 90.2831 27.2294 90.4535 27.1158 90.5528C24.3529 92.9448 22.904 98.0835 22.8898 98.1332C22.8543 98.2539 22.7477 98.3319 22.627 98.3319Z" fill="#EA9847"/>
<path d="M28.4297 101.228C28.38 101.228 28.3374 101.214 28.2877 101.192C28.1598 101.114 28.1172 100.951 28.1953 100.823C28.2237 100.781 30.9298 96.2381 31.7537 93.4487C31.7963 93.3068 31.9455 93.2216 32.0875 93.2642C32.2296 93.3068 32.3148 93.4558 32.2722 93.5978C31.4341 96.4511 28.7706 100.908 28.6641 101.093C28.6144 101.178 28.522 101.228 28.4297 101.228Z" fill="#EA9847"/>
<path d="M34.1686 103.733C34.126 103.733 34.0762 103.719 34.0407 103.698C33.9129 103.627 33.8632 103.464 33.9342 103.329C33.9555 103.286 36.2496 99.0913 36.8533 95.216C36.8746 95.0669 37.0167 94.9675 37.1658 94.9888C37.315 95.0101 37.4144 95.1521 37.3931 95.3011C36.7752 99.2688 34.4385 103.549 34.4101 103.591C34.3603 103.684 34.268 103.733 34.1757 103.733H34.1686Z" fill="#EA9847"/>
<path d="M40.8094 105.21C40.8094 105.21 40.7384 105.21 40.7029 105.188C40.5679 105.132 40.4969 104.975 40.5537 104.833C40.5679 104.791 42.2796 100.617 41.9884 96.9975C41.9742 96.8485 42.0879 96.7207 42.237 96.7065C42.3862 96.6923 42.514 96.8059 42.5282 96.9549C42.8336 100.71 41.129 104.869 41.058 105.039C41.0154 105.146 40.916 105.21 40.8094 105.21Z" fill="#EA9847"/>
<path d="M13.0812 108.886C11.1564 108.652 8.88361 109.191 8.59241 110.625C8.39354 111.626 10.7019 112.208 10.7019 112.208C10.7019 112.208 7.51282 114.288 9.49442 116.318C11.4476 118.312 14.5301 115.21 14.5301 115.21C14.5301 115.21 14.9278 117.105 15.908 117.219C17.7547 117.425 18.33 114.195 18.33 114.195C18.33 114.195 21.036 115.771 21.8741 115.359C22.7122 114.948 21.6753 112.556 21.6753 112.556C21.6753 112.556 23.8983 111.598 23.7989 109.383C23.7492 108.219 22.7264 106.807 20.9224 107.069C19.7718 107.24 19.1468 109.411 19.1468 109.411C19.1468 109.411 18.9337 108.077 17.6694 108.219C16.4052 108.368 15.8228 110.682 15.8228 110.682C15.8228 110.682 14.9918 109.12 13.067 108.886H13.0812Z" fill="#F88F95"/>
<path d="M22.5914 84.2926C22.5914 84.2926 31.846 75.5766 40.5324 79.8707C48.885 84.0016 47.3508 95.578 47.3508 95.578C47.3508 95.578 41.9813 95.8832 34.3035 92.8596C28.0888 90.4038 21.59 84.4701 22.5914 84.2926Z" fill="#FFCD7D"/>
<path d="M35.0777 78.288C35.0777 74.7888 37.9542 71.9497 41.4984 71.9497C45.0425 71.9497 47.919 74.7888 47.919 78.288C47.919 81.7872 45.0425 84.6262 41.4984 84.6262C37.9542 84.6262 35.0777 81.7872 35.0777 78.288Z" fill="#F9AE5D"/>
<path opacity="0.32" d="M38.423 83.8384C38.423 83.8384 39.0693 85.6696 41.7327 86.1096C44.2612 86.5284 45.7457 85.2153 45.7457 85.2153C45.7457 85.2153 45.5042 84.683 45.2982 84.2926C45.0851 83.9022 44.9076 83.6467 44.9076 83.6467C44.9076 83.6467 43.7001 84.2287 42.0808 84.2784C40.4614 84.3281 38.4301 83.8384 38.4301 83.8384H38.423Z" fill="#F9AE5D"/>
<path opacity="0.6" d="M42.4359 38.0509C42.4359 38.0509 45.5255 39.7402 49.581 39.7402C53.6365 39.7402 54.2545 37.9515 58.6509 38.0509C62.1596 38.129 63.4309 40.0667 67.174 39.8821C69.5178 39.7615 70.1925 37.7386 73.623 38.0509C76.1302 38.278 77.3448 39.9105 80.967 39.9105C84.5893 39.9105 84.9445 37.8025 88.1193 38.0509C89.831 38.1858 91.5782 39.5556 94.4334 39.5556C97.2886 39.5556 99.533 38.0509 99.533 38.0509V181.162C99.533 181.162 98.2688 181.652 95.3567 181.162C92.4376 180.673 90.7614 179.764 88.0554 179.722C85.0155 179.679 83.9217 181.751 79.6105 181.61C75.2992 181.46 74.7523 179.523 70.8104 179.14C68.7152 178.941 67.0106 180.119 64.0275 181.162C60.7462 182.312 57.06 181.162 57.06 181.162C57.06 181.162 57.6708 157.108 56.5628 130.847C55.3412 101.682 44.9857 89.772 43.6504 65.1855C42.3791 41.7559 42.4288 38.0438 42.4288 38.0438L42.4359 38.0509Z" fill="#FFEEC2"/>
<path d="M1.31944 245.844L0.836453 245.603C0.857761 245.553 3.21581 240.769 1.04954 238.342C-0.143681 237.007 -1.10962 236.773 -2.13948 236.525C-2.84973 236.354 -3.58131 236.177 -4.3981 235.637C-6.45783 234.282 -6.19502 232.202 -6.18082 232.11L-5.64104 232.188C-5.64814 232.266 -5.86121 234.026 -4.09978 235.183C-3.36112 235.666 -2.70769 235.829 -2.01164 235.992C-0.953367 236.248 0.147521 236.518 1.44728 237.973C3.86214 240.67 1.41888 245.631 1.31944 245.837V245.844Z" fill="#8C6767"/>
<path d="M12.2005 241.436L11.6607 241.372C11.682 241.174 12.1863 236.439 7.32814 234.204C5.43177 233.331 3.79819 233.92 2.06517 234.544C0.737001 235.027 -0.640889 235.524 -2.15372 235.332C-4.8953 234.992 -5.92516 232.472 -5.96777 232.358L-5.4635 232.16C-5.4635 232.16 -4.50465 234.488 -2.0827 234.793C-0.697705 234.963 0.559432 234.516 1.8805 234.033C3.64192 233.395 5.46018 232.742 7.55543 233.707C12.7758 236.113 12.2076 241.379 12.2005 241.429V241.436Z" fill="#8C6767"/>
<path d="M-3.52451 233.544C-4.9237 233.544 -5.92516 232.436 -5.96777 232.38L-5.56292 232.025C-5.56292 232.025 -4.39102 233.324 -2.95631 232.926C-2.38811 232.77 -1.91223 232.174 -1.40795 231.549C-0.59826 230.534 0.325058 229.384 2.02256 229.47C3.76268 229.562 4.51553 231.23 4.54394 231.301L4.04678 231.521C4.04678 231.521 3.39334 230.087 1.99414 230.016C0.580742 229.945 -0.214742 230.932 -0.981813 231.89C-1.54291 232.585 -2.06849 233.246 -2.81425 233.451C-3.05574 233.515 -3.29722 233.544 -3.52451 233.544Z" fill="#8C6767"/>
<path d="M2.39188 246.17C2.39188 247.058 1.67454 247.775 0.786725 247.775C-0.10109 247.775 -0.818451 247.058 -0.818451 246.17C-0.818451 245.283 -0.10109 244.566 0.786725 244.566C1.67454 244.566 2.39188 245.283 2.39188 246.17Z" fill="#8C6767"/>
<path d="M13.2304 242.025C13.2304 242.913 12.513 243.629 11.6252 243.629C10.7374 243.629 10.02 242.913 10.02 242.025C10.02 241.138 10.7374 240.421 11.6252 240.421C12.513 240.421 13.2304 241.138 13.2304 242.025Z" fill="#8C6767"/>
<path d="M5.87216 232.365C5.87216 233.047 5.31816 233.593 4.64342 233.593C3.96868 233.593 3.41467 233.04 3.41467 232.365C3.41467 231.691 3.96868 231.137 4.64342 231.137C5.31816 231.137 5.87216 231.691 5.87216 232.365Z" fill="#8C6767"/>
<path d="M-25.7341 130.023C-25.7341 130.023 -21.3163 123.983 -9.31306 123.926C4.56526 123.862 8.20174 130.08 9.69327 133.558C12.7758 140.748 9.80691 153.098 8.11651 163.773C6.55396 173.639 7.38495 181.468 7.38495 181.468L-26.5225 181.432C-26.5225 181.432 -28.6958 176.464 -30.2797 162.126C-31.7002 149.272 -25.727 130.016 -25.727 130.016L-25.7341 130.023Z" fill="url(#paint0_linear_4011_1147)"/>
<path d="M6.99434 181.446C6.99434 181.446 24.083 190.475 20.4891 202.938C17.5913 213.003 -11.1455 212.435 -18.5037 206.196C-30.2086 196.259 -26.4443 180.928 -26.4443 180.928L6.99434 181.446Z" fill="#AF6982"/>
<path d="M102.125 28.8522H-158.011C-158.859 28.8522 -159.546 29.5386 -159.546 30.3853V31.6771C-159.546 32.5238 -158.859 33.2102 -158.011 33.2102H102.125C102.973 33.2102 103.66 32.5238 103.66 31.6771V30.3853C103.66 29.5386 102.973 28.8522 102.125 28.8522Z" fill="#DBAB7B"/>
<path d="M81.5068 66.7967C81.5068 66.7967 81.5424 66.4489 80.5125 65.2281C79.646 64.199 77.7212 62.1619 78.5522 61.3599C79.3832 60.5507 81.1233 62.8362 81.1233 62.8362C81.1233 62.8362 82.1106 60.2313 83.1049 61.0334C84.1419 61.8709 81.4997 66.7967 81.4997 66.7967H81.5068Z" fill="#FFF1D2"/>
<path d="M64.9367 91.2625C64.9367 91.2625 64.9722 90.9148 63.9423 89.6939C63.0758 88.6648 61.151 86.6277 61.982 85.8257C62.813 85.0165 64.5531 87.302 64.5531 87.302C64.5531 87.302 65.5404 84.6971 66.5347 85.4992C67.5717 86.3367 64.9296 91.2625 64.9296 91.2625H64.9367Z" fill="#FFF1D2"/>
<path d="M86.6065 112.918C86.6065 112.918 86.642 112.57 85.6121 111.349C84.7456 110.32 82.8208 108.283 83.6518 107.481C84.4828 106.672 86.2229 108.957 86.2229 108.957C86.2229 108.957 87.2102 106.352 88.2045 107.154C89.2415 107.992 86.5993 112.918 86.5993 112.918H86.6065Z" fill="#FFF1D2"/>
<path d="M66.0873 133.423C66.0873 133.423 66.1228 133.075 65.0929 131.854C64.2264 130.825 62.3016 128.788 63.1326 127.986C63.9636 127.177 65.7037 129.463 65.7037 129.463C65.7037 129.463 66.691 126.858 67.6853 127.66C68.7223 128.497 66.0802 133.423 66.0802 133.423H66.0873Z" fill="#FFF1D2"/>
<path d="M87.892 155.213C87.892 155.213 87.9276 154.865 86.8977 153.645C86.0312 152.615 84.1064 150.578 84.9374 149.776C85.7684 148.967 87.5085 151.253 87.5085 151.253C87.5085 151.253 88.4958 148.648 89.4901 149.45C90.5271 150.287 87.885 155.213 87.885 155.213H87.892Z" fill="#FFF1D2"/>
<path d="M78.609 194.726H-106.802V204.89H78.609V194.726Z" fill="#E8CAD2"/>
<path d="M-70.8848 165.917H43.9345L78.0976 194.726H-106.525L-70.8848 165.917Z" fill="#FDF5F3"/>
<path d="M-17.4738 274.597C-17.346 273.49 -10.4281 268.294 -5.81861 268.067C-3.21199 267.939 1.70297 271.786 4.76415 274.767C7.82534 277.755 6.49006 279.998 4.25277 280.594C1.83792 281.233 -4.0643 276.435 -5.75469 276.4C-7.23912 276.371 -10.5205 279.941 -11.6711 279.672C-12.7152 279.43 -17.5591 275.278 -17.4809 274.597H-17.4738Z" fill="#98C6DA"/>
<path opacity="0.65" d="M-16.3943 275.676C-16.2664 274.568 -9.34857 269.373 -4.73903 269.146C-2.13241 269.018 2.78253 272.865 5.84371 275.846C8.9049 278.834 7.56962 281.077 5.33233 281.673C2.91747 282.312 -2.98471 277.514 -4.67511 277.479C-6.15954 277.45 -9.44092 281.02 -10.5915 280.751C-11.6356 280.509 -16.4795 276.357 -16.4014 275.676H-16.3943Z" fill="#E5B1C0"/>
<path d="M0.687286 279.636C0.687286 279.636 1.06372 277.848 2.04387 276.606C3.02402 275.363 4.62209 274.654 4.62209 274.654C4.62209 274.654 7.97447 277.159 5.95025 279.615C4.03257 281.943 0.687286 279.629 0.687286 279.629V279.636Z" fill="#E3F9FF"/>
<path d="M47.6278 271.999C47.6278 271.999 49.5668 273.986 57.2872 272.723C61.08 271.914 56.3852 277.912 56.3852 277.912C56.3852 277.912 60.8669 278.174 66.8614 273.625C68.4524 272.077 66.2719 276.875 66.2719 276.875C66.2719 276.875 70.8886 273.497 71.5988 270.651C72.3091 267.804 67.4438 266.591 74.3972 268.983C81.3506 271.375 87.6221 269.16 87.6221 269.16L87.7144 265.824L71.7338 264.788L47.6278 272.006V271.999Z" fill="#E5B1C0"/>
<path d="M58.8995 265.107C58.8995 265.107 53.0045 262.644 53.0897 257.229C53.2388 248.101 59.2405 244.652 65.7393 244.353C76.6345 243.857 79.369 252.651 79.227 256.001C78.9926 261.679 74.2197 263.255 74.2197 263.255C74.2197 263.255 77.7283 264.057 81.8549 264.078C86.3224 264.099 89.7032 262.19 90.6762 264.617C91.6493 267.038 90.2501 270.622 84.3976 270.629C80.2142 270.629 73.9214 266.676 73.9214 266.676C73.9214 266.676 74.5961 267.982 77.6999 270.48C80.3776 272.631 84.8095 274.597 84.007 276.428C83.2044 278.259 79.2341 277.365 76.1374 276.158C72.4583 274.725 68.7294 271.261 68.7294 271.261C68.7294 271.261 68.076 275.136 66.2507 278.096C64.2051 281.411 61.5204 282.049 59.8016 281.304C58.8214 280.878 61.2576 277.954 62.188 276.087C63.3244 273.802 63.5375 271.786 63.5375 271.786C63.5375 271.786 60.2419 276.414 56.3071 278.458C51.6905 280.857 48.2884 279.672 47.4787 278.486C46.8608 277.585 46.7471 275.882 48.7856 274.682C50.9305 273.426 52.2303 273.44 54.1835 272.482C56.1367 271.524 57.0458 270.58 57.0458 270.58C57.0458 270.58 51.1791 272.688 45.8806 271.758C39.7512 270.679 40.6248 266.151 41.6617 265.462C43.1249 264.49 48.5299 265.881 52.8056 265.952C57.5004 266.03 58.8853 265.107 58.8853 265.107H58.8995Z" fill="#BA70A0"/>
<path d="M56.7261 271.069C56.6409 271.069 56.5628 271.034 56.506 270.956C56.4207 270.835 56.442 270.665 56.5699 270.58C56.5912 270.565 58.8072 268.954 60.1567 267.315C60.249 267.201 60.4195 267.18 60.5402 267.279C60.6539 267.371 60.6752 267.542 60.5757 267.662C59.1836 269.352 56.9818 270.956 56.8895 271.02C56.8398 271.055 56.783 271.069 56.7333 271.069H56.7261Z" fill="#9B5088"/>
<path d="M63.6866 255.476C63.6866 254.83 64.0204 254.304 64.4253 254.304C64.8301 254.304 65.1639 254.83 65.1639 255.476C65.1639 256.121 64.8301 256.647 64.4253 256.647C64.0204 256.647 63.6866 256.121 63.6866 255.476Z" fill="#FDF5F3"/>
<path d="M68.424 255.447C68.424 254.858 68.7436 254.375 69.1343 254.375C69.5249 254.375 69.8445 254.858 69.8445 255.447C69.8445 256.036 69.5249 256.519 69.1343 256.519C68.7436 256.519 68.424 256.036 68.424 255.447Z" fill="#FDF5F3"/>
<path d="M67.1456 262.076C66.4069 262.076 65.5262 261.693 64.9793 260.593C64.8799 260.394 64.958 260.146 65.164 260.047C65.3628 259.947 65.6115 260.025 65.7109 260.231C66.0731 260.962 66.6768 261.338 67.3232 261.253C67.8842 261.175 68.3175 260.749 68.4311 260.16C68.4738 259.94 68.6868 259.791 68.907 259.834C69.1272 259.876 69.2692 260.089 69.2337 260.309C69.0562 261.246 68.353 261.927 67.4368 262.055C67.3445 262.069 67.2521 262.076 67.1527 262.076H67.1456Z" fill="#FF8CC5"/>
<path d="M72.1671 258.116C72.1671 257.257 72.856 256.554 73.7012 256.554C74.5464 256.554 75.2353 257.25 75.2353 258.116C75.2353 258.982 74.5464 259.677 73.7012 259.677C72.856 259.677 72.1671 258.982 72.1671 258.116Z" fill="#9B5088"/>
<path d="M54.8511 254.56C54.8511 253.942 55.4264 253.438 56.1437 253.438C56.8611 253.438 57.4364 253.942 57.4364 254.56C57.4364 255.177 56.8611 255.681 56.1437 255.681C55.4264 255.681 54.8511 255.177 54.8511 254.56Z" fill="#9B5088"/>
<path d="M57.2944 250.422C57.2944 249.301 58.2816 248.392 59.5032 248.392C60.7249 248.392 61.7121 249.301 61.7121 250.422C61.7121 251.543 60.7249 252.452 59.5032 252.452C58.2816 252.452 57.2944 251.543 57.2944 250.422Z" fill="#9B5088"/>
<path d="M72.8062 272.723C72.8062 272.226 73.2111 271.829 73.7154 271.829C74.2196 271.829 74.6245 272.233 74.6245 272.723C74.6245 273.213 74.2196 273.617 73.7154 273.617C73.2111 273.617 72.8062 273.213 72.8062 272.723Z" fill="#9B5088"/>
<path d="M75.3063 275.775C75.3063 275.775 75.8816 274.05 77.2879 274.59C78.7227 275.143 78.4528 276.911 78.4528 276.911C78.4528 276.911 77.778 276.719 76.9754 276.471C76.1728 276.222 75.3134 275.775 75.3134 275.775H75.3063Z" fill="#9B5088"/>
<path d="M45.213 271.637C45.213 271.637 45.8664 268.422 48.7642 268.912C50.9802 269.288 51.449 271.829 51.449 271.829C51.449 271.829 49.2543 272.042 48.3168 272.013C47.3792 271.985 45.213 271.637 45.213 271.637Z" fill="#9B5088"/>
<path d="M53.0684 268.308C53.0684 267.797 53.4945 267.385 54.0272 267.385C54.5599 267.385 54.986 267.797 54.986 268.308C54.986 268.819 54.5599 269.231 54.0272 269.231C53.4945 269.231 53.0684 268.819 53.0684 268.308Z" fill="#9B5088"/>
<path opacity="0.28" d="M189.025 190.453L184.394 186.06C184.394 186.06 195.296 180.971 199.345 180.552C201.454 180.332 205.531 183.107 207.676 185.229C210.347 187.877 207.612 190.922 205.467 190.595C203.237 190.255 198.478 187.714 197.668 187.934C196.525 188.246 192.519 189.956 190.687 190.751C190.119 190.993 189.465 190.879 189.018 190.453H189.025Z" fill="#D36781"/>
<path d="M188.954 189.914L183.584 184.818C183.584 184.818 194.487 179.729 198.535 179.31C200.644 179.09 204.721 181.865 206.866 183.987C209.537 186.635 206.802 189.68 204.657 189.353C202.427 189.013 197.668 186.472 196.859 186.692C195.36 187.103 188.947 189.914 188.947 189.914H188.954Z" fill="#F9C561"/>
<path d="M195.786 179.871C195.786 179.871 196.447 181.908 198.315 182.121C200.552 182.383 201.376 180.048 201.376 180.048C201.376 180.048 200.282 179.331 198.883 179.289C197.484 179.246 195.786 179.871 195.786 179.871Z" fill="#DB9F3E"/>
<path d="M204.217 189.325C204.217 189.325 203.954 187.643 204.92 186.031C205.68 184.775 206.944 184.122 206.944 184.122C206.944 184.122 208.947 185.74 207.413 188.019C206.064 190.027 204.217 189.325 204.217 189.325Z" fill="#DB9F3E"/>
<path d="M186.624 183.455L191.496 188.785C191.496 188.785 189.65 190.155 188.663 190.07C188.151 190.027 187.306 188.956 186.191 187.919C184.991 186.798 183.527 185.684 183.421 184.988C183.293 184.129 186.624 183.448 186.624 183.448V183.455Z" fill="#FFD694"/>
<path d="M188.563 189.304C188.449 189.304 188.343 189.233 188.307 189.119C188.258 188.977 188.336 188.821 188.478 188.778C188.492 188.778 189.572 188.409 190.097 188.069C190.225 187.983 190.388 188.019 190.474 188.147C190.559 188.274 190.523 188.438 190.396 188.523C189.813 188.906 188.698 189.282 188.655 189.296C188.627 189.304 188.599 189.311 188.57 189.311L188.563 189.304Z" fill="#DB9F3E"/>
<path d="M186.759 187.458C186.653 187.458 186.553 187.394 186.511 187.288C186.454 187.153 186.518 186.99 186.66 186.933C186.674 186.933 187.768 186.479 188.293 186.11C188.414 186.024 188.584 186.053 188.67 186.173C188.755 186.294 188.726 186.464 188.606 186.55C188.038 186.954 186.915 187.416 186.866 187.437C186.83 187.451 186.795 187.458 186.766 187.458H186.759Z" fill="#DB9F3E"/>
<path d="M185.545 185.826C185.424 185.826 185.31 185.74 185.282 185.62C185.246 185.478 185.339 185.329 185.481 185.293C185.814 185.215 186.716 184.804 187.029 184.654C187.164 184.591 187.327 184.654 187.391 184.782C187.455 184.917 187.391 185.08 187.263 185.144C187.143 185.201 186.056 185.712 185.601 185.818C185.58 185.818 185.559 185.826 185.537 185.826H185.545Z" fill="#DB9F3E"/>
<path d="M179.181 219.696C179.039 219.696 178.925 219.589 178.911 219.447C178.911 219.384 178.79 217.907 179.067 216.637C179.095 216.488 179.245 216.395 179.387 216.431C179.536 216.466 179.628 216.608 179.593 216.75C179.33 217.943 179.444 219.391 179.444 219.405C179.458 219.554 179.344 219.682 179.195 219.696C179.188 219.696 179.181 219.696 179.174 219.696H179.181Z" fill="#FEEBC1"/>
<path d="M168.91 226.396C168.79 226.396 168.676 226.311 168.648 226.183C168.633 226.126 168.349 224.835 168.818 223.884C168.882 223.749 169.045 223.692 169.18 223.763C169.315 223.827 169.372 223.99 169.301 224.125C168.918 224.906 169.173 226.055 169.173 226.07C169.209 226.219 169.116 226.361 168.967 226.396C168.946 226.396 168.925 226.396 168.903 226.396H168.91Z" fill="#FEEBC1"/>
<path d="M162.248 212.733C162.113 212.733 162 212.634 161.978 212.506C161.978 212.463 161.815 211.37 162.078 210.185C162.113 210.036 162.255 209.951 162.405 209.979C162.554 210.015 162.639 210.157 162.61 210.306C162.369 211.392 162.511 212.414 162.518 212.421C162.539 212.57 162.44 212.705 162.291 212.726C162.277 212.726 162.262 212.726 162.248 212.726V212.733Z" fill="#FEEBC1"/>
<path d="M173.939 207.928C173.825 207.928 173.719 207.857 173.683 207.736C173.669 207.694 173.371 206.714 173.733 205.784C173.79 205.642 173.946 205.579 174.081 205.628C174.223 205.685 174.287 205.841 174.237 205.976C173.939 206.736 174.195 207.566 174.195 207.573C174.237 207.715 174.159 207.864 174.017 207.914C173.989 207.921 173.96 207.928 173.939 207.928Z" fill="#FEEBC1"/>
<path d="M201.035 224.302C200.9 224.302 200.779 224.203 200.765 224.061C200.765 224.004 200.616 222.713 200.829 221.754C200.865 221.605 201.007 221.513 201.149 221.548C201.298 221.584 201.39 221.726 201.355 221.868C201.163 222.741 201.298 223.983 201.305 223.997C201.319 224.146 201.213 224.281 201.064 224.295C201.056 224.295 201.042 224.295 201.035 224.295V224.302Z" fill="#FEEBC1"/>
<path d="M202.797 210.419C202.655 210.419 202.534 210.306 202.527 210.157C202.527 210.107 202.47 208.893 202.562 207.885C202.576 207.736 202.704 207.623 202.853 207.637C203.003 207.651 203.116 207.779 203.102 207.928C203.017 208.893 203.066 210.114 203.066 210.128C203.066 210.277 202.96 210.405 202.811 210.412C202.811 210.412 202.804 210.412 202.797 210.412V210.419Z" fill="#FEEBC1"/>
<path d="M212.57 216.963C212.449 216.963 212.335 216.878 212.307 216.758C212.293 216.708 212.009 215.523 212.328 214.16C212.364 214.011 212.506 213.926 212.655 213.961C212.804 213.997 212.889 214.138 212.854 214.288C212.563 215.53 212.825 216.623 212.832 216.637C212.868 216.779 212.783 216.928 212.634 216.963C212.612 216.963 212.591 216.97 212.57 216.97V216.963Z" fill="#FEEBC1"/>
<path d="M214.928 206.75C214.807 206.75 214.693 206.672 214.665 206.544C214.651 206.48 214.274 204.961 214.665 203.967C214.722 203.825 214.878 203.762 215.013 203.811C215.155 203.868 215.219 204.024 215.169 204.159C214.842 204.989 215.19 206.395 215.19 206.409C215.226 206.551 215.141 206.7 214.992 206.736C214.97 206.736 214.949 206.743 214.928 206.743V206.75Z" fill="#FEEBC1"/>
<path d="M225.574 216.36C225.447 216.36 225.333 216.268 225.312 216.14C225.297 216.076 225.006 214.557 225.212 213.436C225.241 213.287 225.383 213.187 225.525 213.216C225.674 213.244 225.766 213.386 225.745 213.528C225.56 214.55 225.844 216.012 225.844 216.026C225.873 216.175 225.78 216.317 225.631 216.346C225.617 216.346 225.596 216.346 225.581 216.346L225.574 216.36Z" fill="#FEEBC1"/>
<path d="M221.966 230.257C221.831 230.257 221.718 230.158 221.696 230.023C221.689 229.959 221.49 228.426 221.647 227.425C221.668 227.276 221.81 227.177 221.959 227.198C222.108 227.219 222.208 227.361 222.186 227.51C222.037 228.44 222.236 229.945 222.236 229.959C222.257 230.108 222.151 230.243 222.002 230.264C221.988 230.264 221.98 230.264 221.966 230.264V230.257Z" fill="#FEEBC1"/>
<path d="M206.255 238.093C206.135 238.093 206.021 238.008 205.993 237.887C205.978 237.824 205.595 236.227 206.071 235.162C206.135 235.027 206.291 234.963 206.426 235.027C206.561 235.091 206.625 235.247 206.561 235.382C206.156 236.269 206.511 237.738 206.511 237.753C206.547 237.894 206.454 238.044 206.312 238.079C206.291 238.079 206.27 238.086 206.248 238.086L206.255 238.093Z" fill="#FEEBC1"/>
<path d="M217.705 246.447C217.577 246.447 217.463 246.355 217.442 246.227C217.428 246.163 217.151 244.687 217.35 243.48C217.371 243.331 217.513 243.232 217.662 243.253C217.811 243.275 217.911 243.417 217.889 243.566C217.712 244.68 217.982 246.107 217.982 246.121C218.01 246.27 217.911 246.412 217.769 246.44C217.754 246.44 217.733 246.44 217.719 246.44L217.705 246.447Z" fill="#FEEBC1"/>
<path d="M227.776 254.865C227.648 254.865 227.542 254.78 227.513 254.652C227.499 254.581 227.13 252.842 227.442 251.593C227.478 251.451 227.627 251.359 227.769 251.394C227.911 251.43 228.003 251.579 227.968 251.721C227.684 252.842 228.039 254.51 228.039 254.532C228.067 254.681 227.975 254.823 227.833 254.851C227.812 254.851 227.797 254.851 227.776 254.851V254.865Z" fill="#FEEBC1"/>
<path d="M236.399 241.756C236.278 241.756 236.164 241.671 236.136 241.55C236.122 241.479 235.738 239.875 236.157 238.753C236.207 238.611 236.363 238.54 236.505 238.597C236.647 238.647 236.718 238.803 236.661 238.945C236.306 239.91 236.661 241.408 236.661 241.429C236.697 241.571 236.605 241.72 236.462 241.756C236.441 241.756 236.42 241.763 236.399 241.763V241.756Z" fill="#FEEBC1"/>
<path d="M246.165 236.894C246.022 236.894 245.909 236.787 245.895 236.645C245.895 236.581 245.781 235.119 245.98 234.14C246.008 233.991 246.15 233.898 246.299 233.927C246.449 233.955 246.541 234.104 246.513 234.246C246.328 235.148 246.434 236.589 246.434 236.603C246.449 236.752 246.335 236.88 246.186 236.894C246.186 236.894 246.172 236.894 246.165 236.894Z" fill="#FEEBC1"/>
<path d="M272.934 206.884C272.934 206.884 272.92 206.884 272.913 206.884C272.763 206.87 272.65 206.743 272.664 206.593C272.664 206.579 272.792 204.961 272.657 204.038C272.636 203.889 272.735 203.754 272.884 203.733C273.033 203.712 273.168 203.811 273.19 203.96C273.339 204.94 273.211 206.572 273.204 206.643C273.19 206.785 273.076 206.892 272.934 206.892V206.884Z" fill="#FEEBC1"/>
<path d="M265.917 222.805C265.917 222.805 265.888 222.805 265.874 222.805C265.725 222.783 265.625 222.642 265.647 222.492C265.647 222.478 265.91 220.86 265.696 219.859C265.668 219.71 265.76 219.568 265.902 219.54C266.052 219.511 266.194 219.604 266.222 219.746C266.456 220.846 266.194 222.514 266.179 222.578C266.158 222.712 266.044 222.805 265.91 222.805H265.917Z" fill="#FEEBC1"/>
<path d="M211.561 190.837C211.433 190.837 211.32 190.744 211.298 190.617C211.27 190.467 211.369 190.325 211.511 190.297C211.561 190.29 212.662 190.084 213.898 190.262C214.047 190.283 214.146 190.418 214.125 190.567C214.104 190.716 213.962 190.815 213.82 190.794C212.676 190.631 211.625 190.822 211.611 190.822C211.597 190.822 211.575 190.822 211.561 190.822V190.837Z" fill="#FEEBC1"/>
<path d="M224.829 185.066C224.829 185.066 224.765 185.066 224.729 185.045C224.09 184.796 222.996 184.96 222.627 185.045C222.478 185.08 222.336 184.988 222.3 184.846C222.265 184.697 222.357 184.555 222.506 184.52C222.57 184.505 224.012 184.179 224.935 184.541C225.077 184.598 225.141 184.754 225.091 184.889C225.049 184.995 224.949 185.059 224.836 185.059L224.829 185.066Z" fill="#FEEBC1"/>
<path d="M238.508 182.035C238.38 182.035 238.267 181.95 238.245 181.822C238.217 181.673 238.309 181.531 238.451 181.503C238.501 181.496 239.666 181.255 240.632 181.375C240.781 181.397 240.887 181.531 240.866 181.68C240.845 181.83 240.71 181.936 240.561 181.915C239.687 181.801 238.572 182.028 238.565 182.035C238.544 182.035 238.529 182.035 238.508 182.035Z" fill="#FEEBC1"/>
<path d="M221.277 282.057C221.064 280.857 220.112 278.422 211.149 279.182C208.848 279.374 207.094 279.352 205.155 280.232C203.478 280.992 202.882 282 202.96 283.519C203.024 284.775 204.366 285.825 206.17 286.116C208.095 286.429 208.926 286.237 211.994 286.23C215.055 286.23 216.575 286.152 218.621 285.939C220.389 285.762 221.739 284.683 221.284 282.064L221.277 282.057Z" fill="#E59965"/>
<path d="M218.273 279.956C216.078 279.501 210.879 279.65 210.695 281.872C210.538 283.703 212.619 284.392 214.423 284.505C216.98 284.668 220.063 284.945 220.865 283.178C221.625 281.51 219.594 280.232 218.266 279.956H218.273Z" fill="#CE824E"/>
<path d="M208.962 283.93C208.834 283.93 208.72 283.838 208.699 283.71C208.685 283.653 208.422 282.255 208.72 281.105C208.756 280.963 208.905 280.871 209.047 280.914C209.189 280.949 209.281 281.098 209.239 281.24C208.976 282.269 209.224 283.59 209.224 283.604C209.253 283.753 209.153 283.895 209.011 283.923C208.997 283.923 208.976 283.923 208.962 283.923V283.93Z" fill="#AD7C73"/>
<path d="M206.852 283.874C206.738 283.874 206.625 283.796 206.589 283.682C206.575 283.625 206.177 282.262 206.689 281.141C206.753 281.006 206.909 280.942 207.051 281.006C207.186 281.07 207.25 281.226 207.186 281.368C206.76 282.305 207.108 283.519 207.108 283.526C207.15 283.668 207.065 283.817 206.923 283.859C206.895 283.867 206.873 283.874 206.845 283.874H206.852Z" fill="#AD7C73"/>
<path d="M194.302 279.65C193.798 279.473 192.931 280.538 191.482 280.523C189.415 280.502 188.954 279.594 188.329 279.828C187.128 280.275 186.972 280.58 184.145 281.695C182.59 282.312 180.225 282.894 179.728 284.2C179.166 285.676 180.729 286.393 180.729 286.393L195.097 285.421C195.097 285.421 196.291 283.817 196.092 282.376C195.893 280.935 195.062 279.913 194.302 279.65Z" fill="#E59965"/>
<path d="M179.934 285.733C179.934 285.733 180.345 286.443 182.242 286.273C186.063 285.925 190.85 285.598 194.288 285.144C195.417 284.995 195.893 284.058 195.893 284.058C195.893 284.058 196.859 285.974 194.82 286.457C193.009 286.89 191.134 286.89 188.961 287.06C186.603 287.245 183.954 287.579 182.043 287.451C179.323 287.28 179.934 285.733 179.934 285.733Z" fill="#AD7C73"/>
<path d="M187.604 282.859C187.519 282.859 187.434 282.816 187.377 282.738C187.356 282.703 186.816 281.9 186.88 280.481C186.88 280.332 187.015 280.218 187.164 280.225C187.313 280.225 187.427 280.36 187.42 280.509C187.363 281.737 187.817 282.433 187.824 282.44C187.91 282.561 187.874 282.731 187.753 282.816C187.704 282.844 187.654 282.866 187.604 282.866V282.859Z" fill="#AD7C73"/>
<path d="M184.785 283.788C184.714 283.788 184.643 283.76 184.593 283.71C184.557 283.675 183.797 282.887 184.11 281.687C184.145 281.546 184.295 281.46 184.444 281.496C184.586 281.531 184.678 281.68 184.635 281.829C184.401 282.724 184.955 283.313 184.976 283.341C185.083 283.448 185.076 283.618 184.976 283.725C184.927 283.774 184.856 283.803 184.785 283.803V283.788Z" fill="#AD7C73"/>
<path d="M187.59 280.204C187.242 280.19 184.28 280.076 183.62 279.189C183.243 278.678 183.25 277.848 183.648 277.202C184.003 276.613 184.6 276.329 185.239 276.435C186.887 276.712 187.81 279.728 187.853 279.856C187.881 279.941 187.86 280.034 187.81 280.098C187.761 280.161 187.682 280.204 187.597 280.204H187.59ZM184.969 276.96C184.508 276.96 184.231 277.28 184.11 277.493C183.833 277.947 183.812 278.536 184.06 278.87C184.401 279.324 186.035 279.572 187.214 279.65C186.873 278.721 186.106 277.138 185.154 276.975C185.09 276.967 185.033 276.96 184.976 276.96H184.969Z" fill="#AD7C73"/>
<path d="M187.569 280.247C187.512 280.247 187.455 280.225 187.405 280.19C187.334 280.133 187.292 280.048 187.299 279.956C187.32 279.643 187.533 276.875 188.535 276.158C189.053 275.789 189.771 275.853 190.367 276.314C190.971 276.783 191.219 277.493 190.992 278.082C190.552 279.21 187.952 280.126 187.654 280.225C187.626 280.232 187.597 280.24 187.569 280.24V280.247ZM189.288 276.464C189.138 276.464 188.982 276.506 188.847 276.598C188.272 277.01 187.981 278.621 187.874 279.572C188.762 279.232 190.232 278.543 190.488 277.89C190.651 277.464 190.381 277.01 190.04 276.747C189.842 276.591 189.572 276.464 189.295 276.464H189.288Z" fill="#AD7C73"/>
<path d="M178.122 58.7266H145.792V95.436H178.122V58.7266Z" fill="#E1F3F9"/>
<path d="M172.313 64.0286H151.296V89.261H172.313V64.0286Z" fill="#C4E8F2"/>
<path d="M151.332 76.6697C151.332 76.6697 153.207 77.1452 154.833 78.3164C156.46 79.4875 157.845 81.3542 157.845 81.3542L151.31 87.3021L151.332 76.6697Z" fill="#93BC7D"/>
<path d="M153.683 71.0341C152.766 70.7785 153.803 69.8771 154.329 69.799C155.096 69.6784 155.295 70.1468 155.295 70.1468C155.295 70.1468 155.785 69.3093 156.936 69.217C158.086 69.1319 159.01 70.3456 158.2 70.7998C157.39 71.2541 154.606 71.2967 153.69 71.0411L153.683 71.0341Z" fill="#EEFBFF"/>
<path d="M298.482 232.067L296.131 227.319L290.889 226.552L294.682 222.854L293.787 217.63L298.482 220.101L303.176 217.63L302.274 222.854L306.074 226.552L300.826 227.319L298.482 232.067Z" fill="#D89ECC"/>
<path d="M325.855 219.88L326.423 215.21L322.893 212.101L327.51 211.193L329.378 206.877L331.665 210.987L336.352 211.434L333.149 214.877L334.179 219.469L329.903 217.489L325.855 219.88Z" fill="#D89ECC"/>
<path d="M321.245 232.28L320.421 230.605L318.575 230.343L319.91 229.037L319.59 227.205L321.245 228.071L322.893 227.205L322.581 229.037L323.916 230.343L322.069 230.605L321.245 232.28Z" fill="#D89ECC"/>
<path d="M313.944 205.571L313.319 204.301L311.913 204.095L312.928 203.109L312.687 201.71L313.944 202.37L315.201 201.71L314.96 203.109L315.975 204.095L314.569 204.301L313.944 205.571Z" fill="#D89ECC"/>
<path d="M343.959 230.74L341.239 232.046L342.226 229.817L340.507 227.965L342.489 227.83L342.546 225.175L344.016 226.985L343.959 230.74Z" fill="#D89ECC"/>
<path d="M163.044 113.535L163.399 124.551L160.352 124.771L160.743 131.258L171.915 131.138C171.915 131.138 171.084 128.923 174.166 128.753C177.59 128.561 177.611 131.102 177.611 131.102L188.101 131.145V124.281L184.358 124.104L184.373 113.613L163.044 113.535Z" fill="#F4E3DF"/>
<path opacity="0.78" d="M178.918 131.102C178.918 131.102 179.209 127.497 174.152 127.582C170.047 127.653 170.551 131.159 170.551 131.159H171.986C171.986 131.159 171.254 128.838 174.365 128.746C177.448 128.661 177.583 131.109 177.583 131.109L178.918 131.088V131.102Z" fill="#D39BAE"/>
<path opacity="0.78" d="M184.358 124.104C184.358 124.104 182.959 125.112 181.397 127.071C179.983 128.838 179.138 131.123 179.138 131.123L188.101 131.145V124.281L184.358 124.104Z" fill="#D39BAE"/>
<path opacity="0.78" d="M170.43 131.166C170.43 131.166 170.082 128.227 167.895 126.432C165.423 124.402 163.406 124.544 163.406 124.544L160.139 124.608L160.529 131.329C160.529 131.329 169.926 131.18 170.43 131.166Z" fill="#D39BAE"/>
<path d="M195.999 113.514L201.838 113.45C201.838 113.45 202.065 116.076 202.008 119.76C201.987 121.073 201.383 122.478 200.048 123.614C198.329 125.069 196.767 127.78 195.026 126.517C193.293 125.254 196.39 121.691 196.255 118.411C196.12 115.132 195.999 113.514 195.999 113.514Z" fill="#F9C561"/>
<path d="M195.048 122.876C195.048 122.876 196.703 123.571 197.427 124.104C198.144 124.643 198.471 125.197 198.471 125.197C198.471 125.197 197.051 127.589 195.19 126.723C193.549 125.956 195.048 122.876 195.048 122.876Z" fill="#DB9F3E"/>
<path d="M200.95 122.649C200.95 122.649 200.424 121.215 200.68 120.335C200.936 119.455 202.058 119 202.058 119C202.058 119 202.143 120.108 201.887 120.988C201.632 121.868 200.95 122.642 200.95 122.642V122.649Z" fill="#DB9F3E"/>
<path d="M17.2859 117.02L19.1822 115.473C19.1822 115.473 20.4536 116.523 21.7533 116.232C23.0602 115.941 22.9608 114.444 22.9608 114.444C22.9608 114.444 22.7193 114.401 22.4352 114.266C22.1511 114.131 21.7533 113.911 21.7533 113.911L17.8257 113.017L16.9236 116.814L17.2859 117.02Z" fill="#76B24F"/>
<path opacity="0.53" d="M39.19 206.806L39.2469 204.862L45.632 204.918L45.6959 207.332L39.19 206.806Z" fill="#BF99A6"/>
<path d="M-44.3356 173.312L-49.6127 187.231C-49.8045 187.742 -49.4138 188.288 -48.8669 188.267L-23.653 187.401C-23.653 187.401 -23.3689 186.982 -22.616 186.997C-21.8632 187.011 -21.5081 187.437 -21.5081 187.437L2.61209 187.962C3.18739 187.976 3.57093 187.38 3.32234 186.862L-3.68784 173.61C-3.75176 173.483 -3.87961 173.405 -4.02166 173.405L-43.9662 173.057C-44.1296 173.057 -44.2716 173.156 -44.3284 173.305L-44.3356 173.312Z" fill="#F78F90"/>
<path d="M-23.3973 173.852C-23.3973 173.852 -19.4768 170.636 -13.6314 170.473C-8.8656 170.338 -5.4848 171.871 -5.4848 171.871L0.644678 183.505C0.644678 183.505 -2.80714 179.885 -10.5986 181.127C-19.0293 182.468 -22.2751 185.925 -22.2751 185.925L-23.3973 173.852Z" fill="#FEF1BC"/>
<path d="M-47.141 183.199L-47.8016 186.557C-47.8016 186.557 -40.3794 186.273 -34.0085 185.868C-27.6446 185.464 -22.3035 186.209 -22.3035 186.209C-22.3035 186.209 -16.6215 185.123 -10.7051 185.229C-4.78874 185.336 1.39047 186.45 1.39047 186.45L0.644695 183.498C0.644695 183.498 -3.36821 178.778 -9.06443 178.998C-14.7607 179.218 -22.3319 184.321 -22.3319 184.321C-22.3319 184.321 -28.7029 179.345 -34.9034 179.061C-41.1039 178.778 -47.1339 183.192 -47.1339 183.192L-47.141 183.199Z" fill="#F9E8A0"/>
<path opacity="0.31" d="M59.7305 193.683C62.3234 193.683 64.4253 193.038 64.4253 192.242C64.4253 191.446 62.3234 190.801 59.7305 190.801C57.1377 190.801 55.0358 191.446 55.0358 192.242C55.0358 193.038 57.1377 193.683 59.7305 193.683Z" fill="#D6B6C0"/>
<path d="M53.4022 191.525C53.4022 190.609 55.5329 189.871 58.1679 189.871C60.803 189.871 63.0048 190.617 63.0048 191.532C63.0048 192.448 60.803 193.186 58.1679 193.186C55.5329 193.186 53.4022 192.441 53.4022 191.532V191.525Z" fill="#BDB6DB"/>
<path d="M51.1152 176.804C51.1152 176.201 54.2261 175.711 58.0614 175.711C61.8968 175.711 65.0077 176.201 65.0077 176.804C65.0077 177.408 61.911 178.416 58.0757 178.416C54.2403 178.416 51.1081 177.415 51.1081 176.804H51.1152Z" fill="#A49ECC"/>
<path d="M64.4963 178.785C64.4963 178.785 68.1044 177.067 69.2835 178.948C71.5705 182.61 63.4665 187.607 63.4665 187.607L63.7222 185.343C63.7222 185.343 68.9638 182.255 67.8771 180.346C67.1598 179.09 64.5177 180.63 64.5177 180.63L64.4963 178.785Z" fill="#A49ECC"/>
<path d="M52.7559 177.642C52.7559 177.209 55.2204 176.861 58.2603 176.861C61.3002 176.861 63.7648 177.209 63.7648 177.642C63.7648 178.075 61.3002 178.423 58.2603 178.423C55.2204 178.423 52.7559 178.075 52.7559 177.642Z" fill="#8C6767"/>
<path d="M51.1223 176.854C51.1223 176.854 53.4164 178.401 58.8214 178.167C64.2193 177.933 65.0148 176.826 65.0148 176.826L63.0048 191.525H53.3596L51.1223 176.847V176.854Z" fill="#BDB6DB"/>
<path d="M58.2603 185.173C58.2603 185.173 58.1964 185.173 58.168 185.173C55.2488 185.151 52.4149 184.278 52.3865 184.271C52.3155 184.25 52.2729 184.172 52.2942 184.101C52.3155 184.03 52.3936 183.987 52.4647 184.009C52.4931 184.016 55.2915 184.875 58.168 184.896C58.1964 184.896 58.2319 184.896 58.2603 184.896C61.1013 184.896 63.8713 183.867 63.8997 183.86C63.9707 183.831 64.0489 183.867 64.0773 183.938C64.1057 184.009 64.0702 184.087 63.9992 184.115C63.9707 184.129 61.1581 185.173 58.2674 185.173H58.2603Z" fill="white"/>
<path d="M58.6368 187.337C55.3199 187.337 52.692 186.294 52.6565 186.28C52.5854 186.251 52.557 186.173 52.5783 186.102C52.6067 186.031 52.6849 185.996 52.7559 186.024C52.8127 186.046 58.3385 188.239 63.4452 186.188C63.5162 186.159 63.5943 186.188 63.6228 186.266C63.6512 186.337 63.6227 186.415 63.5446 186.443C61.8826 187.11 60.1851 187.337 58.6297 187.337H58.6368Z" fill="white"/>
<path d="M55.2204 177.798C55.2204 177.798 55.0997 181.382 56.6622 181.709C58.104 182.007 58.6012 178.863 58.6012 178.863C58.6012 178.863 58.6509 179.629 59.5317 179.537C60.7675 179.409 60.803 177.841 60.803 177.841C60.803 177.841 59.3896 177.968 57.9904 177.954C56.5983 177.947 55.2204 177.798 55.2204 177.798Z" fill="#8C6767"/>
<path opacity="0.31" d="M8.98303 178.82C8.98303 178.82 22.9679 190.326 26.995 191C31.0222 191.674 49.4745 181.929 49.4106 178.955C49.3396 175.974 37.8335 169.416 37.8335 169.416L8.98303 178.82Z" fill="#D6B6C0"/>
<path d="M10.1763 170.849L9.38789 172.808L8.16626 175.853C8.16626 175.853 9.78563 177.628 13.7772 181.51C18.4791 186.081 23.9552 191.042 25.8444 189.303C28.2877 187.061 24.3813 183.498 24.3813 183.498L10.1763 170.849Z" fill="#F8EBBA"/>
<path d="M47.1022 172.702C47.1022 172.702 47.7131 173.951 47.7628 176.18C47.7983 177.968 47.0099 179.36 46.4133 179.828C44.9147 181.006 40.7881 183.611 35.0422 186.443C30.2338 188.821 27.2649 190.638 25.0276 190.581C21.2704 190.482 16.7603 186.046 13.2872 182.745C8.82679 178.515 6.45453 176.13 6.45453 176.13L9.05405 173.603L8.18046 175.853C8.18046 175.853 20.3897 189.041 24.3174 189.382C25.1413 189.453 26.1498 188.544 26.2777 187.146C26.4126 185.74 24.5304 183.661 24.5304 183.661L47.0951 172.702H47.1022Z" fill="#EAAE4E"/>
<path d="M28.9198 181.496C28.9198 181.496 30.2622 182.39 30.6315 184.207C31.0008 186.024 30.39 188.75 30.39 188.75L32.7836 187.529C32.7836 187.529 33.0748 185.421 32.8546 183.625C32.5989 181.567 31.427 180.346 31.427 180.346L28.9198 181.496Z" fill="#D1953F"/>
<path d="M40.5466 175.818C40.5466 175.818 41.1077 176.79 41.3066 178.515C41.5481 180.595 41.2356 183.136 41.2356 183.136L43.3166 181.901C43.3166 181.901 43.5936 179.871 43.4942 177.947C43.409 176.222 42.7484 174.817 42.7484 174.817L40.5466 175.825V175.818Z" fill="#D1953F"/>
<path d="M9.11798 170.104L31.5548 161.8L47.1804 172.702L24.5376 183.654L9.11798 170.104Z" fill="#F9C561"/>
<path opacity="0.53" d="M20.8442 174.753C20.0914 172.972 22.1795 170.388 25.5106 168.983C28.8417 167.577 32.1515 167.875 32.9043 169.657C33.6572 171.439 31.5264 174.15 28.309 175.804C25.0205 177.493 21.6042 176.535 20.8514 174.76L20.8442 174.753Z" fill="#F8EBBA"/>
<path d="M39.1119 170.899C39.0196 170.899 38.9131 170.871 38.8065 170.842C38.7852 170.842 38.771 170.835 38.7639 170.828C38.6858 170.814 38.6077 170.793 38.5224 170.778C38.4159 170.757 38.3093 170.729 38.2028 170.714C38.0892 170.693 37.9826 170.679 37.869 170.672C37.7625 170.658 37.6559 170.643 37.5494 170.629C37.5139 170.629 37.4713 170.622 37.4286 170.615C37.2511 170.601 36.9812 170.58 36.9528 170.338C36.9386 170.218 37.0522 170.118 37.3292 169.898C37.4854 169.77 37.8548 169.472 37.8619 169.366C37.8619 169.33 37.8548 169.302 37.8264 169.281C37.6985 169.174 37.3576 169.167 37.0167 169.196C36.7468 169.43 36.2212 169.529 36.0081 169.472C35.8732 169.437 35.8448 169.345 35.8448 169.309C35.8235 169.103 36.0507 169.075 36.1431 169.061C36.1715 169.061 36.1928 169.061 36.2141 169.047C36.2141 169.047 36.5266 168.968 36.8888 168.933C36.9172 168.89 36.9315 168.834 36.8746 168.748C36.6687 168.45 35.93 168.535 35.4896 168.585C35.3973 168.592 35.3192 168.606 35.2553 168.614C35.2482 168.614 35.2197 168.621 35.1984 168.628C35.1274 168.649 34.9996 168.699 34.9001 168.592C34.8291 168.514 34.8788 168.436 34.9072 168.379C35.1061 168.053 35.1274 167.953 35.1203 167.932C35.0138 167.606 34.5166 167.599 34.0762 167.584C33.8845 167.584 33.7069 167.577 33.5649 167.549C33.508 167.535 33.4583 167.485 33.4512 167.428C33.437 167.329 33.5151 167.286 33.6004 167.237C33.8063 167.123 33.8419 167.073 33.8419 167.052C33.6146 166.704 33.3092 166.683 32.9896 166.662C32.741 166.64 32.4853 166.626 32.2793 166.456C32.2012 166.392 32.2083 166.321 32.2154 166.293C32.2367 166.186 32.3503 166.158 32.464 166.122C32.5066 166.108 32.5705 166.094 32.5918 166.08C32.7126 166.002 32.8617 165.853 32.8759 165.796C32.8262 165.725 32.4213 165.711 32.2225 165.703C31.8389 165.689 31.5975 165.675 31.4767 165.562C31.4341 165.519 31.4057 165.462 31.4128 165.405C31.4199 165.285 31.5264 165.207 31.633 165.121C31.6756 165.086 31.7253 165.05 31.7466 165.022C31.839 164.909 31.8532 164.873 31.8532 164.859C31.8318 164.845 31.6898 164.788 31.6259 164.759C31.5975 164.745 31.5477 164.745 31.498 164.745C31.4625 164.745 31.427 164.745 31.3986 164.745C31.3276 164.738 31.2708 164.667 31.2779 164.596C31.285 164.525 31.356 164.468 31.427 164.476C31.4554 164.476 31.4767 164.476 31.5051 164.476C31.5762 164.476 31.6543 164.476 31.7324 164.511C31.9171 164.589 32.0804 164.66 32.1159 164.802C32.1515 164.937 32.0591 165.058 31.9597 165.185C31.9171 165.235 31.8532 165.285 31.7963 165.327C31.775 165.341 31.7466 165.363 31.7253 165.384C31.839 165.412 32.0804 165.42 32.2296 165.427C32.5918 165.441 32.9327 165.448 33.0748 165.611C33.1245 165.668 33.1458 165.739 33.1387 165.817C33.1174 166.023 32.8049 166.257 32.741 166.3C32.7197 166.314 32.6913 166.328 32.6629 166.342C32.7623 166.371 32.883 166.378 33.0038 166.385C33.3447 166.406 33.7637 166.442 34.062 166.889C34.1118 166.96 34.126 167.038 34.1047 167.116C34.0834 167.187 34.0407 167.251 33.9768 167.308C34.0123 167.308 34.0407 167.308 34.0762 167.308C34.5805 167.315 35.2126 167.329 35.376 167.854C35.4044 167.953 35.376 168.088 35.241 168.33C35.2979 168.33 35.3689 168.315 35.447 168.308C35.9797 168.244 36.7894 168.152 37.0877 168.585C37.1587 168.692 37.1871 168.798 37.1729 168.897C37.4925 168.883 37.8193 168.912 37.9897 169.054C38.0892 169.132 38.1318 169.238 38.1247 169.366C38.1105 169.572 37.8548 169.799 37.4926 170.09C37.4073 170.161 37.3008 170.246 37.244 170.303C37.2937 170.317 37.3931 170.324 37.4428 170.324C37.4926 170.324 37.5423 170.331 37.5849 170.338C37.6914 170.353 37.7909 170.367 37.8974 170.381C38.011 170.395 38.1318 170.409 38.2454 170.431C38.3591 170.452 38.4656 170.473 38.5792 170.502C38.6574 170.523 38.7355 170.537 38.8136 170.551C38.8278 170.551 38.8491 170.558 38.8776 170.565C38.9912 170.594 39.0693 170.615 39.1048 170.615C39.1332 170.573 39.1901 170.558 39.2398 170.565C39.3108 170.58 39.3605 170.651 39.3463 170.729C39.3321 170.778 39.3037 170.828 39.2611 170.849C39.2185 170.878 39.1687 170.885 39.1119 170.885V170.899Z" fill="#D1953F"/>
<path d="M24.4026 186.848C24.3245 186.848 24.2464 186.798 24.2108 186.72C23.3585 184.534 10.3396 173.291 10.2047 173.177C10.1195 173.106 10.1124 172.979 10.1834 172.894C10.2544 172.808 10.3823 172.801 10.4675 172.872C11.0073 173.341 23.6995 184.3 24.5873 186.578C24.6299 186.684 24.5731 186.798 24.4737 186.841C24.4524 186.848 24.4239 186.855 24.4026 186.855V186.848Z" fill="#E5C680"/>
<path d="M23.5645 187.302C23.5645 187.302 23.5219 187.302 23.5077 187.295C22.6767 187.032 10.716 177.017 9.30974 174.803C9.25292 174.711 9.28133 174.583 9.37366 174.526C9.46599 174.469 9.59383 174.498 9.65065 174.59C11.1209 176.911 23.0815 186.713 23.6284 186.912C23.735 186.947 23.7918 187.061 23.7563 187.167C23.7278 187.252 23.6497 187.309 23.5645 187.309V187.302Z" fill="#E5C680"/>
<path d="M124.598 241.259H85.4488C85.0251 241.259 84.6817 241.602 84.6817 242.025V251.785C84.6817 252.208 85.0251 252.551 85.4488 252.551H124.598C125.021 252.551 125.365 252.208 125.365 251.785V242.025C125.365 241.602 125.021 241.259 124.598 241.259Z" fill="#748E83"/>
<path d="M129.861 231.464H89.483C89.0594 231.464 88.7159 231.807 88.7159 232.231V240.514C88.7159 240.937 89.0594 241.28 89.483 241.28H129.861C130.284 241.28 130.628 240.937 130.628 240.514V232.231C130.628 231.807 130.284 231.464 129.861 231.464Z" fill="#99C5D8"/>
<path d="M121.011 221.577H90.0796C89.6559 221.577 89.3125 221.92 89.3125 222.343V230.719C89.3125 231.142 89.6559 231.485 90.0796 231.485H121.011C121.435 231.485 121.778 231.142 121.778 230.719V222.343C121.778 221.92 121.435 221.577 121.011 221.577Z" fill="#CD6D9B"/>
<path d="M92.9916 233.537C98.0699 232.763 115.159 233.011 122.538 233.537C124.037 233.643 123.532 234.8 122.538 234.935C115.208 235.921 94.3482 235.112 92.9916 234.935C92.4589 234.864 92.2956 233.643 92.9916 233.537Z" fill="#7BADBF"/>
<path d="M92.8212 236.965C92.8567 237.355 95.8681 237.426 98.7731 237.54C101.813 237.66 104.768 237.809 104.81 237.27C104.846 236.78 101.628 236.546 98.4961 236.312C95.6053 236.099 92.7359 236.085 92.8212 236.965Z" fill="#7BADBF"/>
<path d="M117.346 244.744C117.772 243.956 120.429 244.176 120.627 244.744C120.997 245.78 120.947 249.464 120.627 250.159C120.414 250.621 117.566 250.649 117.346 250.159C116.913 249.208 116.771 245.816 117.346 244.744Z" fill="#97BFAD"/>
<path d="M115.336 224.444C115.507 223.983 117.332 224.097 117.524 224.444C117.815 224.97 117.957 228.334 117.524 229.108C117.275 229.548 115.578 229.512 115.336 229.108C115.059 228.646 115.024 225.31 115.336 224.444Z" fill="#E096BD"/>
<path d="M94.6465 223.798C94.9022 223.167 96.9761 223.522 97.1466 223.798C97.6437 224.615 97.4236 228.845 97.1466 229.292C96.8554 229.768 95.2502 229.839 94.6465 229.292C94.0641 228.76 94.0712 225.197 94.6465 223.798Z" fill="#E096BD"/>
<path d="M90.0512 241.287L124.598 241.259C125.024 241.259 125.365 241.599 125.365 242.025V243.807L90.0512 241.287Z" fill="#547063"/>
<path d="M89.7955 221.605L94.263 218.269H117.602L121.466 221.733L89.7955 221.605Z" fill="#E59AC5"/>
<path d="M102.232 207.53C102.232 207.53 103.546 207.268 105.677 207.176C107.182 207.112 108.425 206.43 108.425 206.43C108.425 206.43 107.289 209.064 105.748 209.362C104.206 209.667 102.232 207.523 102.232 207.523V207.53Z" fill="#F95D68"/>
<path d="M105.542 208.985C105.4 208.985 105.279 208.872 105.272 208.73C105.272 208.701 105.087 205.72 103.404 204.507C103.283 204.422 103.255 204.251 103.34 204.131C103.425 204.01 103.596 203.982 103.716 204.067C105.613 205.429 105.805 208.567 105.812 208.701C105.819 208.851 105.705 208.978 105.556 208.985C105.556 208.985 105.549 208.985 105.542 208.985Z" fill="#AB5E46"/>
<path d="M105.904 221.087C98.3469 220.555 94.9377 211.974 99.8029 208.332C102.566 206.267 105.641 208.716 105.641 208.716C105.641 208.716 108.489 204.713 112.445 206.544C113.596 207.076 114.363 207.864 114.811 208.808C114.995 209.198 112.502 210.817 112.232 212.307C111.92 214.032 112.161 215.118 112.538 216.559C112.602 216.807 112.85 217.41 112.701 217.595C110.933 219.738 108.454 221.257 105.904 221.08V221.087Z" fill="#FC757E"/>
<path opacity="0.6" d="M101.55 210.59C99.8669 211.335 101.728 214.99 103.432 213.776C105.137 212.563 103.233 209.844 101.55 210.59Z" fill="#FDF5F3"/>
<path opacity="0.35" d="M101.642 215.828C101.032 216.601 102.395 217.467 102.679 216.835C102.971 216.183 102.054 215.317 101.642 215.828Z" fill="#FDF5F3"/>
<path d="M114.896 208.822C114.896 208.822 113.951 207.793 112.957 208.73C112.502 209.156 112.85 210.213 112.85 210.213C112.85 210.213 111.231 210.142 110.897 211.981C110.663 213.287 111.678 214.146 111.678 214.146C111.678 214.146 111.018 214.6 110.975 215.494C110.897 217.183 112.722 217.623 112.722 217.623C112.722 217.623 112.779 216.559 113.248 215.65C113.724 214.735 114.164 213.961 114.164 213.961C114.164 213.961 113.589 213.01 113.809 211.413C114.036 209.809 114.889 208.815 114.889 208.815L114.896 208.822Z" fill="#FCDE84"/>
<path d="M151.374 86.4787C151.374 86.4787 152.717 82.7382 159.62 80.6088C164.819 79.0048 172.298 80.4953 172.298 80.4953L172.327 89.1971L151.374 89.2184V86.4787Z" fill="#BDE5A8"/>
<path d="M163.25 70.1823C162.745 70.452 162.888 71.9851 161.886 73.5892C160.885 75.1933 159.436 75.8534 159.691 76.3715C159.947 76.8897 162.674 75.6476 162.674 75.6476C162.674 75.6476 162.518 76.911 161.574 78.1176C160.629 79.3313 158.846 79.9275 159.152 80.4385C159.457 80.9496 162.177 80.1404 162.177 80.1404C162.177 80.1404 161.566 81.1767 160.636 82.1775C159.706 83.1783 158.434 84.321 159.102 84.3991C159.77 84.4842 162.298 83.086 163.314 82.9582C164.336 82.8234 166.872 84.683 167.199 84.101C167.526 83.5189 164.613 80.183 164.613 80.183C164.613 80.183 166.957 80.9709 167.035 80.4243C167.114 79.8778 165.501 79.0119 164.748 77.7769C163.996 76.5419 164.024 75.4701 164.024 75.4701C164.024 75.4701 164.471 75.7185 165.139 76.1302C165.935 76.6271 167.05 77.0245 166.851 76.3857C166.652 75.754 165.182 75.0301 164.358 73.3124C163.534 71.5948 163.775 69.8984 163.257 70.1752L163.25 70.1823Z" fill="#8CB276"/>
<path d="M167.653 71.758C167.966 72.5459 170.423 72.3046 170.75 71.6232C171.07 70.9418 170.473 70.4875 169.202 70.4875C167.93 70.4875 167.348 70.9702 167.653 71.758Z" fill="#EEFBFF"/>
<path opacity="0.22" d="M193.237 58.4995L232.57 42.0966L253.402 88.9842L214.068 105.394L193.237 58.4995Z" fill="#6598AE"/>
<path d="M294.781 164.547C294.746 164.547 294.703 164.539 294.668 164.525C294.625 164.504 290.562 162.595 291.734 157.172C292.182 155.107 293.51 152.594 294.916 149.932C297.757 144.559 300.982 138.462 298.311 133.757C296.294 130.201 294.078 129.597 291.734 128.966C290.129 128.533 288.467 128.078 286.954 126.595C285.399 125.076 285.356 122.883 285.306 120.555C285.235 117.29 285.157 113.592 280.74 110.994C276.847 108.709 271.577 109.504 266.485 110.27C259.333 111.349 251.946 112.471 247.755 105.408C244.424 99.794 247.5 94.925 250.469 90.2121C253.125 86.0031 255.632 82.0355 253.849 77.6136C251.619 72.0632 248.501 70.3384 245.753 68.8124C243.395 67.5064 241.363 66.385 240.397 63.2407C239.907 61.6508 240.617 59.1666 241.434 56.292C243.21 50.0531 245.412 42.2811 237.159 38.711C231.065 36.0777 228.046 38.0012 224.544 40.237C222.918 41.2733 221.235 42.3521 219.104 43.0832C215.851 44.2046 213.152 44.2614 210.766 44.3111C208.166 44.3608 206.113 44.4033 204.274 45.8016C200.886 48.371 204.643 53.6517 204.679 53.7085C204.764 53.8291 204.736 53.9995 204.615 54.0846C204.494 54.1698 204.324 54.1414 204.238 54.0208C204.196 53.964 200.14 48.2503 203.947 45.3686C205.929 43.8639 208.166 43.8213 210.751 43.7717C213.095 43.722 215.752 43.6723 218.926 42.5721C221 41.8553 222.655 40.7977 224.253 39.7756C227.733 37.554 231.015 35.4602 237.372 38.2141C246.058 41.9688 243.686 50.3299 241.953 56.4411C241.157 59.2376 240.475 61.6508 240.916 63.0846C241.818 66.0159 243.764 67.0948 246.015 68.3369C248.842 69.8984 252.045 71.6728 254.354 77.4078C256.236 82.0852 253.537 86.358 250.923 90.496C248.04 95.0669 245.049 99.8011 248.217 105.124C252.223 111.867 259.112 110.831 266.4 109.724C271.584 108.943 276.947 108.127 281.009 110.512C285.69 113.258 285.775 117.12 285.846 120.526C285.896 122.833 285.939 124.821 287.338 126.19C288.751 127.575 290.271 127.986 291.876 128.419C294.227 129.058 296.656 129.718 298.787 133.466C301.6 138.427 298.304 144.659 295.399 150.159C294.014 152.786 292.7 155.263 292.267 157.257C291.187 162.254 294.852 163.986 294.895 164C295.03 164.064 295.094 164.22 295.03 164.362C294.987 164.461 294.888 164.518 294.781 164.518V164.547Z" fill="white"/>
<path d="M247.209 99.9147C247.287 99.3398 248.16 99.0204 249.162 99.1978C250.163 99.3752 250.909 99.9857 250.824 100.561C250.746 101.135 249.872 101.455 248.871 101.277C247.869 101.1 247.13 100.49 247.209 99.9147Z" fill="#FF696F"/>
<path d="M240.568 62.1122C240.646 61.5373 241.519 61.2179 242.521 61.3953C243.522 61.5728 244.268 62.1832 244.183 62.7581C244.105 63.333 243.231 63.6524 242.23 63.4749C241.228 63.2975 240.49 62.6871 240.568 62.1122Z" fill="#FF696F"/>
<path d="M217.968 39.144C218.522 38.9665 219.189 39.6195 219.459 40.599C219.729 41.5785 219.495 42.5083 218.941 42.6857C218.387 42.8632 217.719 42.2102 217.449 41.2307C217.179 40.2512 217.414 39.3214 217.968 39.144Z" fill="#FF696F"/>
<path d="M273.559 108.822C273.055 108.531 273.097 107.594 273.637 106.743C274.184 105.891 275.029 105.43 275.533 105.728C276.038 106.019 275.995 106.949 275.455 107.807C274.908 108.659 274.063 109.113 273.559 108.822Z" fill="#FF696F"/>
<path d="M299.86 137.043C300.186 136.56 301.117 136.66 301.926 137.263C302.743 137.866 303.141 138.739 302.814 139.222C302.488 139.705 301.564 139.605 300.747 139.002C299.931 138.399 299.533 137.526 299.86 137.043Z" fill="#FF696F"/>
<path d="M246.108 110.533C245.738 110.086 246.086 109.227 246.889 108.602C247.692 107.985 248.643 107.843 249.02 108.283C249.389 108.73 249.041 109.589 248.239 110.214C247.436 110.831 246.484 110.973 246.115 110.533H246.108Z" fill="#83C15B"/>
<path d="M247.663 74.2068C247.294 73.7596 247.642 72.9008 248.444 72.2762C249.247 71.6587 250.199 71.5167 250.575 71.9568C250.945 72.4039 250.597 73.2628 249.794 73.8874C248.991 74.512 248.04 74.6468 247.67 74.2068H247.663Z" fill="#83C15B"/>
<path d="M231.327 40.5564C230.844 40.8829 230.02 40.4429 229.488 39.584C228.955 38.7252 228.905 37.7599 229.388 37.4334C229.871 37.1069 230.695 37.547 231.228 38.4058C231.761 39.2646 231.81 40.2299 231.327 40.5564Z" fill="#83C15B"/>
<path d="M282.068 118.042C281.698 117.595 282.046 116.736 282.849 116.112C283.652 115.494 284.603 115.352 284.98 115.792C285.349 116.24 285.001 117.098 284.199 117.723C283.396 118.34 282.444 118.482 282.075 118.042H282.068Z" fill="#83C15B"/>
<path d="M292.963 147.477C292.821 146.916 293.517 146.291 294.504 146.078C295.499 145.872 296.415 146.156 296.557 146.724C296.699 147.285 296.01 147.91 295.016 148.122C294.021 148.335 293.105 148.044 292.963 147.484V147.477Z" fill="#83C15B"/>
<path d="M257.038 109.717C256.591 109.348 256.769 108.432 257.443 107.673C258.118 106.913 259.02 106.594 259.475 106.963C259.922 107.332 259.745 108.247 259.07 109.007C258.395 109.766 257.493 110.086 257.038 109.717Z" fill="#F9C561"/>
<path d="M254.56 82.4969C255.014 82.142 255.874 82.5111 256.463 83.3345C257.06 84.1578 257.173 85.1089 256.712 85.4709C256.257 85.8258 255.405 85.4567 254.808 84.6333C254.212 83.81 254.098 82.8589 254.56 82.4969Z" fill="#F9C561"/>
<path d="M239.105 39.1298C239.09 38.5478 239.893 38.0864 240.909 38.0935C241.924 38.1006 242.762 38.5762 242.777 39.1582C242.791 39.7402 241.988 40.2016 240.973 40.1945C239.957 40.1874 239.119 39.7118 239.105 39.1298Z" fill="#F9C561"/>
<path d="M287.004 125.899C286.855 125.339 287.537 124.7 288.524 124.48C289.511 124.253 290.435 124.53 290.584 125.09C290.733 125.651 290.051 126.29 289.064 126.51C288.076 126.73 287.153 126.46 287.004 125.899Z" fill="#F9C561"/>
<path d="M293.318 154.681C293.645 154.198 294.575 154.297 295.392 154.901C296.209 155.504 296.607 156.377 296.28 156.86C295.953 157.342 295.03 157.243 294.206 156.64C293.382 156.036 292.991 155.163 293.318 154.681Z" fill="#F9C561"/>
<path d="M265.256 110.668C265.682 110.27 266.563 110.575 267.223 111.349C267.884 112.116 268.076 113.06 267.65 113.457C267.223 113.855 266.343 113.549 265.682 112.776C265.022 112.009 264.83 111.065 265.256 110.668Z" fill="#8199BC"/>
<path d="M295.768 130.811C296.322 130.981 296.5 131.897 296.166 132.855C295.832 133.813 295.108 134.452 294.554 134.282C294 134.112 293.822 133.196 294.156 132.238C294.49 131.28 295.214 130.641 295.768 130.811Z" fill="#8199BC"/>
<path d="M294.27 164.447C294.59 163.958 295.513 164.043 296.344 164.625C297.175 165.207 297.587 166.08 297.274 166.562C296.955 167.052 296.031 166.967 295.2 166.385C294.369 165.803 293.957 164.93 294.27 164.447Z" fill="#8199BC"/>
<path d="M245.951 90.638C246.378 90.2405 247.258 90.5457 247.919 91.3193C248.579 92.0859 248.771 93.0299 248.345 93.4274C247.919 93.8248 247.038 93.5196 246.378 92.746C245.717 91.9794 245.525 91.0354 245.951 90.638Z" fill="#8199BC"/>
<path d="M239.68 50.0745C239.517 49.5209 240.184 48.8679 241.164 48.6195C242.152 48.371 243.075 48.6195 243.238 49.1802C243.402 49.7338 242.734 50.3868 241.754 50.6352C240.774 50.8836 239.843 50.6352 239.68 50.0745Z" fill="#8199BC"/>
<path d="M207.335 44.6092C207.917 44.595 208.372 45.4041 208.365 46.4191C208.351 47.4341 207.868 48.2645 207.292 48.2787C206.71 48.2929 206.255 47.4838 206.27 46.4688C206.284 45.4538 206.767 44.6234 207.342 44.6092H207.335Z" fill="#8199BC"/>
<path d="M229.955 40.3461L191.823 56.7491L212.02 103.636L250.152 87.2334L229.955 40.3461Z" fill="#E1F3F9"/>
<path d="M229.205 43.0235L194.25 58.0599L212.765 101.042L247.719 86.0058L229.205 43.0235Z" fill="#DD9E89"/>
<path d="M211.27 80.8857C207.917 75.1791 210.339 67.5774 216.682 63.9008C223.025 60.2242 230.887 61.8709 234.239 67.5774C237.592 73.284 235.17 80.8857 228.827 84.5623C222.485 88.2389 214.622 86.5922 211.27 80.8857Z" fill="#F9C2D2"/>
<path d="M222.364 62.2329C222.364 62.2329 222.051 60.0822 223.167 58.3291C224.282 56.576 226.192 55.2345 226.824 55.2345C227.485 55.2345 228.749 57.2857 229.282 59.2163C229.878 61.3882 229.282 63.0136 229.282 63.0136L222.364 62.2329Z" fill="#F9C2D2"/>
<path d="M209.842 75.8392C209.842 75.8392 207.285 74.8455 205.673 73.0782C204.054 71.3109 203.208 69.3022 203.436 68.6705C203.656 68.0388 205.694 67.1516 208.237 66.9741C210.553 66.8109 212.47 67.9039 212.47 67.9039L209.856 75.8463L209.842 75.8392Z" fill="#F9C2D2"/>
<path d="M222.059 72.8085C220.091 73.9512 219.729 78.3021 221.036 79.3242C222.669 80.6018 228.309 77.422 228.43 74.6539C228.508 72.9221 224.026 71.6587 222.059 72.8014V72.8085Z" fill="#F28CA0"/>
<path d="M220.425 70.3455C219.8 69.7777 219.665 68.9189 220.113 68.4292C220.56 67.9323 221.434 67.9962 222.051 68.5569C222.677 69.1247 222.811 69.9836 222.364 70.4733C221.917 70.9701 221.043 70.9063 220.425 70.3455Z" fill="#BA70A0"/>
<path d="M217.222 72.049C216.923 71.3534 217.122 70.6011 217.669 70.3669C218.209 70.1326 218.891 70.5159 219.189 71.2115C219.487 71.9071 219.289 72.6594 218.742 72.8936C218.202 73.1208 217.52 72.7446 217.222 72.049Z" fill="#BA70A0"/>
<path d="M214.878 67.6058C214.636 68.8053 218.195 69.0183 218.862 68.5711C219.651 68.0459 220.105 64.5822 218.756 64.9158C217.939 65.1216 217.968 67.5703 217.968 67.5703C217.968 67.5703 215.119 66.4063 214.878 67.6058Z" fill="#DD9E89"/>
<path d="M221.881 76.1942C221.881 75.747 222.257 75.385 222.719 75.385C223.181 75.385 223.557 75.747 223.557 76.1942C223.557 76.6413 223.181 77.0033 222.719 77.0033C222.257 77.0033 221.881 76.6413 221.881 76.1942Z" fill="#D8778E"/>
<path d="M223.962 74.732C223.962 74.3345 224.289 74.0151 224.694 74.0151C225.098 74.0151 225.425 74.3345 225.425 74.732C225.425 75.1295 225.098 75.4489 224.694 75.4489C224.289 75.4489 223.962 75.1295 223.962 74.732Z" fill="#D8778E"/>
<path opacity="0.57" d="M227.591 70.0404C227.144 69.2596 227.591 68.1666 228.6 67.5846C229.609 67.0096 230.788 67.1658 231.235 67.9465C231.683 68.7273 231.235 69.8203 230.227 70.4024C229.218 70.9773 228.039 70.8211 227.591 70.0404Z" fill="#FC757E"/>
<path opacity="0.57" d="M214.381 80.6728C213.898 79.8991 214.352 78.7493 215.396 78.1034C216.433 77.4575 217.669 77.564 218.152 78.3376C218.635 79.1113 218.181 80.2611 217.137 80.907C216.1 81.5529 214.864 81.4464 214.381 80.6728Z" fill="#FC757E"/>
<path d="M229.154 77.3297C229.033 77.3297 228.927 77.2517 228.891 77.1381C228.849 76.9962 228.934 76.8471 229.076 76.8045C229.296 76.7406 229.573 76.478 229.665 76.1373C229.751 75.8321 229.665 75.5482 229.424 75.2856C229.324 75.1791 229.332 75.0017 229.438 74.9023C229.545 74.803 229.722 74.8101 229.822 74.9165C230.191 75.314 230.319 75.8037 230.184 76.2864C230.049 76.7761 229.651 77.202 229.225 77.3227C229.197 77.3298 229.175 77.3368 229.147 77.3368L229.154 77.3297Z" fill="#FF696F"/>
<path d="M229.126 84.2145C229.126 84.2145 225.816 83.8313 225.517 84.8391C225.212 85.847 226.739 88.0331 227.826 87.8841C228.905 87.735 229.268 84.5765 229.268 84.5765C229.268 84.5765 232.45 85.6767 232.847 84.8249C233.245 83.9732 231.903 81.2974 230.866 81.1767C229.829 81.0631 229.126 84.2145 229.126 84.2145Z" fill="#C7DDEF"/>
<path opacity="0.28" d="M234.381 206.842C234.381 206.842 233.231 209.333 233.842 211.81C234.58 214.82 237.159 216.658 237.159 216.658C237.159 216.658 232.79 219.157 231.988 223.167C230.397 231.074 235.781 234.445 238.821 233.018C241.576 231.727 239.027 227.44 239.552 223.685C240.071 219.994 241.569 218.425 241.569 218.425C241.569 218.425 242.784 218.915 244.204 219.1C245.618 219.284 247.237 219.157 247.237 219.157C247.237 219.157 246.562 223.869 248.658 227.511C251.285 232.082 255.959 233.728 257.798 232.273C259.524 230.903 258.708 227.582 257.351 225.509C255.384 222.507 252.173 218.979 252.173 218.979C252.173 218.979 254.389 219.007 256.882 217.006C258.459 215.743 260.611 213.336 261.257 209.929C261.904 206.523 261.193 203.478 261.193 203.478C261.193 203.478 262.344 204.159 262.877 206.743C263.402 209.319 261.655 212.726 263.31 213.798C264.958 214.87 268.417 212.378 268.204 207.623C267.841 199.517 259.276 197.331 259.276 197.331C259.276 197.331 262.287 195.195 263.892 193.101C265.498 191.007 265.696 188.963 265.696 188.963C265.696 188.963 272.962 186.024 275.299 183.895C277.636 181.766 276.215 180.055 273.254 180.034C269.887 180.013 261.826 183.405 261.826 183.405L258.061 182.149C258.061 182.149 267.117 179.047 265.178 176.073C264.411 174.895 259.134 174.959 255.54 177.11C251.946 179.26 250.177 184.023 250.177 184.023C250.177 184.023 247.173 184.129 244.95 187.146C243.125 189.623 242.968 193.981 242.968 193.981C242.968 193.981 236.399 194.811 232.3 198.467C228.202 202.115 225.794 207.829 228.295 209.688C231.036 211.725 234.374 206.842 234.374 206.842H234.381Z" fill="#D36781"/>
<path opacity="0.65" d="M320.833 287.004C320.833 287.004 342.602 287.543 344.499 285.854C346.395 284.165 333.802 280.914 333.802 280.914L320.833 287.004Z" fill="#E5B1C0"/>
<path d="M318.98 277.315C318.98 271.985 319.747 267.669 320.691 267.669C321.636 267.669 322.403 271.992 322.403 277.315C322.403 282.639 321.636 286.961 320.691 286.961C319.747 286.961 318.98 282.639 318.98 277.315Z" fill="#D68C5B"/>
<path d="M322.346 279.26C322.346 279.26 320.464 279.87 319.697 281.247C319.093 282.333 318.98 283.512 318.98 283.512C318.98 283.512 318.362 283.519 318.134 283.817C317.907 284.108 318.071 284.69 318.071 284.69C318.071 284.69 316.686 284.704 315.94 285.605C315.414 286.244 315.627 286.911 315.627 286.911C315.627 286.911 314.619 286.769 314.036 287.408C313.454 288.047 313.113 289.105 314.711 288.934C316.309 288.764 320.933 287.004 320.933 287.004C320.933 287.004 321.373 286.776 321.984 283.611C322.36 281.666 322.346 279.267 322.346 279.267V279.26Z" fill="#AD7C73"/>
<path d="M314.697 259.834C314.697 259.834 309.384 255.27 309.711 250.642C310.037 246.014 313.503 241.961 316.011 241.316C317.417 240.954 321.359 246.61 319.818 252.814C318.703 257.321 314.697 259.834 314.697 259.834Z" fill="#93BC7D"/>
<path d="M311.252 264.994C312.324 262.524 312.296 256.356 307.31 253.091C302.324 249.819 292.473 250.131 291.322 251.912C290.008 253.95 291.337 261.523 296.393 264.681C303.865 269.344 310.343 267.08 311.252 265.001V264.994Z" fill="#93BC7D"/>
<path d="M286.791 265.036C286.741 263.744 284.909 256.746 275.526 256.654C264.674 256.547 260.867 266.023 260.867 266.023C260.867 266.023 267.891 273.887 278.069 272.006C284.447 270.828 286.834 266.307 286.791 265.036Z" fill="#93BC7D"/>
<path d="M288.062 282.93C288.062 282.93 291.322 276.215 295.982 274.498C300.634 272.78 305.123 274.356 305.925 276.712C306.728 279.068 303.993 283.732 300.74 284.86C293.652 287.323 288.062 282.93 288.062 282.93Z" fill="#80A56A"/>
<path d="M301.962 287.642C301.962 287.642 305.698 282.44 309.313 280.623C312.928 278.813 316.998 279.821 316.998 279.821C316.998 279.821 314.597 287.025 309.789 289.239C304.348 291.745 301.969 287.635 301.969 287.635L301.962 287.642Z" fill="#93BC7D"/>
<path d="M305.151 255.845C306.309 255.163 307.196 253.609 304.583 250.294C301.969 246.987 298.318 246.596 298.318 246.596C298.318 246.596 297.636 251.011 299.512 253.368C301.379 255.717 304 256.526 305.151 255.845Z" fill="#AFD385"/>
<path d="M322.204 272.574C322.133 272.531 315.293 267.882 314.633 259.763L315.173 259.72C315.812 267.584 322.438 272.084 322.502 272.127L322.204 272.574Z" fill="#93BC7D"/>
<path d="M322.68 274.845C322.573 274.774 311.678 267.563 291.486 269.174L291.443 268.635C311.842 267.009 322.872 274.327 322.985 274.398L322.68 274.845Z" fill="#93BC7D"/>
<path d="M322.63 273.241C322.588 273.241 322.545 273.234 322.495 273.213L322.481 273.206C321.295 272.652 315.166 269.678 311.138 265.242L311.536 264.88C315.499 269.238 321.536 272.169 322.708 272.716C322.978 272.844 322.886 273.064 322.879 273.085C322.879 273.085 322.808 273.241 322.637 273.241H322.63ZM322.623 272.695C322.524 272.695 322.417 272.759 322.375 272.858L322.595 272.957L322.701 272.709C322.701 272.709 322.652 272.695 322.623 272.695Z" fill="#93BC7D"/>
<path d="M316.217 280.502L315.996 280.005C319.171 278.586 322.723 278.997 322.872 279.019L322.808 279.558C322.772 279.558 319.256 279.147 316.224 280.502H316.217Z" fill="#93BC7D"/>
<path d="M323.191 277.102C323.12 277.06 315.925 272.801 305.506 276.896L305.307 276.393C315.989 272.191 323.397 276.591 323.468 276.641L323.184 277.102H323.191Z" fill="#80A56A"/>
<path d="M280.122 278.827L279.894 278.337C292.175 272.588 303.191 271.985 310.272 272.496C317.95 273.049 322.794 274.994 322.843 275.008L322.637 275.512C322.588 275.491 317.808 273.575 310.208 273.035C303.198 272.531 292.288 273.135 280.129 278.834L280.122 278.827Z" fill="#80A56A"/>
<path d="M310.3 264.916C310.251 264.823 305.399 255.454 292.672 252.594L292.729 252.331C305.584 255.22 310.492 264.703 310.542 264.802L310.3 264.923V264.916Z" fill="#C1DDB1"/>
<path d="M288.51 282.993L288.361 282.766C288.46 282.702 298.233 276.449 305.57 276.577V276.847C305.492 276.847 305.414 276.847 305.336 276.847C298.112 276.847 288.609 282.937 288.51 283.001V282.993Z" fill="#C1DDB1"/>
<path d="M314.981 259.67C314.938 259.67 314.881 259.649 314.832 259.585C314.306 258.89 312.083 249.414 316.018 241.543L316.259 241.663C312.353 249.485 314.597 258.939 315.052 259.422C315.038 259.408 315.002 259.386 314.96 259.401C314.91 259.415 314.889 259.443 314.881 259.464L315.144 259.535C315.116 259.635 315.045 259.663 315.016 259.663C315.009 259.663 314.995 259.663 314.988 259.663L314.981 259.67Z" fill="#C1DDB1"/>
<path d="M320.265 291.255C319.747 290.872 321.387 289.523 322.46 289.452C324.541 289.317 326.224 290.595 325.677 291.042C325.13 291.496 320.791 291.631 320.265 291.255Z" fill="#AD7C73"/>
<path d="M328.021 290.638C327.375 290.616 326.444 291.269 326.778 291.511C327.112 291.752 329.086 291.638 329.399 291.426C329.711 291.206 328.667 290.659 328.028 290.638H328.021Z" fill="#AD7C73"/>
<path d="M291.507 268.706C291.507 268.706 288.815 263.602 284.035 263.411C277.288 263.141 272.472 267.464 272.394 269.522C272.302 271.829 277.65 276.357 286.344 275.136C291.081 274.469 291.507 268.706 291.507 268.706Z" fill="#AFD385"/>
<path d="M272.451 269.799L272.373 269.543C282.501 266.477 291.145 268.968 291.23 268.997L291.152 269.259C291.067 269.231 282.494 266.761 272.444 269.806L272.451 269.799Z" fill="#D2E8C4"/>
<path d="M293.155 282.979C292.31 280.815 286.194 280.062 280.335 281.191C274.482 282.319 269.496 286.748 269.496 286.748C269.496 286.748 276.095 292.355 284.575 290.325C290.399 288.934 294 285.144 293.155 282.979Z" fill="#AFD385"/>
<path d="M258.274 280.247C258.274 280.247 263.381 275.661 268.729 275.385C274.077 275.101 278.879 276.825 279.674 279.118C280.47 281.411 276.698 285.215 270.533 285.279C265.178 285.336 258.281 280.254 258.281 280.254L258.274 280.247Z" fill="#80A56A"/>
<path d="M259.865 280.644L259.808 280.381C259.908 280.36 270.143 278.231 278.843 279.175L278.815 279.445C270.157 278.515 259.965 280.63 259.865 280.651V280.644Z" fill="#C1DDB1"/>
<path d="M320.833 267.634C320.833 267.634 322.389 270.005 322.403 277.294C322.417 284.413 320.933 287.004 320.933 287.004C320.933 287.004 327.424 285.811 333.646 285.158C339.875 284.505 346.253 283.398 346.253 283.398C346.253 283.398 347.12 280.8 347.155 278.139C347.191 275.477 346.402 272.737 346.402 272.737C346.402 272.737 320.684 267.726 320.826 267.627L320.833 267.634Z" fill="#EDA370"/>
<path d="M58.3455 27.8302H58.2674C57.8438 27.8302 57.5004 28.1734 57.5004 28.5968V38.7891C57.5004 39.2124 57.8438 39.5556 58.2674 39.5556H58.3455C58.7692 39.5556 59.1126 39.2124 59.1126 38.7891V28.5968C59.1126 28.1734 58.7692 27.8302 58.3455 27.8302Z" fill="#EFBE92"/>
<path d="M43.5865 27.8302H43.5084C43.0847 27.8302 42.7413 28.1734 42.7413 28.5968V38.7891C42.7413 39.2124 43.0847 39.5556 43.5084 39.5556H43.5865C44.0101 39.5556 44.3536 39.2124 44.3536 38.7891V28.5968C44.3536 28.1734 44.0101 27.8302 43.5865 27.8302Z" fill="#EFBE92"/>
<path d="M86.7911 27.8302H86.713C86.2893 27.8302 85.9459 28.1734 85.9459 28.5968V38.7891C85.9459 39.2124 86.2893 39.5556 86.713 39.5556H86.7911C87.2148 39.5556 87.5582 39.2124 87.5582 38.7891V28.5968C87.5582 28.1734 87.2148 27.8302 86.7911 27.8302Z" fill="#EFBE92"/>
<path d="M98.7092 27.8302H98.631C98.2074 27.8302 97.864 28.1734 97.864 28.5968V38.7891C97.864 39.2124 98.2074 39.5556 98.631 39.5556H98.7092C99.1328 39.5556 99.4762 39.2124 99.4762 38.7891V28.5968C99.4762 28.1734 99.1328 27.8302 98.7092 27.8302Z" fill="#EFBE92"/>
<path d="M72.8418 27.8302H72.7636C72.34 27.8302 71.9966 28.1734 71.9966 28.5968V38.7891C71.9966 39.2124 72.34 39.5556 72.7636 39.5556H72.8418C73.2654 39.5556 73.6088 39.2124 73.6088 38.7891V28.5968C73.6088 28.1734 73.2654 27.8302 72.8418 27.8302Z" fill="#EFBE92"/>
<path d="M156.346 240.592L213.195 260.508C213.195 260.508 227.506 269.529 233.252 267.535C240.767 264.923 241.271 259.642 252.308 249.137C265.704 236.383 283.552 219.788 296.891 208.801C321.224 188.764 330.592 187.38 330.592 187.38C330.592 187.38 329.406 185.861 327.659 184.654C325.912 183.448 323.717 183.057 323.717 183.057C323.717 183.057 323.234 183.05 322.588 182.873L321.799 183.313C321.799 183.313 311.437 188.324 298.439 198.346C287.593 206.707 285.25 209.802 268.41 224.835C251.57 239.875 230.425 260.288 230.425 260.288C230.425 260.288 200.673 248.413 178.314 240.159C155.955 231.911 140.848 226.992 140.848 226.992L156.346 240.577V240.592Z" fill="#FFB8C9"/>
<path d="M188.073 251.657C182.803 250.685 146.587 238.619 144.009 233.473C142.532 230.52 144.172 224.884 144.172 224.884L189.834 244.467C189.834 244.467 189.43 252.104 188.073 251.65V251.657Z" fill="#F7ADC3"/>
<path d="M141.466 234.168C140.721 229.917 140.451 223.649 140.877 211.406C141.338 198.318 143.448 183.249 150.21 176.961C158.654 169.11 193.791 163.503 231.427 163.006C251.477 162.744 274.695 163.461 289.497 167.102C296.727 168.876 306.017 171.758 310.641 173.83C321.323 178.614 323.76 183.093 323.76 183.093C323.76 183.093 293.616 178.543 264.205 178.401C231.739 178.252 184.444 175.037 167.611 187.266C162.142 191.241 159.329 201.213 157.916 211.427C157.625 213.535 157.39 215.65 157.205 217.73C156.154 229.54 157.049 236.447 156.651 240.073C156.431 242.089 142.205 238.42 141.452 234.168H141.466Z" fill="#FEEBC1"/>
<path d="M231.796 205.82C231.796 205.82 230.646 208.311 231.256 210.788C231.995 213.798 234.573 215.636 234.573 215.636C234.573 215.636 230.205 218.134 229.403 222.145C227.812 230.052 233.195 233.423 236.235 231.996C238.991 230.705 236.441 226.41 236.967 222.663C237.485 218.972 238.984 217.403 238.984 217.403C238.984 217.403 240.198 217.893 241.619 218.078C243.032 218.262 244.652 218.134 244.652 218.134C244.652 218.134 243.977 222.847 246.072 226.488C248.7 231.059 253.374 232.706 255.213 231.251C256.939 229.881 256.122 226.559 254.766 224.487C252.798 221.485 249.588 217.957 249.588 217.957C249.588 217.957 251.804 217.985 254.297 215.984C255.874 214.72 258.026 212.314 258.672 208.907C259.318 205.5 258.608 202.456 258.608 202.456C258.608 202.456 259.759 203.137 260.291 205.721C260.817 208.297 259.07 211.704 260.725 212.776C262.372 213.847 265.831 211.356 265.618 206.601C265.256 198.495 256.69 196.309 256.69 196.309C256.69 196.309 259.702 194.173 261.307 192.079C262.912 189.985 263.111 187.941 263.111 187.941C263.111 187.941 270.377 185.002 272.714 182.873C275.05 180.744 273.63 179.033 270.668 179.012C267.302 178.99 259.24 182.383 259.24 182.383L255.476 181.127C255.476 181.127 264.532 178.025 262.593 175.051C261.826 173.873 256.548 173.937 252.955 176.088C249.361 178.238 247.592 183.001 247.592 183.001C247.592 183.001 244.588 183.107 242.365 186.124C240.539 188.601 240.383 192.959 240.383 192.959C240.383 192.959 233.813 193.789 229.715 197.445C225.617 201.093 223.209 206.806 225.709 208.666C228.451 210.703 231.789 205.82 231.789 205.82H231.796Z" fill="#FFCFEC"/>
<path d="M248.061 177.606C245.476 181.432 247.5 184.711 251.648 185.208C255.767 185.698 258.622 182.774 257.706 178.884C256.854 175.278 250.163 174.512 248.061 177.613V177.606Z" fill="#FFE3F5"/>
<path opacity="0.31" d="M255.497 184.491C255.497 184.491 256.641 184.676 257.77 183.788C258.566 183.164 258.892 182.305 258.892 182.305L257.706 181.908C257.706 181.908 257.323 182.71 256.811 183.391C256.172 184.243 255.497 184.491 255.497 184.491Z" fill="#F28CA0"/>
<path opacity="0.31" d="M233.131 203.378C233.131 203.378 234.396 192.845 250.241 195.436C258.629 196.806 258.935 203.847 258.935 203.847L233.131 203.371V203.378Z" fill="#F28CA0"/>
<path d="M246.065 196.217C238.6 195.606 233.898 199.978 231.867 205.075C229.09 212.059 233.451 216.608 239.886 218.021C246.321 219.433 255.355 219.355 258.317 210.973C259.936 206.381 261.485 197.473 246.065 196.217Z" fill="#FFCFEC"/>
<path opacity="0.31" d="M258.324 210.973C257.663 212.839 256.705 214.295 255.533 215.416C251.463 219.32 244.893 219.121 239.893 218.021C235.752 217.112 232.464 214.898 231.391 211.576C231.015 210.412 230.908 209.113 231.136 207.687C231.136 207.687 231.619 215.473 241.91 216.552C252.202 217.63 258.324 210.966 258.324 210.966V210.973Z" fill="#F28CA0"/>
<path opacity="0.31" d="M256.676 196.302C256.676 196.302 259.688 194.165 261.293 192.072C262.898 189.978 263.097 187.934 263.097 187.934C263.097 187.934 263.182 186.826 262.919 185.591C262.465 183.476 261.009 182.802 261.009 182.802C261.009 182.802 262.465 186.301 260.362 191.106C258.963 194.315 256.676 196.302 256.676 196.302Z" fill="#F28CA0"/>
<path d="M236.022 214.571C236.022 214.571 230.376 217.41 229.395 222.152C227.755 230.044 233.188 233.43 236.228 232.003C238.984 230.712 236.434 226.418 236.96 222.67C237.478 218.979 239.786 215.927 239.786 215.927L236.015 214.571H236.022Z" fill="#FFCFEC"/>
<path d="M248.658 215.835C248.658 215.835 252.784 221.492 254.751 224.494C256.108 226.566 256.918 229.895 255.199 231.258C253.366 232.713 248.75 231.031 246.058 226.495C243.643 222.421 244.637 216.154 244.637 216.154L248.658 215.842V215.835Z" fill="#FFCFEC"/>
<path d="M263.047 187.77C263.047 187.77 263.026 187.77 263.019 187.77C262.87 187.756 262.763 187.621 262.777 187.472C262.791 187.316 263.147 183.561 259.908 182.752C259.766 182.717 259.674 182.568 259.709 182.426C259.745 182.284 259.894 182.191 260.036 182.227C263.736 183.15 263.317 187.486 263.317 187.529C263.303 187.671 263.182 187.77 263.047 187.77Z" fill="#F9ACBE"/>
<path opacity="0.28" d="M283.985 187.33L299.227 179.977C299.227 179.977 311.806 189.154 315.904 192.49C316.586 193.044 315.762 194.286 314.519 194.762C313.283 195.237 311.728 194.662 311.628 194.833C311.529 194.996 311.089 196.458 309.675 197.118C308.262 197.778 306.479 197.217 306.11 197.338C305.74 197.459 305.499 199.361 303.979 199.808C302.459 200.248 300.911 199.482 300.712 199.602C300.513 199.723 300.264 201.561 298.787 201.987C297.31 202.413 295.989 201.859 295.705 202.03C295.42 202.2 294.845 203.797 293.666 204.592C292.487 205.38 290.832 204.187 290.229 204.606C289.625 205.025 289.149 208.219 288.062 207.396C287.324 206.835 286.677 202.186 285.662 197.175C284.646 192.164 283.985 187.344 283.985 187.344V187.33Z" fill="#D36781"/>
<path d="M282.764 186.117L298.006 178.763C298.006 178.763 310.584 187.941 314.683 191.277C315.364 191.83 314.54 193.072 313.298 193.548C312.062 194.023 310.506 193.449 310.407 193.619C310.307 193.782 309.867 195.244 308.454 195.904C307.04 196.564 305.257 196.004 304.888 196.124C304.519 196.245 304.277 198.147 302.757 198.594C301.237 199.034 299.689 198.268 299.49 198.389C299.291 198.509 299.043 200.347 297.565 200.773C296.088 201.199 294.767 200.646 294.483 200.816C294.199 200.986 293.624 202.583 292.445 203.378C291.266 204.166 289.611 202.974 289.007 203.392C288.403 203.811 287.927 207.005 286.841 206.182C286.102 205.621 285.456 200.972 284.44 195.961C283.424 190.95 282.764 186.131 282.764 186.131V186.117Z" fill="#8199BC"/>
<path d="M282.693 186.117L281.727 184.094L296.663 177.798L298.091 178.728L282.693 186.117Z" fill="#6888AF"/>
<path d="M287.551 187.323C287.551 187.806 287.16 188.203 286.67 188.203C286.18 188.203 285.789 187.813 285.789 187.323C285.789 186.834 286.18 186.443 286.67 186.443C287.16 186.443 287.551 186.841 287.551 187.323Z" fill="#B7CFE5"/>
<path d="M295.001 188.537C295.001 189.019 294.611 189.417 294.121 189.417C293.631 189.417 293.24 189.019 293.24 188.537C293.24 188.054 293.631 187.657 294.121 187.657C294.611 187.657 295.001 188.054 295.001 188.537Z" fill="#B7CFE5"/>
<path d="M298.006 181.723C298.006 182.206 297.615 182.603 297.125 182.603C296.635 182.603 296.244 182.213 296.244 181.723C296.244 181.233 296.635 180.843 297.125 180.843C297.615 180.843 298.006 181.233 298.006 181.723Z" fill="#B7CFE5"/>
<path d="M289.731 198.523C289.731 199.006 289.341 199.404 288.851 199.404C288.361 199.404 287.97 199.013 287.97 198.523C287.97 198.034 288.361 197.643 288.851 197.643C289.341 197.643 289.731 198.034 289.731 198.523Z" fill="#B7CFE5"/>
<path d="M299.831 194.279C299.831 194.762 299.441 195.159 298.95 195.159C298.46 195.159 298.07 194.769 298.07 194.279C298.07 193.789 298.46 193.399 298.95 193.399C299.441 193.399 299.831 193.796 299.831 194.279Z" fill="#B7CFE5"/>
<path d="M307.438 188.033C307.438 188.516 307.047 188.913 306.557 188.913C306.067 188.913 305.677 188.516 305.677 188.033C305.677 187.55 306.067 187.153 306.557 187.153C307.047 187.153 307.438 187.543 307.438 188.033Z" fill="#B7CFE5"/>
<defs>
<linearGradient id="paint0_linear_4011_1147" x1="-9.56165" y1="123.138" x2="-9.84537" y2="166.3" gradientUnits="userSpaceOnUse">
<stop offset="0.04" stop-color="#D89AB0"/>
<stop offset="0.24" stop-color="#C58096"/>
<stop offset="0.56" stop-color="#C17C92"/>
<stop offset="0.87" stop-color="#B57088"/>
<stop offset="1" stop-color="#AF6982"/>
</linearGradient>
</defs>
</svg>
